<?xml version="1.0" encoding="UTF-8" standalone="no"?>
<svg width="84" height="84" viewBox="0 0 84 84" fill="none" version="1.1" id="svg65"
    sodipodi:docname="logo-edited.svg" inkscape:version="1.4.3 (0d15f75042, 2025-12-25)"
    xmlns:inkscape="http://www.inkscape.org/namespaces/inkscape" xmlns:sodipodi="http://sodipodi.sourceforge.net/DTD/sodipodi-0.dtd"
    xmlns="http://www.w3.org/2000/svg">
  <sodipodi:namedview
     id="namedview65"
     pagecolor="#ffffff"
     bordercolor="#000000"
     borderopacity="0.25"
     inkscape:showpageshadow="2"
     inkscape:pageopacity="0.0"
     inkscape:pagecheckerboard="0"
     inkscape:deskcolor="#d1d1d1"
     inkscape:zoom="16"
     inkscape:cx="38.78125"
     inkscape:cy="21.78125"
     inkscape:window-width="1896"
     inkscape:window-height="1116"
     inkscape:window-x="0"
     inkscape:window-y="0"
     inkscape:window-maximized="1"
     inkscape:current-layer="svg65" />
  <path
     d="m 63.55997,59.102003 c 2.2,0.72 4.01,1.74 5.42,3.06 0.31,0.22 0.46,0.47 0.46,0.76 0,0.47 -0.35,0.92 -1.06,1.36 -0.83,0.52 -2.07,1.44 -3.71,2.76 -1.52,1.21 -2.75,2.09 -3.68,2.65 -0.18,0.09 -0.36,0.14 -0.54,0.14 -0.27,0 -0.51,-0.1 -0.7,-0.28 -0.2,-0.19 -0.3,-0.41 -0.3,-0.66 0,-0.22 0.08,-0.41 0.24,-0.6 0.22,-0.36 0.72,-0.76 1.52,-1.19 0.52,-0.27 1.17,-0.71 1.95,-1.33 0.94,-0.76 1.59,-1.26 1.95,-1.49 0.79,-0.4 1.19,-0.68 1.19,-0.84 0,-0.04 -0.01,-0.07 -0.03,-0.11 -0.43,-0.76 -1.15,-1.33 -2.14,-1.71 -0.88,-0.25 -1.78,-0.51 -2.68,-0.79 -1.06,-0.32 -1.85,-0.78 -2.36,-1.38 -0.04,-0.05 -0.05,-0.12 -0.05,-0.19 0,-0.22 0.13,-0.46 0.38,-0.72 0.25,-0.26 0.73,-0.39 0.73,-0.39 0,0 0.29,-0.05 0.43,-0.05 0.42,0 0.93,0.13 1.54,0.38 0.47,0.2 0.95,0.4 1.44,0.62 z m -42.25,-0.89 c 0.41,0 0.75,0.11 1.02,0.33 0.26,0.22 0.39,0.47 0.39,0.76 0,0.22 -0.08,0.41 -0.24,0.57 -0.6,0.65 -1.82,1.35 -3.68,2.09 -1.72,0.69 -2.86997,1.48 -3.46997,2.38 1.00997,0.61 2.33997,1.28 3.97997,2 2.62,1.17 3.97,1.78 4.06,1.82 0.34,0.16 0.51,0.42 0.51,0.79 0.04,0.45 -0.14,0.83 -0.53,1.15 -0.39,0.32 -0.84,0.47 -1.34,0.47 -0.2,0 -0.39,-0.04 -0.57,-0.11 -0.22,-0.22 -0.51,-0.47 -0.89,-0.76 -2.38,-1.3 -4.92997,-2.54 -7.63997,-3.71 -0.27,-0.11 -0.54,-0.21 -0.81,-0.3 -0.34,-0.16 -0.54,-0.4 -0.6,-0.7 0,-0.78 0.34,-1.5 1.03,-2.17 0.83,-0.67 2.2,-1.43 4.11997,-2.3 1.86,-0.83 3.2,-1.6 4.04,-2.3 0,-0.01 0.2,-0.01 0.62,-0.01 z"
     fill="#5b4538"
     id="path3"
     style="fill:#000000"
     sodipodi:nodetypes="ccscccscsccccsccccsscsccscsccccccssccccccccs" />
  <path
     d="m 38.29997,58.172003 c -0.45,-0.65 -0.87,-1.11 -1.25,-1.38 -0.38,-0.27 -0.82,-0.4 -1.33,-0.4 -0.18,0 -0.34,0.03 -0.47,0.08 l -3,1.04 c -0.17,0.06 -0.37,0.08 -0.59,0.08 -0.4,0 -0.72,-0.09 -0.96,-0.28 -0.25,-0.18 -0.55,-0.55 -0.9,-1.1 l -0.83,0.55 c 0.52,0.75 0.97,1.25 1.33,1.49 0.37,0.25 0.83,0.37 1.4,0.37 0.25,0 0.5,-0.04 0.74,-0.11 l 2.75,-1 c 0.18,-0.07 0.38,-0.11 0.59,-0.11 0.35,0 0.64,0.07 0.85,0.22 0.21,0.14 0.51,0.47 0.89,0.99 z"
     fill="#5b4538"
     id="path4"
     style="fill:#000000" />
  <path
     fill-rule="evenodd"
     clip-rule="evenodd"
     d="m 58.56997,74.742003 c 1.51,9.02 -9.52,9.89 -14.05,5.84 -3.13,-2.8 -2.25,-6.69 2.24,-6.45 3.95,0.21 6.28,5.31 11.81,0.61 z"
     fill="#5b4538"
     id="path5"
     style="fill:#000000" />
  <path
     fill-rule="evenodd"
     clip-rule="evenodd"
     d="m 25.06997,74.742003 c -1.51,9.02 9.52,9.89 14.05,5.84 3.13,-2.8 2.25,-6.69 -2.24,-6.45 -3.95,0.21 -6.28,5.31 -11.81,0.61 z"
     fill="#5b4538"
     id="path6"
     style="fill:#000000" />
  <path
     d="m 35.89997,61.652003 c -0.5,-0.35 -1.12,-0.53 -1.86,-0.53 -0.89,0 -1.61,0.27 -2.17,0.8 -0.65,0.59 -0.9,1.43 -0.75,2.53 0.09,0.89 0.41,1.67 0.95,2.35 0.55,0.68 1.21,1.02 1.97,1.02 0.47,0 0.96,-0.13 1.46,-0.4 0.89,-0.53 1.33,-1.55 1.33,-3.06 0,-1.36 -0.31,-2.26 -0.93,-2.71 z m -1.9,3.59 c -0.52,0 -0.95,-0.42 -0.95,-0.95 0,-0.52 0.42,-0.95 0.95,-0.95 0.52,0 0.95,0.42 0.95,0.95 0,0.53 -0.43,0.95 -0.95,0.95 z"
     fill="#5b4538"
     id="path7"
     style="fill:#000000" />
  <path
     d="m 42.49997,73.362003 c 0.28,0 0.55,-0.05 0.8,-0.15 0.25,-0.1 0.48,-0.22 0.69,-0.38 0.21,-0.16 0.4,-0.34 0.57,-0.53 0.17,-0.2 0.32,-0.39 0.44,-0.6 0.13,-0.2 0.23,-0.39 0.31,-0.58 0.08,-0.18 0.17,-0.46 0.17,-0.46 l -0.14,-0.21 c 0,0 -0.5,0.8 -0.8,1.08 -0.3,0.28 -0.63,0.48 -0.98,0.61 -0.36,0.13 -0.75,0.19 -1.16,0.19 -0.36,0 -0.68,-0.05 -0.96,-0.14 -0.29,-0.09 -0.54,-0.23 -0.77,-0.4 -0.23,-0.18 -0.43,-0.39 -0.62,-0.63 -0.18,-0.24 -0.5,-0.82 -0.5,-0.82 l -0.12,0.18 c 0,0 0.31,0.75 0.52,1.1 0.2,0.34 0.43,0.64 0.69,0.9 0.26,0.26 0.54,0.47 0.86,0.62 0.3,0.13 0.64,0.21 1,0.22 z"
     fill="#5b4538"
     id="path8"
     style="fill:#000000"
     sodipodi:nodetypes="csscccccscsccccccscc" />
  <path
     d="m 51.29007,61.592003 c -0.5,-0.35 -1.12,-0.53 -1.86,-0.53 -0.89,0 -1.6101,0.27 -2.1701,0.8 -0.65,0.59 -0.9,1.44 -0.75,2.53 0.09,0.89 0.41,1.67 0.95,2.35 0.55,0.68 1.2101,1.02 1.9701,1.02 0.47,0 0.96,-0.13 1.46,-0.4 0.89,-0.53 1.33,-1.55 1.33,-3.06 0.01,-1.37 -0.3,-2.27 -0.93,-2.71 z m -2.18,3.76 c -0.52,0 -0.95,-0.43 -0.95,-0.95 0,-0.52 0.42,-0.95 0.95,-0.95 0.52,0 0.95,0.42 0.95,0.95 0,0.53 -0.43,0.95 -0.95,0.95 z"
     fill="#5b4538"
     id="path9"
     style="fill:#000000" />
  <path
     id="path10"
     style="fill:#000000"
     d="m 40.1875,1.0061571 c -1.332656,0.024375 -2.665547,0.1239062 -3.998047,0.3164062 -3.79,0.56 -8.700234,4.2095313 -13.240234,4.5195313 -3.218062,1.0627778 -4.641186,2.3850565 -5.65625,3.6796874 0.138291,-0.127685 0.285384,-0.244701 0.4375,-0.349609 0.461747,-0.3232231 1.320313,-0.4296875 1.320313,-0.4296875 0,0 -0.881484,0.2399998 -1.271484,0.5000005 -0.43,0.589999 -0.748359,0.969609 -1.068359,1.599609 -0.88996,1.78 0.959453,1.690156 1.689453,2.660156 1.84,1.48 1.989609,6.330235 3.099609,11.740235 1.154566,6.777791 1.966299,13.819762 5.769562,19.570484 -0.0038,-0.0037 -0.0063,-0.0078 -0.0078,-0.0098 v -0.002 l -0.002,-0.002 v -0.002 c -1.57e-4,-0.0016 0,-0.0034 0,-0.0059 -4,-4.68 -5.649063,-12.739297 -7.039063,-19.529297 -1.1,-5.39 -2.041328,-9.989453 -3.861328,-11.439453 l -0.0098,-0.0098 c -0.22996,-0.3 -0.360156,-0.651484 -0.410156,-1.021484 -0.06507,-0.462701 0.0019,-0.955598 0.167969,-1.439454 -1.159043,2.769237 -1.399227,5.530575 -0.777344,8.300782 1.65997,5.28 4.21,10.080078 5,15.830078 1.75,3.09 1.869141,8.929609 5.869141,12.849609 0.08986,-0.0428 0.179906,-0.08526 0.269531,-0.126953 l 0.08203,3.527344 c 4.41,-2.34 15.448516,-8.130469 30.228516,2.019531 0.188385,-1.067518 0.301504,-2.135607 0.337891,-3.203125 0.231495,0.0945 0.462651,0.189394 0.693359,0.283203 1.54,-0.67 2.32914,-5.870937 3.369141,-10.710937 3.75,-8.57 12.121093,-14.87961 11.621093,-22.84961 -6.87,-13.4499998 -16.491328,-13.9299996 -20.611328,-14.9999996 -4.005,-0.7425 -8.003984,-1.33874996 -12.001953,-1.265625 z M 16.107422,11.35186 c 0.07104,-0.169734 0.144691,-0.339971 0.222656,-0.509765 0.310727,-0.428854 0.612155,-0.872978 0.962891,-1.320313 -0.388998,0.359165 -0.717051,0.799772 -0.953125,1.279297 -0.09141,0.18007 -0.168802,0.365376 -0.232422,0.550781 z M 36.541016,2.2405321 c 0.223064,-0.0076 1.449215,0.2714846 1.449215,0.2714846 0,0 -1.350156,-0.029453 -1.910156,0.060547 -1.46,0.33 -1.29,1.2503121 -2.25,3.3203125 -0.64,2.19 -1.000937,4.8992188 -0.710937,8.1992188 1.25,8.17 2.781328,19.31039 4.111328,25.650391 l -0.07031,0.0293 c -2.35,-6.12 -4.869765,-16.73914 -5.259765,-25.11914 -0.15,-3.3 0.01992,-6.2609377 0.669921,-8.4609377 0.65,-2.2100004 1.779297,-3.6501562 3.529297,-3.9101562 0.1425,-0.0225 0.290157,-0.035859 0.441407,-0.041016 z m 10.339843,0.78125 0.08008,0.050781 c -2.69,7.1699909 -3.051094,20.8185159 -3.371094,25.2285159 -0.14,1.9 0.230468,8.890625 0.230468,8.890625 0,0 0.173135,1.585522 0.179687,2.050782 -0.09,-0.66 -0.179297,-1.341251 -0.279297,-2.03125 -1.53,-11.020001 -3.399844,-24.499463 3.160156,-34.1894539 z m 11.708985,1.2402344 -0.01953,0.089844 c -0.97,7.3800005 -4.680546,10.8308595 -6.060546,18.1308595 -0.513448,5.405208 -1.339844,17.029297 -1.339844,17.029297 0,0 -0.03897,1.003883 -0.05078,1.15039 -0.11477,-6.080783 0.0276,-12.133226 0.931639,-18.160156 1.03,-6.23 2.999063,-12.470234 6.539063,-18.2402345 z M 23.478516,6.5198289 c 0.721328,-0.014629 1.592343,0.2279688 2.371093,0.7617188 l -0.06055,0.070312 c -0.87,-0.59 -1.218749,-0.5589844 -1.96875,-0.4589844 -0.309999,0.04 -0.569531,0.1392969 -0.769531,0.2792969 -0.516049,0.5402192 -0.454794,0.9800431 -0.320313,1.6601562 2.22,3.0100006 3.908906,8.0005466 4.378906,13.3105466 0.59,6.73 -0.188516,14.18875 4.271484,19.468751 l -0.07031,0.06055 c -4.48,-5.31 -5.140469,-12.77953 -5.730469,-19.519531 -0.47,-5.3 -0.899609,-10.150624 -3.099609,-13.1406243 -0.46,-0.6200009 -0.60125,-1.1292976 -0.53125,-1.5292976 0.05,-0.27 0.190156,-0.480625 0.410156,-0.640625 0.21,-0.16 0.490312,-0.2607813 0.820313,-0.3007813 0.09625,-0.0125 0.195781,-0.019394 0.298828,-0.021484 z m 44.992153,6.5312471 c -3.19,-0.12 -7.241172,11.931406 -8.201172,14.941407 -1.057724,2.969776 -1.334209,6.099729 -1.71875,9.209018 -0.13,2.91 -0.380937,5.430078 -1.960937,7.080078 l -0.06055,-0.04883 c 1.56,-1.63 1.670547,-4.13125 1.810547,-7.03125 -0.03763,-3.200828 0.666565,-6.262343 1.730468,-9.25 0.856407,-2.982656 4.242471,-14.830531 8.220704,-14.990234 0.0843,0.01712 0.142667,0.07131 0.17969,0.08981 z"
     sodipodi:nodetypes="cccccccccccccccccccccccccccccccccccccccscccccccccsscccccccsccccccscccscccccccccssccccccccccc" />
  <defs
     id="defs65">
    <linearGradient
       id="paint0_linear_9_45"
       x1="57.122299"
       y1="58.737801"
       x2="255.226"
       y2="58.737801"
       gradientUnits="userSpaceOnUse">
      <stop
         stop-color="#3B2519"
         id="stop31" />
      <stop
         offset="0.0299"
         stop-color="#3F2719"
         id="stop32" />
      <stop
         offset="0.2736"
         stop-color="#5C331B"
         id="stop33" />
      <stop
         offset="0.4847"
         stop-color="#6E3B1D"
         id="stop34" />
      <stop
         offset="0.6382"
         stop-color="#743E1D"
         id="stop35" />
      <stop
         offset="0.7421"
         stop-color="#6F3C1C"
         id="stop36" />
      <stop
         offset="0.8624"
         stop-color="#61351A"
         id="stop37" />
      <stop
         offset="0.9905"
         stop-color="#4A2B17"
         id="stop38" />
      <stop
         offset="1"
         stop-color="#482A17"
         id="stop39" />
    </linearGradient>
    <linearGradient
       id="paint1_linear_9_45"
       x1="8.8355303"
       y1="28.462601"
       x2="66.658897"
       y2="28.462601"
       gradientUnits="userSpaceOnUse"
       gradientTransform="translate(14.65997,2.6347996)">
      <stop
         offset="0.0397"
         stop-color="#F9F9EC"
         id="stop40" />
      <stop
         offset="0.4183"
         stop-color="#F9F9EC"
         id="stop41" />
      <stop
         offset="0.4932"
         stop-color="#F3F1E2"
         id="stop42" />
      <stop
         offset="0.6217"
         stop-color="#E4DDC6"
         id="stop43" />
      <stop
         offset="0.7873"
         stop-color="#CCBC9A"
         id="stop44" />
      <stop
         offset="0.7969"
         stop-color="#CABA97"
         id="stop45" />
      <stop
         offset="1"
         stop-color="#BAA685"
         id="stop46" />
    </linearGradient>
    <linearGradient
       id="paint2_linear_9_45"
       x1="20.268999"
       y1="49.201599"
       x2="50.973499"
       y2="49.201599"
       gradientUnits="userSpaceOnUse"
       gradientTransform="translate(14.65997,2.6347996)">
      <stop
         stop-color="#F9F9EC"
         id="stop47" />
      <stop
         offset="0.0526"
         stop-color="#F9F9EC"
         id="stop48" />
      <stop
         offset="0.3844"
         stop-color="#F9F9EC"
         id="stop49" />
      <stop
         offset="0.5145"
         stop-color="#F5F4E5"
         id="stop50" />
      <stop
         offset="0.7094"
         stop-color="#EAE5D0"
         id="stop51" />
      <stop
         offset="0.9441"
         stop-color="#D9CCAF"
         id="stop52" />
      <stop
         offset="0.9987"
         stop-color="#D4C6A6"
         id="stop53" />
    </linearGradient>
    <linearGradient
       id="paint3_linear_9_45"
       x1="10.1621"
       y1="21.8836"
       x2="15.7323"
       y2="21.8836"
       gradientUnits="userSpaceOnUse">
      <stop
         stop-color="#E8DBCA"
         id="stop54" />
      <stop
         offset="1"
         stop-color="#F2ECDE"
         id="stop55" />
    </linearGradient>
    <linearGradient
       id="paint4_linear_9_45"
       x1="18.402"
       y1="15.8332"
       x2="21.459801"
       y2="20.2955"
       gradientUnits="userSpaceOnUse">
      <stop
         stop-color="#ECE1D1"
         id="stop56" />
      <stop
         offset="0.4318"
         stop-color="#EEE6D9"
         id="stop57" />
      <stop
         offset="1"
         stop-color="#EFE9DE"
         id="stop58" />
    </linearGradient>
    <linearGradient
       id="paint5_linear_9_45"
       x1="26.808399"
       y1="19.2871"
       x2="32.4725"
       y2="19.2871"
       gradientUnits="userSpaceOnUse">
      <stop
         stop-color="#ECE1D1"
         id="stop59" />
      <stop
         offset="1"
         stop-color="#EDE4D5"
         id="stop60" />
    </linearGradient>
    <linearGradient
       id="paint6_linear_9_45"
       x1="48.7244"
       y1="18.9074"
       x2="48.577702"
       y2="26.3957"
       gradientUnits="userSpaceOnUse"
       gradientTransform="translate(14.65997,2.6347996)">
      <stop
         stop-color="#BAA68A"
         id="stop61" />
      <stop
         offset="1"
         stop-color="#C7BAA0"
         id="stop62" />
    </linearGradient>
    <linearGradient
       id="paint7_linear_9_45"
       x1="52.062302"
       y1="29.1551"
       x2="62.1189"
       y2="29.1551"
       gradientUnits="userSpaceOnUse">
      <stop
         stop-color="#BDAE99"
         id="stop63" />
      <stop
         offset="0.2551"
         stop-color="#BFB19C"
         id="stop64" />
      <stop
         offset="1"
         stop-color="#C2B5A1"
         id="stop65" />
    </linearGradient>
  </defs>
</svg>
