<?xml version="1.0" encoding="UTF-8" standalone="no"?>
<svg
   version="1.0"
   width="2140pt"
   height="2140pt"
   viewBox="0 0 2140 2140"
   preserveAspectRatio="xMidYMid"
   id="svg81"
   sodipodi:docname="atcoder-logo-edited.svg"
   inkscape:version="1.4.1 (93de688d07, 2025-03-30)"
   xmlns:inkscape="http://www.inkscape.org/namespaces/inkscape"
   xmlns:sodipodi="http://sodipodi.sourceforge.net/DTD/sodipodi-0.dtd"
   xmlns="http://www.w3.org/2000/svg"
   xmlns:svg="http://www.w3.org/2000/svg">
  <defs
     id="defs81" />
  <sodipodi:namedview
     id="namedview81"
     pagecolor="#ffffff"
     bordercolor="#000000"
     borderopacity="0.25"
     inkscape:showpageshadow="2"
     inkscape:pageopacity="0.0"
     inkscape:pagecheckerboard="0"
     inkscape:deskcolor="#d1d1d1"
     inkscape:document-units="pt"
     inkscape:zoom="0.30486372"
     inkscape:cx="833.15915"
     inkscape:cy="1389.1453"
     inkscape:window-width="1896"
     inkscape:window-height="1116"
     inkscape:window-x="0"
     inkscape:window-y="0"
     inkscape:window-maximized="1"
     inkscape:current-layer="svg81" />
  <g
     id="g99"
     inkscape:label="crown"
     style="stroke-width:0;stroke-dasharray:none">
    <path
       d="m 1064.0219,266.2 c -2.6,4.4 -13.4,19.1 -20.6,28.1 -1.7,2.2 -1.5,6.1 6.3,112 4.4,60.3 8,110.1 8,110.7 0,0.6 3.9,1 9.9,1 h 9.8 l 0.6,-4.8 c 0.3,-2.6 4.1,-52.4 8.3,-110.7 l 7.7,-106.1 -7.9,-10 c -4.4,-5.5 -10.2,-13.4 -12.9,-17.7 -2.6,-4.2 -5.1,-7.7 -5.4,-7.7 -0.4,0 -2,2.4 -3.8,5.2 z"
       id="path1"
       style="fill:#000000;stroke:#000000;stroke-width:0;stroke-linecap:round;stroke-linejoin:round;stroke-dasharray:none;stroke-opacity:1" />
    <path
       d="m 1021.7219,317.1 c -3.6,3.3 -11.1,9.8 -16.7,14.5 -5.70002,4.7 -10.30002,9.2 -10.30002,10 0,0.8 6.30002,40.6 14.00002,88.3 7.7,47.7 14,87.1 14,87.4 0,0.4 4.7,0.7 10.5,0.7 7,0 10.5,-0.4 10.5,-1.1 0,-2.6 -15.1,-205.3 -15.3,-205.5 -0.1,-0.1 -3.1,2.5 -6.7,5.7 z"
       id="path2"
       style="fill:#000000;stroke:#000000;stroke-width:0;stroke-linecap:round;stroke-linejoin:round;stroke-dasharray:none;stroke-opacity:1" />
    <path
       d="m 1106.7219,313.2 c 0,2.9 -13.8,191.8 -14.5,199 l -0.6,5.8 h 10.5 10.4 l 0.6,-2.8 c 0.3,-1.5 6.7,-40.5 14.1,-86.7 7.4,-46.2 13.7,-84.9 13.9,-86 0.4,-1.6 -1.2,-3.4 -7.6,-8.5 -4.4,-3.5 -12,-10.1 -16.8,-14.7 -4.8,-4.6 -9,-8.3 -9.4,-8.3 -0.3,0 -0.6,1 -0.6,2.2 z"
       id="path3"
       style="fill:#000000;stroke:#000000;stroke-width:0;stroke-linecap:round;stroke-linejoin:round;stroke-dasharray:none;stroke-opacity:1" />
    <path
       d="m 972.82188,354.6 c -4.7,2.9 -11.8,7 -15.8,9.1 -4,2.1 -7.3,4.4 -7.3,5.2 0,0.8 8.3,34.5 18.5,74.9 10.2,40.4 18.5,73.7 18.5,73.9 0,0.1 5,0.3 11,0.3 6.10002,0 11.00002,-0.2 11.00002,-0.4 0,-1 -27.10002,-168 -27.30002,-168.1 -0.1,-0.1 -4,2.2 -8.6,5.1 z"
       id="path4"
       style="fill:#000000;stroke:#000000;stroke-width:0;stroke-linecap:round;stroke-linejoin:round;stroke-dasharray:none;stroke-opacity:1" />
    <path
       d="m 1153.7219,350.1 c 0,1.4 -25.8,162.4 -26.5,165.6 -0.5,2.3 -0.4,2.3 10.4,2.3 h 11 l 1,-3.8 c 0.6,-2 9.1,-35.7 19,-74.9 l 17.9,-71.2 -8.6,-4.7 c -4.8,-2.6 -12.2,-6.9 -16.4,-9.6 -4.3,-2.6 -7.8,-4.3 -7.8,-3.7 z"
       id="path5"
       style="fill:#000000;stroke:#000000;stroke-width:0;stroke-linecap:round;stroke-linejoin:round;stroke-dasharray:none;stroke-opacity:1" />
    <path
       d="m 929.72188,376.5 c -3,1.3 -9.7,3.8 -14.8,5.6 l -9.4,3.1 0.6,3.2 c 0.4,1.7 8.9,31.4 18.9,66.1 l 18.3,63 14.6,0.3 14.6,0.3 -18.1,-72.1 c -9.9,-39.6 -18.3,-72 -18.6,-71.9 -0.3,0 -3.1,1.1 -6.1,2.4 z"
       id="path6"
       style="fill:#000000;stroke:#000000;stroke-width:0;stroke-linecap:round;stroke-linejoin:round;stroke-dasharray:none;stroke-opacity:1" />
    <path
       d="m 1199.3219,374.8 c -0.2,0.4 -7.7,29.8 -16.6,65.2 -8.9,35.5 -17,67.5 -18,71.2 l -1.9,6.8 h 14.7 14.7 l 18.9,-65.3 c 10.4,-35.8 19,-65.7 19.2,-66.2 0.2,-0.6 -4.9,-2.9 -11.3,-5.1 -6.5,-2.3 -13.5,-4.9 -15.5,-5.8 -2,-0.9 -3.9,-1.2 -4.2,-0.8 z"
       id="path7"
       style="fill:#000000;stroke:#000000;stroke-width:0;stroke-linecap:round;stroke-linejoin:round;stroke-dasharray:none;stroke-opacity:1" />
    <path
       d="m 855.72188,379.4 c 0,0.5 50.9,134.9 51.2,135.1 0.6,0.5 24,3.6 24.4,3.2 0.2,-0.2 -8.7,-28.8 -19.8,-63.6 l -20.3,-63.2 -4,-1 c -5.4,-1.4 -19.8,-6.2 -26.2,-8.8 -2.9,-1.1 -5.3,-1.9 -5.3,-1.7 z"
       id="path8"
       style="fill:#000000;stroke:#000000;stroke-width:0;stroke-linecap:round;stroke-linejoin:round;stroke-dasharray:none;stroke-opacity:1" />
    <path
       d="m 1270.5219,382.6 c -4.8,1.9 -12.4,4.5 -17,5.8 -4.5,1.3 -8.6,3 -9.1,3.7 -1.2,2.1 -40.6,125.3 -40.2,125.8 0.6,0.5 23.9,-2.9 24.6,-3.7 0.9,-1 51.1,-134.3 50.7,-134.7 -0.1,-0.1 -4.2,1.3 -9,3.1 z"
       id="path9"
       style="fill:#000000;stroke:#000000;stroke-width:0;stroke-linecap:round;stroke-linejoin:round;stroke-dasharray:none;stroke-opacity:1" />
  </g>
  <path
     d="m 906.72188,526.2 c 6.15283,20.20857 12.62165,40.32571 19.2,60.4 47.4404,-9.4464 94.60742,-20.23497 141.90002,-30.4 47.6403,10.11593 95.1142,21.13521 143,30 6.3553,-19.70732 12.2968,-39.56547 17.9,-59.5 -102.559,-1.21455 -205.1436,-0.5649 -307.71285,-0.57781 -4.76234,0.0218 -9.5253,0.007 -14.28717,0.0778 z"
     id="path12"
     style="fill:#000000;stroke:#000000;stroke-width:0;stroke-linecap:round;stroke-linejoin:round;stroke-dasharray:none;stroke-opacity:1"
     inkscape:label="crown base" />
  <path
     d="m 700.22188,609.1 c -101.7,40.1 -185.7,73.1 -186.5,73.5 -2.1,0.8 8.8,10.7 11,9.9 0.8,-0.3 83.5,-32.8 183.7,-72.2 l 182.2,-71.6 -2.1,-5.6 c -1.1,-3.1 -2.3,-5.9 -2.7,-6.2 -0.3,-0.3 -83.8,32.2 -185.6,72.2 z"
     id="path13"
     style="fill:#000000;stroke:#000000;stroke-width:0;stroke-linecap:round;stroke-linejoin:round;stroke-dasharray:none;stroke-opacity:1" />
  <path
     d="m 1249.4219,536.7 c -1.6,2.8 -3.8,11.6 -3.1,12.2 0.5,0.5 83.2,33.1 183.7,72.6 l 182.8,71.8 4.9,-4.8 c 2.8,-2.7 4.7,-5.2 4.2,-5.6 -0.4,-0.4 -83.9,-33.4 -185.7,-73.4 -101.7,-40 -185.3,-72.9 -185.7,-73.1 -0.4,-0.2 -0.9,-0.1 -1.1,0.3 z"
     id="path14"
     style="fill:#000000;stroke:#000000;stroke-width:0;stroke-linecap:round;stroke-linejoin:round;stroke-dasharray:none;stroke-opacity:1" />
  <path
     style="fill:#000000;stroke:#000000;stroke-width:0;stroke-linecap:round;stroke-linejoin:round;stroke-dasharray:none;stroke-opacity:1"
     d="m 720.22188,623 c -93.5,36.2 -174.9,67.7 -180.8,70 -5.9,2.3 -10.7,4.5 -10.5,4.9 0.2,0.5 5.9,5.9 12.8,12.1 6.9,6.3 14.1,12.9 16.1,14.7 l 3.5,3.4 172,-67.2 c 94.5,-36.9 172.2,-67.4 172.6,-67.8 0.4,-0.4 -2.2,-8.6 -5.8,-18.4 -5,-13.3 -7,-17.7 -8.3,-17.6 -0.9,0 -78.1,29.7 -171.6,65.9 z"
     id="path17" />
  <path
     style="fill:#000000;stroke:#000000;stroke-width:0;stroke-linecap:round;stroke-linejoin:round;stroke-dasharray:none;stroke-opacity:1"
     d="m 1235.5219,574.7 c -3.6,9.8 -6.3,18.1 -6,18.4 0.9,0.8 342.3,134.1 343.9,134.3 0.7,0 8.7,-6.6 17.8,-14.9 13.6,-12.3 16.3,-15.1 14.8,-15.7 -9.3,-3.9 -361.9,-139.8 -362.7,-139.8 -0.6,0 -4.1,8 -7.8,17.7 z"
     id="path18" />
  <path
     d="m 1049.7219,590.6 c -8.5,3 -43.4,14.8 -77.50002,26.3 -223.7,75.5 -377.6,130.1 -383.9,136.2 -1.3,1.2 0.9,55.1 3.4,84.9 14.5,168.3 59.7,370.4 108.7,485 35.9,84.1 94.7,174.4 167.8,258 56.6,64.6 135.50002,138.9 191.80002,180.4 l 7.7,5.7 4.3,-3 c 14,-9.6 55,-43.6 83.2,-69.1 19.7,-17.7 66.9,-64.4 85.5,-84.5 92.8,-100.4 161.2,-203.4 201.1,-303.3 11.8,-29.3 25.9,-72.1 37.3,-112.7 37.8,-134.9 67.2,-316.3 67.9,-418.8 l 0.2,-23.1 -9,-3.9 c -21.1,-9.1 -83.2,-31.7 -177,-64.2 -122.7,-42.5 -291.3,-99.5 -294,-99.4 -1.1,0.1 -9,2.5 -17.5,5.5 z m 110.4,46.8 c 208.9,70.5 313,107 355.7,124.9 l 10.4,4.4 -0.2,17.9 c -0.7,60.2 -13.9,164 -33.4,261.9 -22.5,113.6 -51.1,211.6 -81.4,279 -54,120.5 -149.5,245.3 -272,355.5 -28.1,25.2 -68.7,58.9 -71.1,59 -4.5,0.1 -69.50002,-55.8 -104.90002,-90.1 -117.1,-113.5 -198.1,-226.1 -246.7,-342.6 -46.3,-111.2 -89.6,-306.1 -103.8,-467 -2.5,-29.3 -4.5,-72.2 -3.4,-73.3 2.6,-2.6 71.5,-28.4 139.9,-52.5 111.9,-39.4 317.00002,-108.7 319.40002,-107.9 0.8,0.3 42,14.1 91.5,30.8 z"
     id="path21"
     style="fill:#000000;stroke:#000000;stroke-width:0;stroke-linecap:round;stroke-linejoin:round;stroke-dasharray:none;stroke-opacity:1" />
  <path
     d="M 1005.7219,647.9 C 797.82188,718.2 668.42188,763.7 639.32188,776.8 l -5.9,2.6 0.7,21.1 c 4.9,151.5 50.6,374.2 101.3,493.5 52.2,122.7 152.2,251.5 280.90002,361.6 17.1,14.7 46.8,38.2 50,39.6 1.9,0.9 3.8,-0.2 14.1,-8 54.8,-41.9 119.7,-103.5 170.8,-162.2 59.1,-67.9 109.2,-143.6 141.7,-214.5 39.2,-85.1 76.2,-229.2 96.2,-374.5 7.7,-55.4 12.6,-111.8 12.6,-144.6 v -12.3 l -4.7,-2.1 c -26.6,-12 -155.4,-57.4 -331.3,-116.9 -34.4,-11.7 -70.3,-23.9 -79.8,-27.1 -9.5,-3.3 -17.6,-6 -18,-5.9 -0.4,0 -28.4,9.4 -62.2,20.8 z m 113.1,12.5 c 179.9,61 298.6,102.4 348.5,121.7 l 18.7,7.3 -0.6,21 c -2.7,87.4 -25.2,228.4 -54.2,338.6 -29.5,112.6 -59.9,182.8 -114.6,265 -45.5,68.4 -100.5,131.5 -173.5,199 -35.9,33.3 -72.1,64 -75.4,64 -1.9,0 -28.7,-21.5 -48,-38.5 -47.30002,-41.6 -98.40002,-93.8 -136.90002,-140 -69.7,-83.4 -118.4,-166.1 -149.5,-253.7 -41.9,-118.3 -78.8,-311.6 -83.2,-436.3 l -0.7,-19 14.9,-5.8 c 43.5,-17.1 146.3,-53.1 345.90002,-121.1 31.4,-10.7 57.1,-19.5 57.1,-19.5 0.1,-0.1 23.3,7.7 51.5,17.3 z"
     id="path22"
     style="fill:#000000;stroke:#000000;stroke-width:0;stroke-linecap:round;stroke-linejoin:round;stroke-dasharray:none;stroke-opacity:1" />
  <g
     id="g97"
     inkscape:label="globe"
     style="stroke-width:0;stroke-dasharray:none">
    <path
       d="m 1027.2219,775.1 c -26.2,20.6 -28.50002,22.6 -28.50002,25.1 0,3.5 3.20002,3.9 29.50002,3.6 l 25.5,-0.3 2.7,-2.8 2.8,-2.7 0.3,-18.1 c 0.4,-20.7 -0.2,-22.9 -6.1,-22.9 -2.6,0.1 -7.4,3.4 -26.2,18.1 z"
       id="path23"
       style="fill:#000000;stroke:#000000;stroke-width:0;stroke-linecap:round;stroke-linejoin:round;stroke-dasharray:none;stroke-opacity:1" />
    <path
       d="m 1077.6219,758.7 c -1,1.2 -1.5,5.9 -1.7,17.7 -0.4,18.7 0.4,22.8 5.1,25.6 2.9,1.8 5.2,2 28.3,2 21.6,0 25.3,-0.2 26.4,-1.6 1,-1 1.1,-2.2 0.4,-3.9 -0.5,-1.3 -12,-11 -25.9,-21.9 -20.4,-16 -25.6,-19.6 -28.1,-19.6 -1.7,0 -3.8,0.7 -4.5,1.7 z"
       id="path24"
       style="fill:#000000;stroke:#000000;stroke-width:0;stroke-linecap:round;stroke-linejoin:round;stroke-dasharray:none;stroke-opacity:1" />
    <path
       d="m 961.72188,780.8 c -49.4,23.5 -48.8,22.6 -17.2,23 30.3,0.3 28,1.4 46.8,-22.1 7.9,-9.8 14.10002,-18.3 13.80002,-18.8 -0.3,-0.5 -1.3,-0.9 -2.2,-0.8 -0.9,0 -19.50002,8.4 -41.20002,18.7 z"
       id="path25"
       style="fill:#000000;stroke:#000000;stroke-width:0;stroke-linecap:round;stroke-linejoin:round;stroke-dasharray:none;stroke-opacity:1" />
    <path
       d="m 1130.7219,763.3 c 0,0.7 6.1,8.9 13.4,18.2 11.2,14.1 14.4,17.5 18.7,19.7 l 5.1,2.8 h 22.4 c 19.9,0 22.5,-0.2 23.1,-1.6 0.4,-1 -0.1,-2.2 -1,-2.9 -3,-2.1 -78.5,-37.5 -80.1,-37.5 -0.9,0 -1.6,0.6 -1.6,1.3 z"
       id="path26"
       style="fill:#000000;stroke:#000000;stroke-width:0;stroke-linecap:round;stroke-linejoin:round;stroke-dasharray:none;stroke-opacity:1" />
    <path
       d="m 894.72188,787.1 c -17.3,7.1 -31.9,13.4 -32.4,13.9 -2.4,2.4 1.3,3.2 12.6,2.8 8.7,-0.3 12.4,-0.9 15.9,-2.5 3.6,-1.6 33.9,-22.5 38.4,-26.5 3,-2.6 -6.4,0.7 -34.5,12.3 z"
       id="path27"
       style="fill:#000000;stroke:#000000;stroke-width:0;stroke-linecap:round;stroke-linejoin:round;stroke-dasharray:none;stroke-opacity:1" />
    <path
       d="m 1207.1219,774.9 c 1.6,2.6 35.5,25.7 40,27.3 5.6,1.9 26,2.6 27.1,0.8 0.3,-0.5 -0.5,-1.6 -1.7,-2.4 -2.7,-1.8 -63.2,-26.6 -64.8,-26.6 -0.6,0 -0.9,0.4 -0.6,0.9 z"
       id="path28"
       style="fill:#000000;stroke:#000000;stroke-width:0;stroke-linecap:round;stroke-linejoin:round;stroke-dasharray:none;stroke-opacity:1" />
    <path
       d="m 826.72188,823.2 c -4.8,1.9 -9.3,5.9 -39.3,35.7 -31.1,30.8 -33.8,33.8 -33.5,36.6 l 0.3,3 30.1,0.3 c 29.8,0.2 30.1,0.2 34.5,-2.1 4,-2.1 6.5,-5.6 26.6,-36.3 16.2,-24.6 22.2,-34.6 22.1,-36.4 l -0.3,-2.5 -17.5,-0.2 c -15.7,-0.2 -18.1,0 -23,1.9 z"
       id="path29"
       style="fill:#000000;stroke:#000000;stroke-width:0;stroke-linecap:round;stroke-linejoin:round;stroke-dasharray:none;stroke-opacity:1" />
    <path
       d="m 895.72188,823.7 c -4.9,2.6 -6.9,5.1 -28.6,35.1 -23.7,32.6 -25.5,35.7 -22.2,39 0.9,0.9 12.1,1.2 44,1.2 46.5,0 46.3,0 50.7,-5.5 1.1,-1.5 6.8,-17.2 12.7,-34.9 10.6,-31.8 10.8,-32.4 9.1,-35 l -1.7,-2.6 h -29.4 -29.4 z"
       id="path30"
       style="fill:#000000;stroke:#000000;stroke-width:0;stroke-linecap:round;stroke-linejoin:round;stroke-dasharray:none;stroke-opacity:1" />
    <path
       d="m 983.82188,822.7 c -1.2,1 -4.3,7.2 -7,13.8 -6.4,15.7 -18.1,51.7 -18.1,55.5 0,1.7 0.9,3.8 2.2,5 2.1,1.9 3.3,2 46.40002,2 31,0 45.1,-0.3 46.8,-1.1 5.2,-2.4 5.6,-5 5.6,-38.4 0,-32.5 -0.3,-35 -4.9,-37.5 -1.3,-0.6 -14.4,-1 -35.4,-1 -30.40002,0 -33.70002,0.2 -35.60002,1.7 z"
       id="path31"
       style="fill:#000000;stroke:#000000;stroke-width:0;stroke-linecap:round;stroke-linejoin:round;stroke-dasharray:none;stroke-opacity:1" />
    <path
       d="m 1079.4219,823.6 c -1.6,1.6 -2.8,4.2 -3.2,6.7 -0.4,2.3 -0.5,17.4 -0.3,33.5 l 0.3,29.4 3.3,2.9 3.2,2.9 h 45 c 43.7,0 45.1,-0.1 47,-2 3.1,-3.1 2.5,-7.1 -3.5,-25.9 -10.2,-31.4 -17.4,-48.6 -20.9,-49.5 -1.1,-0.3 -17,-0.6 -35.2,-0.6 h -33.1 z"
       id="path32"
       style="fill:#000000;stroke:#000000;stroke-width:0;stroke-linecap:round;stroke-linejoin:round;stroke-dasharray:none;stroke-opacity:1" />
    <path
       d="m 1175.0219,822.2 c -0.6,0.7 -1.3,2.1 -1.6,3 -0.8,2.2 20.7,66.4 23,69 4.3,4.8 4.6,4.8 50.2,4.8 37.7,0 43.1,-0.2 44.5,-1.6 0.9,-0.8 1.6,-2.4 1.6,-3.4 0,-1.5 -41.1,-59.7 -46.9,-66.4 -0.9,-1 -3.8,-2.9 -6.6,-4.2 -4.9,-2.3 -5.7,-2.4 -34.1,-2.4 -22.2,0 -29.4,0.3 -30.1,1.2 z"
       id="path33"
       style="fill:#000000;stroke:#000000;stroke-width:0;stroke-linecap:round;stroke-linejoin:round;stroke-dasharray:none;stroke-opacity:1" />
    <path
       d="m 1268.8219,822.4 c -0.7,0.8 -1.1,2.1 -0.9,2.9 0.2,0.8 10.2,16.5 22.2,34.9 15.4,23.5 23,34.2 25.4,35.9 3.5,2.4 3.7,2.4 34,2.7 31.2,0.3 33.2,0.1 33.2,-3.6 0,-2.6 -65.5,-67.6 -71.4,-70.9 -5,-2.7 -5.5,-2.8 -23.2,-3.1 -15.2,-0.3 -18.2,-0.1 -19.3,1.2 z"
       id="path34"
       style="fill:#000000;stroke:#000000;stroke-width:0;stroke-linecap:round;stroke-linejoin:round;stroke-dasharray:none;stroke-opacity:1" />
    <path
       d="m 741.62188,918.1 c -2,1.2 -4.3,3.4 -5.2,4.9 -0.9,1.5 -5.5,16.2 -10.1,32.6 -8.8,31.3 -9.1,34 -4.9,37.1 1.3,1 10.3,1.3 36.9,1.3 h 35.2 l 3.1,-2.5 c 1.6,-1.4 3.2,-3.4 3.5,-4.3 1.4,-4.4 11.6,-61 11.6,-64.3 0,-6.9 -0.3,-6.9 -35.5,-6.9 -29.6,0 -31.2,0.1 -34.6,2.1 z"
       id="path35"
       style="fill:#000000;stroke:#000000;stroke-width:0;stroke-linecap:round;stroke-linejoin:round;stroke-dasharray:none;stroke-opacity:1" />
    <path
       d="m 837.22188,917 c -1.1,0.4 -3.2,2.1 -4.8,3.7 -2.4,2.6 -3.3,5.7 -8.7,32.8 -3.3,16.5 -6,31.2 -6,32.7 0,1.7 1,3.9 2.5,5.3 l 2.4,2.5 h 49.8 c 45.7,0 50,-0.2 51.9,-1.8 1.2,-0.9 2.7,-2.7 3.3,-3.8 1.3,-2.7 7.4,-65.1 6.5,-66.7 -0.4,-0.7 -1.6,-2.2 -2.7,-3.5 l -2,-2.2 -45.1,0.1 c -24.8,0 -46,0.4 -47.1,0.9 z"
       id="path36"
       style="fill:#000000;stroke:#000000;stroke-width:0;stroke-linecap:round;stroke-linejoin:round;stroke-dasharray:none;stroke-opacity:1" />
    <path
       d="m 955.22188,919.3 c -4,4 -3.8,2.9 -7,36.4 -3.1,32.9 -3.1,32.4 0.1,35.7 l 2.7,2.6 h 50.90002 c 33,0 51.6,-0.4 52.9,-1 4.6,-2.5 4.9,-5 4.9,-37.5 0,-33.4 -0.4,-36 -5.6,-38.4 -1.7,-0.8 -16.4,-1.1 -49,-1.1 h -46.60002 z"
       id="path37"
       style="fill:#000000;stroke:#000000;stroke-width:0;stroke-linecap:round;stroke-linejoin:round;stroke-dasharray:none;stroke-opacity:1" />
    <path
       d="m 1079.5219,918.9 -3.3,2.9 -0.3,29.4 c -0.2,16.1 -0.1,31.2 0.3,33.5 0.4,2.5 1.6,5.1 3.2,6.7 l 2.6,2.6 h 51.4 51.4 l 2.4,-2.5 c 2,-1.9 2.5,-3.4 2.5,-7.2 0,-9.7 -5.3,-58.9 -6.6,-61.8 -3,-6.6 -2.2,-6.5 -53.8,-6.5 h -46.6 z"
       id="path38"
       style="fill:#000000;stroke:#000000;stroke-width:0;stroke-linecap:round;stroke-linejoin:round;stroke-dasharray:none;stroke-opacity:1" />
    <path
       d="m 1204.0219,918.4 c -2.4,2.1 -2.8,3.1 -2.6,7.3 0.3,6.4 5.2,58.2 5.8,60.9 0.2,1.1 1.7,3.3 3.1,4.7 l 2.7,2.7 h 50.2 50.2 l 2.1,-2.3 c 1.4,-1.5 2.2,-3.6 2.2,-5.8 0,-5.4 -10.9,-59 -12.7,-62.7 -0.9,-1.8 -3.1,-4.1 -4.8,-5.2 -3.1,-1.9 -5.2,-2 -48.3,-2 h -45.1 z"
       id="path39"
       style="fill:#000000;stroke:#000000;stroke-width:0;stroke-linecap:round;stroke-linejoin:round;stroke-dasharray:none;stroke-opacity:1" />
    <path
       d="m 1325.7219,918 c -1.1,1.1 -2,3.2 -2,4.8 0,1.5 2.7,16.9 5.9,34.2 5.8,30.7 6.1,31.6 9.1,34.2 l 3,2.8 h 35.3 c 38.5,0 38.9,-0.1 40.1,-5.8 0.8,-3.4 -15.6,-62.2 -18.4,-66.2 -4.1,-5.7 -5.8,-6 -39.9,-6 -29.8,0 -31.2,0.1 -33.1,2 z"
       id="path40"
       style="fill:#000000;stroke:#000000;stroke-width:0;stroke-linecap:round;stroke-linejoin:round;stroke-dasharray:none;stroke-opacity:1" />
    <path
       d="m 720.62188,1013.9 c -1.6,1.6 -2.9,3.8 -2.9,4.8 0,3.7 15.8,62.1 17.5,64.6 0.9,1.4 3.6,3.5 6,4.7 4.1,2 5.6,2.1 34.8,1.8 28.4,-0.3 30.6,-0.4 32.6,-2.2 1.4,-1.2 2.1,-3.1 2.1,-5.4 0,-4.6 -9.8,-60.9 -11.2,-64.6 -0.6,-1.5 -2.5,-3.7 -4.2,-4.7 -2.9,-1.8 -5.6,-1.9 -37.4,-1.9 h -34.4 z"
       id="path41"
       style="fill:#000000;stroke:#000000;stroke-width:0;stroke-linecap:round;stroke-linejoin:round;stroke-dasharray:none;stroke-opacity:1" />
    <path
       d="m 822.22188,1012.2 c -3.2,1.7 -4.5,3.9 -4.5,7.8 0,2 2.4,16.5 5.4,32.4 5.7,30.8 6.3,32.3 12.6,35.8 3.3,1.7 6.1,1.8 48.2,1.6 l 44.6,-0.3 2.6,-2.4 c 3.3,-3.1 3.3,-3 0,-39.6 -2.7,-30.9 -3.1,-32.5 -8.5,-35.2 -3.2,-1.7 -97.4,-1.8 -100.4,-0.1 z"
       id="path42"
       style="fill:#000000;stroke:#000000;stroke-width:0;stroke-linecap:round;stroke-linejoin:round;stroke-dasharray:none;stroke-opacity:1" />
    <path
       d="m 948.62188,1013.9 c -3.6,3.7 -3.6,2.9 -0.3,39.1 2.8,31.1 3,31.9 9.5,35.2 3.1,1.6 7.5,1.8 48.20002,1.8 49.2,0 49.1,0 52.2,-6 1.4,-2.6 1.5,-7.7 1.3,-35.1 l -0.3,-32.1 -3.3,-2.9 -3.2,-2.9 h -50.6 -50.60002 z"
       id="path43"
       style="fill:#000000;stroke:#000000;stroke-width:0;stroke-linecap:round;stroke-linejoin:round;stroke-dasharray:none;stroke-opacity:1" />
    <path
       d="m 1081.7219,1012.3 c -1.4,0.7 -3.3,2.8 -4.2,4.7 -1.6,3.1 -1.8,6.9 -1.8,33.3 0,23.9 0.3,30.5 1.5,33.3 2.6,6.3 3.1,6.4 53.1,6.4 49.2,0 49.8,-0.1 53,-6.2 1,-1.9 2.4,-12.1 4,-29.6 3.5,-37.5 3.5,-36.9 -0.4,-40.3 l -3.2,-2.9 h -49.8 c -37.7,0 -50.3,0.3 -52.2,1.3 z"
       id="path44"
       style="fill:#000000;stroke:#000000;stroke-width:0;stroke-linecap:round;stroke-linejoin:round;stroke-dasharray:none;stroke-opacity:1" />
    <path
       d="m 1212.1219,1012.9 c -1.7,1 -3.6,3.2 -4.2,4.7 -0.6,1.6 -2.3,16.9 -3.8,34.1 -2.5,29.5 -2.6,31.4 -1,33.8 0.9,1.4 2.8,3 4.2,3.5 1.5,0.6 20.6,1 45.5,1 46.3,0 46.9,-0.1 51.8,-5.3 2.1,-2.3 3.2,-6.9 8.3,-33.9 4.9,-26.3 5.7,-31.7 4.7,-34.1 -2.4,-5.9 -1,-5.7 -53.9,-5.7 -45.7,0 -48.7,0.1 -51.6,1.9 z"
       id="path45"
       style="fill:#000000;stroke:#000000;stroke-width:0;stroke-linecap:round;stroke-linejoin:round;stroke-dasharray:none;stroke-opacity:1" />
    <path
       d="m 1340.5219,1012.8 c -1.6,0.9 -3.4,3 -4.1,4.7 -0.8,1.6 -3.8,16.9 -6.7,33.8 -5.7,33.1 -5.8,35 -1,37.4 1.9,0.9 11.2,1.3 36.2,1.3 h 33.7 l 1.9,-5.3 c 2.7,-7.2 17.2,-62.8 17.2,-65.8 -0.1,-2.8 -1.6,-5.1 -4.7,-6.7 -1.5,-0.9 -12.1,-1.2 -36,-1.2 -30.1,0.1 -34.1,0.2 -36.5,1.8 z"
       id="path46"
       style="fill:#000000;stroke:#000000;stroke-width:0;stroke-linecap:round;stroke-linejoin:round;stroke-dasharray:none;stroke-opacity:1" />
    <path
       d="m 752.62188,1107.9 c -1.8,1.5 -2.1,2.3 -1.4,3.9 1.2,2.4 62,64.9 68.2,69.9 l 4.2,3.5 19.2,-0.2 c 19.7,-0.1 21.9,-0.5 21.9,-4.1 0,-2.5 -41.4,-67.8 -44.6,-70.5 -4.8,-3.9 -8.9,-4.4 -37.7,-4.4 -25.4,0 -27.7,0.1 -29.8,1.9 z"
       id="path47"
       style="fill:#000000;stroke:#000000;stroke-width:0;stroke-linecap:round;stroke-linejoin:round;stroke-dasharray:none;stroke-opacity:1" />
    <path
       d="m 844.02188,1107.5 c -4.7,3.3 -5.5,1.9 31.5,54.9 6.2,8.9 12.5,16.8 14.4,18 6.3,4.3 8.9,4.6 38.2,4.6 31,0 32.6,-0.3 32.6,-5.9 0,-1.5 -4.7,-17.2 -10.5,-34.9 -10.1,-30.9 -10.7,-32.2 -14.2,-34.9 l -3.6,-2.8 -43.1,-0.3 c -38,-0.2 -43.4,-0.1 -45.3,1.3 z"
       id="path48"
       style="fill:#000000;stroke:#000000;stroke-width:0;stroke-linecap:round;stroke-linejoin:round;stroke-dasharray:none;stroke-opacity:1" />
    <path
       d="m 961.72188,1107.3 c -4.9,2.5 -4.8,5.3 0.4,22.5 5.8,19 12.6,38.1 17.1,47.9 l 3.4,7.3 h 35.00002 35.1 l 3.2,-2.9 3.3,-2.9 0.3,-32.1 c 0.2,-27.4 0.1,-32.5 -1.3,-35.1 -3.1,-6 -3.1,-6 -50.7,-6 -32.80002,0 -43.90002,0.3 -45.80002,1.3 z"
       id="path49"
       style="fill:#000000;stroke:#000000;stroke-width:0;stroke-linecap:round;stroke-linejoin:round;stroke-dasharray:none;stroke-opacity:1" />
    <path
       d="m 1081.9219,1107.5 c -5.8,2.6 -6.2,4.8 -6.2,38.2 0,26.4 0.2,30.2 1.8,33.3 2.9,5.9 3.3,6 41.3,6 h 34.6 l 2.8,-6.3 c 7.5,-17.3 21.5,-59.8 21.5,-65.6 0,-1.6 -0.9,-3.6 -2.1,-4.7 -2,-1.8 -4.4,-1.9 -46.3,-2.1 -36.6,-0.2 -44.7,0 -47.4,1.2 z"
       id="path50"
       style="fill:#000000;stroke:#000000;stroke-width:0;stroke-linecap:round;stroke-linejoin:round;stroke-dasharray:none;stroke-opacity:1" />
    <path
       d="m 1203.9219,1106.7 c -1.3,0.3 -3.7,1.9 -5.4,3.6 -2.6,2.7 -4.8,8.3 -13.4,34.7 -5.7,17.3 -10.4,32.5 -10.4,33.7 0,1.3 0.9,3.2 2,4.3 2,2 3,2.1 31.8,1.8 29.7,-0.3 29.8,-0.3 34.7,-2.8 4.6,-2.4 6.6,-4.9 27.7,-35 15.8,-22.5 22.8,-33.3 22.8,-35.2 0,-5.8 -0.4,-5.8 -46,-5.7 -22.8,0.1 -42.5,0.4 -43.8,0.6 z"
       id="path51"
       style="fill:#000000;stroke:#000000;stroke-width:0;stroke-linecap:round;stroke-linejoin:round;stroke-dasharray:none;stroke-opacity:1" />
    <path
       d="m 1320.0219,1107.9 c -2.3,1.1 -5.1,3 -6.2,4.3 -3.9,4.4 -43.1,67.2 -43.1,69 0,3.1 3.4,3.7 22.3,3.9 17.5,0.1 18.7,0 21.5,-2 5.8,-4.1 69.2,-69.4 69.9,-71.9 1.2,-4.9 -0.5,-5.2 -31.6,-5.2 -26,0 -29,0.2 -32.8,1.9 z"
       id="path52"
       style="fill:#000000;stroke:#000000;stroke-width:0;stroke-linecap:round;stroke-linejoin:round;stroke-dasharray:none;stroke-opacity:1" />
    <path
       d="m 855.72188,1203.4 c 0,1.6 3.8,3.3 42.8,19.5 16.1,6.8 29.7,12.1 30.3,11.9 1.6,-0.5 -34.3,-26.7 -41,-30 -5.2,-2.6 -6.4,-2.8 -18.8,-2.8 -10.6,0 -13.3,0.3 -13.3,1.4 z"
       id="path53"
       style="fill:#000000;stroke:#000000;stroke-width:0;stroke-linecap:round;stroke-linejoin:round;stroke-dasharray:none;stroke-opacity:1" />
    <path
       d="m 917.32188,1202.8 c -0.3,0.5 0,1.6 0.7,2.5 1.2,1.5 80.3,40.3 84.30002,41.3 1.2,0.3 2.5,0.1 2.8,-0.4 0.8,-1.4 -27.50002,-37.4 -32.10002,-40.9 l -3.6,-2.8 -25.8,-0.3 c -14.5,-0.2 -26,0.1 -26.3,0.6 z"
       id="path54"
       style="fill:#000000;stroke:#000000;stroke-width:0;stroke-linecap:round;stroke-linejoin:round;stroke-dasharray:none;stroke-opacity:1" />
    <path
       d="m 997.42188,1202.7 c -1.5,1.5 -0.5,5.1 2.1,7.5 1.50002,1.4 13.60002,11.4 27.00002,22.2 25.9,20.9 28.3,22.2 31.6,17.4 1.3,-1.8 1.6,-5.7 1.6,-21.1 0,-19.9 -0.7,-23.4 -4.9,-25.7 -2.2,-1.1 -56.30002,-1.5 -57.40002,-0.3 z"
       id="path55"
       style="fill:#000000;stroke:#000000;stroke-width:0;stroke-linecap:round;stroke-linejoin:round;stroke-dasharray:none;stroke-opacity:1" />
    <path
       d="m 1079.5219,1204.5 c -1.4,1.4 -2.8,3.9 -3.2,5.6 -1,5 -0.7,35.5 0.4,38.3 1,2.9 5.1,4.3 8.1,3 1,-0.5 13.3,-10.1 27.4,-21.4 35.8,-28.8 35.8,-28 -2.3,-28 h -27.9 z"
       id="path56"
       style="fill:#000000;stroke:#000000;stroke-width:0;stroke-linecap:round;stroke-linejoin:round;stroke-dasharray:none;stroke-opacity:1" />
    <path
       d="m 1164.2219,1204.3 c -2.8,1.6 -8.5,8 -18.7,21 -8.2,10.4 -14.8,19.5 -14.8,20.4 0,1.1 0.6,1.4 2.4,0.9 3.4,-0.8 82.9,-39.5 84.5,-41.1 3.1,-3.1 0.2,-3.5 -24.7,-3.5 -23.8,0 -24.8,0.1 -28.7,2.3 z"
       id="path57"
       style="fill:#000000;stroke:#000000;stroke-width:0;stroke-linecap:round;stroke-linejoin:round;stroke-dasharray:none;stroke-opacity:1" />
    <path
       d="m 1250.7219,1203.3 c -5,1.8 -5,1.9 -25.4,16.7 -17.2,12.5 -20.1,15 -17.7,15 1.3,0 70.4,-29.1 71.8,-30.2 0.7,-0.6 1,-1.4 0.7,-1.9 -0.8,-1.4 -25.4,-1 -29.4,0.4 z"
       id="path58"
       style="fill:#000000;stroke:#000000;stroke-width:0;stroke-linecap:round;stroke-linejoin:round;stroke-dasharray:none;stroke-opacity:1" />
  </g>
  <g
     id="g98"
     inkscape:label="AC"
     style="stroke-width:0;stroke-dasharray:none">
    <path
       d="m 1006.6219,1318.1 c -10.50002,20.7 -23.50002,47.9 -48.90002,102.4 -13.3,28.6 -26,55.5 -28.1,59.7 l -3.9,7.8 h 14.2 14.3 l 23,-49.3 c 32.10002,-68.9 36.10002,-77.2 36.70002,-76.1 0.3,0.5 8.3,14.8 17.8,31.9 29.2,52.5 31.1,55.8 36.6,63.1 11.2,14.8 27.2,25 46.2,29.5 7.2,1.8 11,2 22.2,1.7 11.9,-0.4 14.6,-0.8 23,-3.7 5.2,-1.7 12.6,-5 16.3,-7.2 12,-7.1 25.4,-21.4 31.6,-33.6 1.1,-2.3 2.1,-4.5 2.1,-4.8 0,-0.3 -6.2,-0.5 -13.9,-0.5 h -13.9 l -7.8,7.8 c -14.5,14.4 -33.1,20.1 -52.6,16.1 -13.2,-2.7 -27.7,-12.5 -35.5,-23.9 -4.6,-6.8 -52.2,-92.8 -63.4,-114.4 l -9.7,-18.9 z"
       id="path59"
       style="fill:#000000;stroke:#000000;stroke-width:0;stroke-linecap:round;stroke-linejoin:round;stroke-dasharray:none;stroke-opacity:1" />
    <path
       d="m 1115.2219,1325.5 c -21.9,4.8 -41.6,19.2 -53.3,39.2 l -3,5.1 8.1,13.1 c 4.5,7.2 8.4,12.7 8.8,12.3 0.3,-0.4 1.6,-3.5 2.9,-7 8.6,-23.5 30.3,-39.2 54.3,-39.2 16.7,0 29,5.1 41.1,17.1 l 7.8,7.9 h 13.9 c 7.7,0 13.9,-0.2 13.9,-0.5 0,-0.3 -1,-2.5 -2.1,-4.8 -10.9,-21.3 -31,-37.2 -54.3,-42.7 -9.6,-2.3 -28.7,-2.6 -38.1,-0.5 z"
       id="path60"
       style="fill:#000000;stroke:#000000;stroke-width:0;stroke-linecap:round;stroke-linejoin:round;stroke-dasharray:none;stroke-opacity:1" />
  </g>
  <g
     id="g2"
     inkscape:label="pogon left">
    <path
       d="m 726.52188,411.6 c -3.5,1.9 -5.8,6.3 -5.8,11.2 0,3.1 -0.5,4.1 -2.5,5.2 -3.9,2.1 -6,7.5 -4.6,12 1.6,5.5 4.4,7.5 10.2,7.5 3.1,0 4.9,0.4 4.9,1.2 0,0.6 0.2,1.8 0.5,2.6 0.5,1.1 -0.4,1.4 -3.9,1.3 -6.8,-0.1 -9.1,2.6 -9.1,10.7 0,5.4 0.6,7.2 4.3,14.1 3.8,7 4.1,8.1 2.7,8.9 -3.9,2.1 -9,7.5 -10.6,11.2 -1.1,2.4 -1.9,6.4 -1.9,9.9 v 6 l 3.3,-3.1 c 4.6,-4.4 6.9,-5.3 13,-5.3 10,0 16.3,6.8 15.3,16.6 -0.5,6.4 -2.6,10.4 -7.9,15.8 -5.4,5.4 -13.2,9.8 -23.2,13.1 -7,2.4 -9.2,2.7 -17.5,2.3 -12,-0.5 -18.5,-3.3 -25.9,-11.3 -4.8,-5.3 -9.1,-14.1 -9.1,-18.6 0,-3.6 2.7,-8.4 6.8,-12.1 4.3,-3.9 9.3,-5.4 14.3,-4.4 l 3.1,0.6 -2,-3.3 c -3,-4.8 -9.9,-8.7 -16.6,-9.4 l -5.6,-0.6 v -4.1 c 0,-5.1 -2.5,-15.6 -4.6,-19.9 -2.4,-4.7 -6.3,-8.5 -10,-9.7 -2.7,-0.9 -4,-0.8 -6.9,0.6 -2,0.9 -4,2.6 -4.6,3.7 -1.1,1.9 -1.2,1.8 -3,-0.9 l -1.8,-2.8 2.7,-1.8 c 3.3,-2.1 6.2,-7.3 6.2,-10.9 0,-3.2 -3.7,-8.9 -7,-10.7 -1.5,-0.8 -4.3,-1.1 -7.1,-0.8 -4.2,0.4 -4.7,0.2 -6.2,-2.3 -3.5,-5.9 -12.8,-7.8 -18.8,-3.8 -4.7,3.1 -7.1,8.1 -6.5,13.4 0.5,3.5 0.3,4.3 -1,4.3 -0.9,0 -2.9,1.4 -4.5,3.1 -2.3,2.5 -2.9,4 -2.9,7.6 0,8.6 4.5,12.9 13.2,12.6 4.7,-0.1 4.8,0 4.8,2.8 0,2.8 -0.2,2.9 -4.6,2.9 -3.7,0 -5.1,0.5 -7.5,2.9 -2.4,2.5 -2.9,3.7 -2.9,8 0,6.7 2.8,14.6 8,22.3 l 4.1,6.1 -3.6,3.2 c -4.7,4.3 -7.5,10.7 -7.5,17.2 0,2.9 0.2,5.3 0.4,5.3 0.3,0 1.8,-1.3 3.4,-2.9 6.1,-6.1 17.3,-6.6 23.7,-1 4.9,4.3 7,10.7 7,20.9 0,7.2 -0.4,9.3 -2.8,14.1 -5.5,11.3 -18.9,21 -34.5,25 -14.7,3.7 -25.1,1.9 -32.1,-5.6 -6.8,-7.4 -6.7,-14.1 0.2,-21.1 4.5,-4.5 10.1,-6.7 14.8,-5.7 3.8,0.7 3.7,-0.6 -0.5,-4.9 -5.3,-5.4 -9.5,-7 -18,-6.6 l -7.3,0.3 -1.1,-6.8 c -2.9,-16.9 -12.8,-25.1 -21,-17.4 -2.3,2.2 -2.4,2.2 -3.8,0.2 -1.3,-1.7 -1.2,-2.1 1.5,-4.2 4.2,-3.3 5.6,-8.1 3.7,-12.6 -2.1,-5 -5.6,-7.1 -11.1,-6.5 -3.8,0.5 -4.5,0.3 -5.1,-1.4 -0.8,-2.7 -6.3,-5.8 -10.2,-5.8 -7.4,0 -12.7,5.8 -12,13.1 0.2,2.5 -0.1,3.9 -0.8,3.9 -0.6,0 -2.3,1.2 -3.7,2.6 -7.3,7.3 -1.8,19.2 8.3,18.2 2.6,-0.2 4,0.1 4,0.8 0,0.7 0.2,1.9 0.5,2.7 0.5,1.1 -0.4,1.4 -3.9,1.3 -6.7,-0.1 -9.1,2.6 -9.1,10.3 0,4.9 0.7,7.2 4.2,14.1 l 4.2,8.3 -4.6,4.1 c -5.8,5.1 -8.2,10.4 -8.3,17.9 v 5.8 l 3.5,-3.5 c 4.6,-4.7 10.3,-6.2 17.2,-4.7 10.2,2.3 18.5,15.5 16.8,26.9 -1.1,8.4 -3.6,14.3 -7.6,18.3 -4.9,4.9 -16.1,10.5 -24.9,12.5 -6.2,1.4 -7.4,1.4 -12.3,0 -3.7,-1.1 -6.4,-2.6 -8.1,-4.7 -2.9,-3.5 -3.3,-4.6 -4,-14.4 -0.7,-9.5 -2.3,-14.3 -5.6,-17.7 -3.3,-3.2 -6.2,-3.6 -8.7,-1 -1.7,1.7 -2,1.6 -6.4,-3 -3.4,-3.7 -5.2,-4.8 -7.5,-4.8 -4.9,0 -6.9,3.1 -6.9,10.6 0,6.3 0,6.4 -2.7,6.4 -4.2,0 -6,2.6 -5.6,7.9 0.3,2.5 0.8,5.4 1.2,6.4 0.7,1.6 0.4,1.5 -2.9,-0.4 -3.3,-2 -8,-2.6 -14.5,-1.9 -0.8,0 -3.3,-0.2 -5.6,-0.6 -2.5,-0.4 -5,-0.2 -6.3,0.5 -4.4,2.4 -1.6,11.2 5.2,16.5 l 3.2,2.5 -4.4,3.8 c -7.6,6.5 -9.9,15.5 -6.5,25.6 3.3,9.7 14.1,18 27.5,21.2 9.2,2.1 36.9,1.9 36.9,-0.4 0,-0.4 -3.4,-1.2 -7.5,-1.8 -18.9,-3.1 -34.5,-14.2 -34.5,-24.8 0,-4.2 3.6,-9.1 8.3,-11.4 7.5,-3.6 16.8,-4.4 32.9,-2.7 26.3,2.7 28.9,2.8 36.5,1.2 14.1,-2.9 26.5,-9.3 37,-19 10.1,-9.4 12.4,-14.8 13.9,-32.5 0.4,-4.5 0.9,-8.1 1.1,-8.1 0.3,0 1.8,0.9 3.4,2.1 8.8,6.2 26.6,8.6 41.9,5.5 9.7,-2 24.9,-7.4 33.1,-11.7 16,-8.6 28.6,-25.9 32.8,-45.1 l 1.6,-7.6 5.8,4.4 c 12.5,9.4 25.5,13.6 42.4,13.5 9.2,0 11.4,-0.4 21.1,-3.6 15,-5.2 28.6,-12.4 36.2,-19.3 7.1,-6.4 13.5,-15.5 15.1,-21.6 0.6,-2.3 1.3,-4.6 1.4,-5.3 0.2,-0.7 4.8,1.1 11.9,4.6 23.3,11.7 36.9,14.3 54.1,10.2 15.8,-3.8 23.9,-8.9 30.4,-19 5,-7.8 7.1,-15.2 7,-25 0,-7 -0.2,-8.1 -1.1,-6.1 -4,9.5 -7.4,15.4 -12.2,21.2 -4.3,5.2 -7,7.4 -12.5,10.1 -10.2,5.1 -20.7,7.3 -29.1,6 -13.1,-2.1 -26,-8.8 -29.3,-15.3 -2.8,-5.3 -1.9,-13.8 1.9,-19.2 4.2,-6.1 9.7,-9 15.7,-8.5 2.6,0.2 4.7,0.2 4.7,-0.1 0,-0.3 -1.2,-2.1 -2.6,-4 -4,-5.1 -12.1,-8.5 -19.3,-8 l -5.8,0.4 -1.1,-6.8 c -2.9,-17 -12.8,-25.2 -21,-17.5 -2.3,2.2 -2.4,2.2 -3.8,0.2 -1.3,-1.7 -1.2,-2.1 1.5,-4.2 4.2,-3.3 5.6,-8.1 3.7,-12.6 -2.1,-5 -5.6,-7.1 -11.1,-6.5 -3.8,0.5 -4.5,0.3 -5.1,-1.4 -1.5,-4.9 -11,-7.3 -16.6,-4.2 z m 11.4,7.5 c 2.4,3.2 1.1,7.5 -2.9,9 -5.6,2.1 -10.8,-5.7 -6.7,-10.2 2.5,-2.7 7.2,-2.1 9.6,1.2 z m 15.9,6 c 1.4,2.7 -0.1,6.4 -3,7.2 -4.4,1.1 -8.1,-4.9 -4.9,-8.1 2,-2 6.6,-1.4 7.9,0.9 z m -27,8.8 c 2,1.6 2.2,2.3 1.4,4.7 -0.9,2.4 -1.6,2.9 -4.5,2.9 -2.9,0 -3.6,-0.5 -4.5,-2.9 -0.8,-2.4 -0.6,-3.1 1.4,-4.7 1.3,-1 2.7,-1.9 3.1,-1.9 0.4,0 1.8,0.9 3.1,1.9 z m 21.6,9 c 2.9,4.1 4.2,6.9 3.7,8 -0.3,0.9 -0.9,5.1 -1.2,9.4 l -0.5,7.7 -5.1,-4.8 c -2.8,-2.7 -6.1,-5.4 -7.3,-6 -4.4,-2.4 -5.3,-21.9 -1,-23.5 2.4,-0.9 7.1,2.9 11.4,9.2 z m -138.2,-5.9 c 4.2,4.6 1,12 -5.2,12 -4.2,0 -7.3,-3 -7.3,-7 0,-6.2 8.4,-9.5 12.5,-5 z m 18.3,7.8 c 1.7,2.2 1.5,5.2 -0.5,7.4 -4.6,5.1 -12.3,-2 -8,-7.4 2.3,-3 6,-3 8.5,0 z m 138.8,-0.1 c 2.7,2.7 5.3,9.5 6.2,16.1 l 0.8,5.9 -3.3,1.9 c -4.1,2.1 -9.1,7.6 -10.8,11.8 l -1.3,3 -1.3,-4.4 c -1.6,-5.6 -1.7,-20.2 -0.1,-25.5 1.6,-5.3 4.8,-10.5 6.6,-10.5 0.8,0 2.2,0.8 3.2,1.7 z m -168,12.2 c 1.6,3.2 0.3,6.4 -3,7.6 -3.3,1.1 -5.7,-0.2 -7,-3.8 -2.1,-5.9 7.3,-9.4 10,-3.8 z m 17.9,2.2 c 2.5,2.3 5.8,6.5 7.5,9.4 2.4,4.2 2.8,5.7 2.1,8.2 -0.5,1.6 -1.2,6.2 -1.6,10.2 l -0.7,7.2 -5.7,-5.4 c -3.1,-2.9 -6.6,-5.9 -7.7,-6.5 -4.1,-2.2 -6.2,-20.2 -2.8,-25 2.2,-3.1 3.8,-2.8 8.9,1.9 z m 114.2,1 c 6,2.9 15.2,12.4 19.2,19.8 1.7,3.3 2.9,6.1 2.6,6.1 -0.3,0 -2,-0.8 -3.8,-1.7 -2.2,-1.1 -5.7,-1.7 -11,-1.7 -9,-0.1 -9,-0.1 -13.8,-10.1 -3,-6.2 -3.8,-13 -1.6,-13.8 2.3,-1 4.1,-0.7 8.4,1.4 z m -86.8,7.8 c 3.1,3.1 5.1,7.7 6.7,14.9 2.3,11 2.1,11.8 -3.3,14.6 -5.2,2.6 -8.7,5.5 -11.9,10 l -2.1,2.9 -1.3,-6.7 c -1.8,-9.4 -0.9,-22.8 1.9,-29.1 3.8,-8.5 6.4,-10.2 10,-6.6 z m -42.4,17 c 5.2,2.3 11.9,8 17.2,14.3 4.3,5.3 9.8,14.6 9.1,15.4 -0.3,0.2 -2,-0.3 -3.8,-1.2 -2.5,-1.3 -5.1,-1.6 -12.2,-1.2 l -9,0.6 -3,-4.2 c -6.9,-9.3 -10.4,-20.8 -7.3,-23.9 2.1,-2.2 4,-2.1 9,0.2 z m -104.2,22.8 c 3.1,3.6 2.1,8.8 -2.1,10.4 -5.5,2.1 -10.6,-5.8 -6.6,-10.2 2.1,-2.4 6.6,-2.5 8.7,-0.2 z m 16.7,7.3 c 1.4,2.6 0.5,5.7 -2.1,7.1 -4.3,2.3 -9.2,-4.4 -5.7,-7.9 2,-2 6.6,-1.5 7.8,0.8 z m -26.9,8.9 c 2,1.6 2.2,2.3 1.4,4.7 -0.9,2.4 -1.6,2.9 -4.5,2.9 -2.9,0 -3.6,-0.5 -4.5,-2.9 -0.8,-2.4 -0.6,-3.1 1.4,-4.7 1.3,-1 2.7,-1.9 3.1,-1.9 0.4,0 1.8,0.9 3.1,1.9 z m 21.6,9 c 2.8,4 4.2,7 3.8,8 -0.4,0.9 -0.9,5.1 -1.2,9.4 l -0.6,7.7 -5.1,-4.8 c -2.8,-2.7 -6.1,-5.4 -7.3,-6 -4.4,-2.4 -5.3,-21.9 -1,-23.5 2.4,-0.9 7.1,2.9 11.4,9.2 z m 18.2,1.1 c 2.4,1.2 5.8,9.3 7,16.6 0.9,5.5 0.8,6 -1.2,7.4 -5.2,3.7 -8.7,7.4 -10.8,11.7 -2.1,4.3 -2.3,4.5 -3.1,2.4 -5,-13.7 -1.4,-37.2 6,-39 0.2,-0.1 1.1,0.3 2.1,0.9 z m -36.6,15.4 c 5.7,2.4 13.3,9.3 18.1,16.4 2.5,3.8 4.6,7.4 4.6,8 0,0.7 -1.4,0.5 -3.7,-0.5 -2.7,-1.1 -5.8,-1.4 -11,-1.1 -7,0.5 -7.2,0.4 -9.3,-2.4 -5.7,-7.7 -8.5,-17.9 -5.8,-20.6 1.5,-1.5 3.1,-1.5 7.1,0.2 z m -62.1,64.3 c 5.2,5.6 5.7,7.2 4.6,14 l -1.1,6.3 -2.1,-2.3 c -1.2,-1.2 -3.4,-3.2 -4.8,-4.4 -2.9,-2.4 -4.4,-8.4 -3.3,-13.3 0.8,-3.8 3.3,-3.9 6.7,-0.3 z m 16.7,5.9 c 3.9,5 5.3,20.1 2.1,23.9 -0.7,0.9 -2.9,1.5 -5.1,1.5 h -3.8 l -1.2,-5.8 c -1.3,-6.4 -0.1,-15.7 2.6,-19.8 2,-3 2.9,-3 5.4,0.2 z m -23,10.9 c 3.8,2.6 8.7,8 11,12.2 1.2,2.3 1.1,2.3 -6.3,2.3 h -7.6 l -3,-5.3 c -1.6,-2.8 -3,-6.7 -3,-8.5 0,-2.8 0.3,-3.2 2.5,-3.2 1.4,0 4.3,1.1 6.4,2.5 z m -33,8.6 c 1.9,0.7 3.1,1.8 3.1,2.8 0,1 1.3,3.6 2.9,5.9 l 3,4 -2.5,0.6 c -3,0.8 -8.3,-3 -11.5,-8 -3.4,-5.6 -1.5,-7.6 5,-5.3 z m 14.9,0.9 c 4.6,2.1 11.2,6.8 11.2,8 0,0.4 -3,1 -6.6,1.4 -6,0.6 -6.9,0.5 -9,-1.5 -3.4,-3.2 -5.1,-7.8 -3.3,-9 2,-1.2 2.8,-1.1 7.7,1.1 z"
       id="path10"
       style="fill:#000000;stroke:#000000;stroke-width:0;stroke-linecap:round;stroke-linejoin:round;stroke-dasharray:none;stroke-opacity:1" />
    <circle
       style="fill:#000000;stroke:#000000;stroke-width:0;stroke-linecap:round;stroke-linejoin:round"
       id="path75-6-5-5-2"
       cx="777.71838"
       cy="549.54425"
       r="10.25"
       inkscape:label="path15" />
    <circle
       style="fill:#000000;stroke:#000000;stroke-width:0;stroke-linecap:round;stroke-linejoin:round"
       id="path75-6-5-5-2-1"
       cx="659.67676"
       cy="590.41199"
       r="10.25"
       inkscape:label="path19" />
    <circle
       style="fill:#000000;stroke:#000000;stroke-width:0;stroke-linecap:round;stroke-linejoin:round"
       id="path75-6-5-5-2-1-7"
       cx="546.71185"
       cy="636.07715"
       r="10.25"
       inkscape:label="path61" />
    <circle
       style="fill:#000000;stroke:#000000;stroke-width:0;stroke-linecap:round;stroke-linejoin:round"
       id="path75-6-5-5-2-1-7-9"
       cx="450.44193"
       cy="685.13464"
       r="10.25"
       inkscape:label="path63" />
  </g>
  <g
     id="g1"
     inkscape:label="pogon right">
    <path
       d="m 1396.0219,411.9 c -1.7,1.1 -3.4,2.8 -3.7,3.9 -0.6,1.6 -1.4,1.8 -5.6,1.4 -4.4,-0.4 -5.2,-0.2 -8,2.6 -2.5,2.5 -3,3.8 -3,7.8 0,4 0.5,5.1 3.5,8 3.2,2.9 3.4,3.6 2.3,5.3 -1.2,2 -1.3,2 -3.8,-0.4 -8.3,-8 -17.9,0 -21.1,17.5 l -1.2,6.5 h -7.2 c -6.2,0 -7.8,0.4 -11.9,3 -2.6,1.6 -5.6,4.4 -6.7,6.1 l -1.9,3.2 4.3,-0.5 c 10.1,-1.2 19.7,8.4 19.7,19.7 0,8.7 -3.4,13 -14,17.9 -7.6,3.5 -16.9,6.1 -22.1,6.1 -5.1,0 -17.8,-3.4 -23.6,-6.4 -6.9,-3.4 -16.8,-14.4 -20.9,-23 -1.9,-3.9 -3.4,-7.6 -3.4,-8.3 0,-0.7 -0.5,-1.3 -1.1,-1.3 -0.8,0 -1,2.8 -0.7,9.4 0.4,8.2 1,10.5 4,16.8 6.9,14.3 15.3,20.7 33.3,24.9 17.4,4.1 30.2,1.7 53.5,-9.9 6.3,-3.1 11.8,-5.8 12.1,-6 0.4,-0.1 0.9,1.3 1.2,3.2 1.5,9.2 11.1,22.4 21.6,29.5 12.7,8.6 32.6,16.6 44.8,17.9 18.4,2 34.1,-2.2 49,-13.2 l 6.2,-4.5 0.6,3.7 c 4.1,24.5 18.9,43.2 41.8,52.9 26.5,11.2 49.4,12.3 65.4,3.3 2.9,-1.7 5.5,-3 5.8,-3 0.3,0 0.5,3.4 0.5,7.5 0,14 2.9,22.2 10.8,30.7 13,13.9 37.2,23.9 54.1,22.3 3.1,-0.3 12.6,-1.2 21.1,-2 22.7,-2.3 35.4,0.1 40,7.7 6.8,11.2 -4.9,24.3 -26.8,29.9 -4.1,1 -8.8,1.9 -10.4,1.9 -1.5,0 -2.8,0.4 -2.8,0.9 0,2.4 27.1,2.9 36.9,0.6 18,-4.3 29.1,-15.6 29.1,-29.8 0,-7.4 -2,-11.6 -7.7,-16.7 l -4.5,-3.9 3.7,-3.2 c 5.9,-5.2 8.4,-12.6 5.3,-15.7 -1.3,-1.3 -7.2,-1.5 -10.3,-0.3 -1,0.4 -3.2,0.3 -4.7,-0.3 -2.3,-0.9 -4.1,-0.7 -8.9,1 l -6,2.1 0.8,-3.1 c 1.8,-7.6 0.1,-11.6 -5.2,-11.6 h -3.2 l 0.5,-5 c 1.2,-12.6 -7.7,-16.3 -15.3,-6.4 -3.1,4.1 -3.2,4.1 -5.4,2.2 -3.3,-2.6 -5.9,-2.3 -9.1,1.2 -3.3,3.5 -4.9,9.1 -5.4,18.5 -0.2,3.8 -0.4,7.5 -0.5,8.2 -0.2,2 -5.2,7.3 -8.5,9 -11.5,6 -37.9,-4.7 -44.8,-18.1 -3.3,-6.4 -3.7,-18.7 -0.8,-25.4 3.5,-8.1 11.7,-14.2 19,-14.2 4.1,0 9.8,2.6 12.7,5.7 l 3.3,3.4 V 597 c 0,-8.8 -3.6,-15.4 -11,-20.1 l -2.4,-1.6 3.2,-4.9 c 9.3,-14.5 8,-27.9 -2.7,-27.9 -3.8,0 -4.1,-0.2 -4.1,-2.6 0,-2.6 0.2,-2.6 4.5,-2.2 4.1,0.5 4.7,0.3 8,-3 2.5,-2.5 3.5,-4.4 3.5,-6.6 0,-4.2 -2.2,-8.4 -5.4,-10.1 -2.2,-1.1 -2.6,-2 -2.6,-5.7 0,-5 -2.1,-8.8 -6.1,-10.9 -5.6,-2.8 -13.2,-0.9 -15.9,4.1 -1,1.9 -1.8,2.1 -5.9,1.7 -4.1,-0.4 -5,-0.1 -7.9,2.6 -2.7,2.6 -3.2,3.7 -3.2,7.7 0,4.2 0.5,5.2 3.5,8.1 3.2,2.9 3.4,3.6 2.3,5.3 -1.2,2 -1.3,2 -3.8,-0.4 -8.3,-8 -18.3,0.3 -21.2,17.6 l -1,6.4 -7.3,-0.3 c -5.4,-0.3 -8.2,0.1 -10.7,1.3 -3.8,2 -8.5,6.1 -10,8.9 -0.9,1.7 -0.7,1.8 2,1.3 8.8,-1.8 20.2,7.4 20.2,16.3 0,6.3 -6.4,13.8 -13.9,16.5 -12.9,4.5 -36.4,-2 -48.6,-13.6 -7.8,-7.4 -11.7,-15.6 -11.9,-25.1 -0.2,-14.5 5.2,-23.9 14.7,-25.3 6.7,-1 13,0.9 16.7,5.2 l 3,3.4 v -6.2 c 0,-7.5 -2.6,-13.6 -7.5,-17.7 l -3.4,-2.7 3.1,-4.5 c 6.8,-9.9 10.4,-21.3 8.7,-27.3 -1.5,-5.3 -4.6,-7.7 -10.1,-7.7 -3.9,0 -4.8,-0.3 -4.8,-1.8 0,-3 1.4,-3.8 6.2,-3.7 5.7,0 9.7,-2.7 11.7,-8 2,-5.1 0,-11 -4.8,-14.3 -3.2,-2 -3.5,-2.7 -3.3,-6.5 0.8,-14 -17.6,-20.1 -25.3,-8.4 -1.3,2.1 -2.1,2.3 -6.3,2 -12.6,-1.2 -18.4,13.4 -8.6,21.5 3.5,2.9 3.6,3 1.9,5.6 l -1.7,2.6 -1.9,-2.4 c -3.9,-5 -11.2,-5.3 -16.3,-0.8 -4.4,4 -9.6,18.7 -9.6,27.4 0,3.6 -0.2,3.8 -3.2,3.8 -7.5,0 -16.7,5.2 -19.9,11.1 -0.8,1.7 -0.6,1.8 2,1.3 5,-1 10,0.5 14.2,4.3 7.7,7 8.6,12.2 4,21.8 -3.5,7.3 -10.8,14.6 -17.6,17.6 -6.9,3.1 -20.9,3.8 -29,1.4 -13.9,-4 -27.3,-13.3 -31.8,-22 -2.7,-5.3 -2.8,-12.9 -0.1,-17.5 5,-8.8 20.1,-9.5 27,-1.3 l 2.2,2.6 0.7,-3.2 c 1.2,-5.7 -1.3,-12.9 -6.4,-18.1 -2.5,-2.6 -5.5,-5.2 -6.5,-5.7 -1.9,-1 -1.8,-1.3 1.2,-6 9.3,-14.4 8,-27.8 -2.7,-27.8 -3.8,0 -4.1,-0.2 -4.1,-2.6 0,-2.5 0.2,-2.6 4.3,-2.2 3.6,0.4 4.8,0.1 7.5,-2.2 5.7,-4.8 5.2,-13.6 -0.9,-17.2 -2.5,-1.5 -2.9,-2.4 -2.9,-6.1 0,-2.3 -0.7,-5.4 -1.6,-6.8 -3.6,-5.4 -11.3,-6.9 -17.1,-3.5 z m 10.3,4.9 c 4.2,2.8 3.5,9.5 -1.3,11.3 -5.6,2.1 -10.8,-5.7 -6.7,-10.2 1.7,-1.9 5.9,-2.5 8,-1.1 z m -16.8,7.4 c 1.9,1.9 1.4,5.5 -0.9,7.1 -2.6,1.9 -5.8,1 -7.1,-1.9 -2,-4.4 4.6,-8.6 8,-5.2 z m 25.4,9.5 c 3.3,3 1.7,8.3 -2.6,8.3 -2.3,0 -5.6,-2.7 -5.6,-4.7 0,-1.6 3.6,-5.3 5.2,-5.3 0.6,0 2,0.7 3,1.7 z m -14.5,2.4 c 1.6,3 1.6,8.2 0.2,14.8 -0.8,4.1 -1.7,5.4 -5,7.7 -2.2,1.5 -5.2,4.2 -6.8,5.9 l -2.8,3.2 -1.2,-9.4 c -1.2,-9.3 -1.2,-9.4 1.3,-13.7 2.9,-5 10.2,-11.9 11.9,-11.3 0.7,0.2 1.8,1.4 2.4,2.8 z m 135.5,0.6 c 2.4,2.2 2.4,7.7 -0.2,10.3 -4.2,4.2 -12,1.2 -12,-4.8 0,-4.5 2.6,-7.2 6.7,-7.2 2,0 4.5,0.7 5.5,1.7 z m -19.5,9.4 c 1.3,2.6 0.2,5.3 -3,7.3 -2.3,1.5 -6.5,-0.8 -7.3,-4 -0.6,-2.2 -0.2,-3.2 2,-5 3.1,-2.7 6.4,-2.1 8.3,1.7 z m -141.6,-0.1 c 2.4,3.3 4.9,13.2 4.9,19.5 0,6.3 -2,16.5 -3.1,16.5 -0.5,0 -0.9,-0.6 -0.9,-1.3 0,-2 -6.5,-9.2 -10.5,-11.7 -2.9,-1.8 -3.5,-2.8 -3.5,-5.5 0,-4.9 3.5,-15.4 6.1,-18.1 2.8,-2.9 4.6,-2.8 7,0.6 z m 170.1,9.7 c 2.2,2 2.3,5.1 0.1,7.5 -3.1,3.5 -9.3,1 -9.3,-3.8 0,-4.8 5.5,-7 9.2,-3.7 z m -17,1.5 c 1.5,2.8 1.4,13.9 -0.1,19.4 -0.8,3 -2.2,4.9 -5.1,6.9 -2.2,1.5 -5.8,4.7 -8,7.1 l -4,4.4 v -3.5 c 0,-1.9 -0.5,-6.8 -1.1,-10.9 -1.1,-7.2 -1,-7.6 1.7,-12.6 3.2,-5.9 10.5,-13 13.3,-13 1.1,0 2.6,1 3.3,2.2 z m -114.6,2 c 2.1,3.3 -1.5,14.6 -6.7,21.3 -2,2.4 -2.5,2.6 -7.3,2 -3.8,-0.5 -6.6,-0.2 -10.9,1.3 -3.1,1 -5.7,1.5 -5.7,1 0,-2.4 4.7,-9.4 10.2,-15.3 8.3,-9 18.2,-13.9 20.4,-10.3 z m 84.3,9.2 c 3.8,4 6.1,13.5 6,24.4 0,5.4 -0.6,11.5 -1.3,13.7 l -1.2,4 -2.3,-3.8 c -2.2,-3.7 -11.3,-10.7 -13.8,-10.7 -2.1,0 -2.3,-1.7 -1.3,-9.1 1.1,-7.9 3.9,-15.1 7.2,-18.6 2.7,-2.9 3.9,-2.9 6.7,0.1 z m 44.6,16.3 c 3.3,3.2 -1,16.8 -7.9,25 l -2.6,3.1 -8.8,-0.6 c -6.9,-0.3 -9.5,-0.1 -12,1.2 -1.7,0.9 -3.4,1.6 -3.7,1.6 -0.3,0 0.8,-2.7 2.5,-5.9 4.9,-9.9 17.4,-22 25.5,-24.9 4.2,-1.5 5.1,-1.4 7,0.5 z m 104,22.7 c 2.2,1.6 2.5,7.1 0.4,9 -2.6,2.6 -5.5,2.7 -8.2,0.5 -6.8,-5.2 0.9,-14.6 7.8,-9.5 z m -17.7,6.8 c 1.9,1.9 1.4,5.5 -0.9,7.1 -2.6,1.9 -5.8,1 -7.1,-1.9 -2,-4.4 4.6,-8.6 8,-5.2 z m 25,9.4 c 3.8,2.6 2.3,8.4 -2.2,8.4 -2.3,0 -5.6,-2.7 -5.6,-4.7 0,-1.4 3.5,-5.3 4.8,-5.3 0.4,0 1.8,0.7 3,1.6 z m -14.1,2.5 c 2.8,5.4 0.7,18.8 -3.4,21.5 -1.5,0.9 -4.5,3.4 -6.9,5.6 l -4.2,3.9 -0.6,-3.8 c -1.8,-12.6 -1.8,-14 0.2,-18 2.3,-4.5 10.7,-12.6 12.5,-12 0.7,0.2 1.8,1.4 2.4,2.8 z m -25.6,9.9 c 4.7,6.4 6.1,23.3 2.8,34.5 l -1.1,4 -2.3,-4.6 c -2.4,-4.5 -9.5,-11.9 -11.6,-11.9 -1.4,0 -0.7,-9.2 1.1,-15.2 1.3,-4.6 5.7,-10 7.8,-9.6 0.8,0.2 2.3,1.4 3.3,2.8 z m 38.7,16.4 c 0.4,4.4 -1.7,10.1 -5.8,16.1 l -2.9,4.2 -7.3,-0.5 c -5.3,-0.3 -8.4,0 -11.1,1.1 -2,0.9 -3.7,1.4 -3.7,1.1 0,-2.1 5.3,-10 10.4,-15.2 6.6,-6.9 13.6,-11.3 17.6,-10.9 2.1,0.2 2.5,0.8 2.8,4.1 z m 60.8,61.2 c 0.4,1.4 0.4,4.6 0,7.1 -0.5,3.7 -1.4,5.2 -5.3,8.8 l -4.8,4.3 -0.8,-5.6 c -1,-6.9 -0.5,-9.3 3.4,-13.7 3.7,-4.2 6.6,-4.6 7.5,-0.9 z m -17.2,7.3 c 2.3,4 3.2,14.2 1.7,19.8 -1.1,4.1 -1.3,4.3 -5,4.3 -2.3,0 -4.4,-0.6 -5.1,-1.6 -1.9,-2.2 -1.7,-15 0.4,-19.8 3.2,-7.5 4.8,-8.1 8,-2.7 z m 26.2,8.4 c 0.6,1.7 -2,9.1 -4.6,12.8 -2,2.7 -2.5,2.9 -9.1,2.9 -3.8,0 -6.9,-0.2 -6.9,-0.5 0,-2.8 8.7,-12.7 13.5,-15.3 2.7,-1.5 6.5,-1.5 7.1,0.1 z m 15.8,9.3 c 2.5,1 1.9,4.1 -1.6,7.9 l -3.3,3.5 -6.8,-0.6 -6.8,-0.7 2.8,-2.9 c 2.9,-3.1 7,-5.6 11.3,-6.9 1.4,-0.4 2.6,-0.8 2.7,-0.8 0.1,-0.1 0.8,0.2 1.7,0.5 z m 14.4,2.1 c 0.2,1.6 -1.1,3.7 -4.7,7.3 -5.1,5 -6.5,5.7 -9,4.1 -1.1,-0.7 -0.9,-1.5 1.3,-4.3 1.4,-1.9 2.6,-4.4 2.6,-5.6 0,-4.1 9.2,-5.5 9.8,-1.5 z"
       id="path11"
       style="fill:#000000;stroke:#000000;stroke-width:0;stroke-linecap:round;stroke-linejoin:round;stroke-dasharray:none;stroke-opacity:1" />
    <circle
       style="fill:#000000;stroke:#000000;stroke-width:0;stroke-linecap:round;stroke-linejoin:round"
       id="path75"
       cx="1358.0317"
       cy="549.58527"
       r="10.25"
       inkscape:label="path16" />
    <circle
       style="fill:#000000;stroke:#000000;stroke-width:0;stroke-linecap:round;stroke-linejoin:round"
       id="path75-6"
       cx="1476.0035"
       cy="590.53925"
       r="10.25"
       inkscape:label="path20" />
    <circle
       style="fill:#000000;stroke:#000000;stroke-width:0;stroke-linecap:round;stroke-linejoin:round"
       id="path75-6-5"
       cx="1588.9736"
       cy="636.0246"
       r="10.25"
       inkscape:label="path62" />
    <circle
       style="fill:#000000;stroke:#000000;stroke-width:0;stroke-linecap:round;stroke-linejoin:round"
       id="path75-6-5-5"
       cx="1685.187"
       cy="685.06744"
       r="10.25"
       inkscape:label="path64" />
  </g>
  <g
     id="g95"
     inkscape:label="horse left"
     style="stroke-width:0;stroke-dasharray:none">
    <path
       d="m 345.82188,803.6 c -38.36417,5.97883 -73.50801,34.26082 -84.17231,72.07405 -5.64914,18.98262 -4.2068,39.17836 -1.29861,58.50156 1.65219,9.17853 3.83168,18.25009 5.97092,27.32439 6.56431,-23.2565 11.32612,-48.28681 27.16987,-67.34985 17.97556,-21.64987 47.68157,-30.21753 75.01499,-27.64861 17.02214,0.0829 33.23075,6.74824 46.617,17.01294 4.26657,3.01472 8.46628,6.12252 12.69814,9.18552 18.3237,-7.93846 37.00395,-15.14867 54.9,-24 -7.10843,-12.87945 -17.50703,-23.82517 -28.12109,-33.95156 -21.51476,-20.26277 -50.47909,-32.75164 -80.20664,-32.50879 -9.53072,-0.18233 -19.13048,-0.0792 -28.57227,1.36035 z"
       id="path65"
       style="fill:#000000;stroke:#000000;stroke-width:0;stroke-linecap:round;stroke-linejoin:round;stroke-dasharray:none;stroke-opacity:1" />
    <path
       d="m 341.22188,879.6 c -3.8,0.8 -10.6,3 -15,4.7 l -18.7,10.9 c -4.38314,3.33954 -11.8,12.8 -11.8,12.8 -7.15196,9.28233 -10.7,22.6 -10.7,22.6 -1.8,5.2 -6.7,22.5 -14.8,52.4 l -6.6,24.5 -6.9,10.2 c -8.2,12.2 -8.5,13.8 -7.7,34.3 0.7,15.3 2.3,29 6.3,53.5 5.5,34.1 6.9,55.4 4.3,67.7 -3.2,15.1 -21,39.3 -43.8,59.3 -12.5,11 -24,19.7 -48.1,36.9 -10.2,7.2 -21.7,16.3 -25.5,20.2 -11.6,11.6 -17.4,25.4 -17.5,41.4 0,7.6 1.8,5.7 -22.9,24.9 l -14.2,11.1 -3.7,-1.6 c -7.6,-3.4 -18.2,-6.3 -26.6,-7.5 -13.5,-1.9 -28,0.7 -41.1,7.4 -4.9,2.5 -16.8,10.8 -16.2,11.3 0.1,0.2 2.7,-0.4 5.6,-1.3 6.6,-1.9 15.8,-1.4 19.6,1.1 l 2.8,1.8 -0.6,12.2 c -1.1,20.4 -6.3,39.8 -15.7,58.5 -3.1,6.3 -4.5,10.1 -3.7,10.1 3.5,0 12.1,-3 15.7,-5.5 2.2,-1.5 5.9,-5.1 8.3,-8.1 4.3,-5.2 4.4,-5.2 5.5,-3 4.3,9.4 4.1,32.5 -0.3,49.1 -1.5,5.5 -2.9,11.1 -3.2,12.4 l -0.6,2.4 3.3,-1.9 c 5.1,-3 12.6,-12 17,-20.5 4.1,-7.8 8,-20.7 8,-26.1 0,-4.2 1.5,-3.4 3.8,1.9 4,9.8 4.6,12.8 4.5,23.3 -0.1,8.2 -0.7,12.4 -2.8,19.5 -3.1,10.6 -8.8,23.2 -15.1,33.1 -2.4,4 -4.4,7.4 -4.4,7.7 0,0.8 4.8,-0.7 10.3,-3.1 6.4,-2.9 14.9,-8.6 21.3,-14.5 3,-2.7 5.4,-4.5 5.4,-4.1 0,0.5 -1.2,5.2 -2.5,10.4 -6.4,23.8 -20.5,48.6 -39,68.7 -4.1,4.5 -7.2,8.4 -6.8,8.6 1.4,0.7 14.6,-1.1 18.9,-2.6 20.3,-7.3 38.3,-23.9 54.4,-50.3 5.7,-9.3 5.9,-9.5 7.2,-7.2 2.3,4 1.7,31.9 -1,46.3 -2,10.3 -8,36 -9.8,41.9 -1,3.1 1.1,1.1 7.1,-6.9 10.9,-14.5 18.5,-31.6 22.7,-50.7 3.2,-15 3.2,-43.8 -0.1,-62.3 -2.5,-14.3 -7.3,-31.7 -11.9,-43.7 l -3,-7.8 3.4,2.7 c 8.6,6.5 23.2,26.3 30,40.5 l 3.4,7.3 -0.6,-6 c -1.7,-18.2 -16,-47.3 -41.1,-84.3 -8.3,-12.3 -9.9,-15.2 -8.1,-14.7 4.7,1.3 17.2,7.8 25,13.1 4.5,3 8.3,5.4 8.5,5.4 1,0 -9.3,-18 -15.1,-26.5 -3.3,-4.9 -9.6,-12.6 -13.8,-17 l -7.8,-8 5.3,-5.3 c 5.8,-5.9 17,-15.2 18.3,-15.2 0.5,0 2,2.5 3.3,5.6 7.4,17.1 26,36 55.9,56.6 12,8.3 18.4,14.9 20.6,21.5 2,5.9 2,16.8 0,24.7 -1.5,5.8 -9.4,23 -16.9,36.4 -3.2,5.7 -3.5,7.1 -3.5,14.1 v 7.7 l 15.7,14.6 c 26.3,24.2 53.8,50.8 61.6,59.5 l 7.4,8.2 -0.5,9.3 c -0.4,9 -0.4,9.4 2.2,11.9 2.4,2.5 4.1,3.1 15.3,5.9 8,2 8.2,7.5 0.3,14.1 -6.2,5.2 -7.2,8.8 -4.1,15.3 2.7,5.5 11.2,13.6 17.9,17 5.4,2.8 12,3.4 14,1.4 2.1,-2.1 1.4,-15.4 -1.7,-30.7 -1.6,-8.2 -3.1,-19.6 -3.4,-25.9 -0.4,-8.3 -1,-12.1 -2.3,-14 -0.9,-1.5 -14.3,-15.1 -29.8,-30.2 -63,-61.6 -59.6,-58 -59.6,-63.1 0,-5.6 1.4,-7.6 9.4,-13.3 15.7,-11.2 32.7,-34.5 49.1,-67.5 21.3,-42.8 34.5,-88.3 34.8,-119.4 l 0.1,-11.7 h 3.1 c 1.6,0 7.3,-1.5 12.5,-3.3 27.9,-9.6 53.1,-36.5 73.8,-78.8 l 6.7,-13.7 6.6,-2.1 c 13.2,-4.2 32.1,-17.5 55.7,-39 10.4,-9.6 11.5,-10.3 14.4,-9.7 5.9,1.2 17.8,7.7 27.6,15 11.3,8.6 31.5,29 40.1,40.5 6.9,9.4 7.9,13.2 5.9,23.1 -1.3,6.5 -1.3,6.5 -6.4,8.9 -8,3.7 -10.3,9.7 -6.9,17.8 3.1,7.3 1.4,10.3 -6.8,12.3 -3.1,0.8 -5.6,2.3 -7.3,4.3 -2.3,2.7 -2.5,3.7 -2,7.6 1.2,9.1 9.7,23.4 18.5,31.3 12,10.8 16.1,5.7 16.1,-20.1 v -11.6 l 10.1,-19.9 c 9.4,-18.4 10.1,-20.2 9.6,-24.1 -3.5,-25.4 -44.9,-74.8 -89.7,-107 -10.9,-7.8 -29.5,-18.9 -53,-31.6 -19,-10.3 -19.2,-10.5 -24.6,-17.6 -8.4,-11.3 -21.7,-26.3 -40.2,-45.4 -20,-20.7 -19.1,-18.8 -19.8,-44.4 -0.5,-19.1 -0.1,-20.8 5.6,-23.8 7.4,-3.8 15.4,1.1 21,12.9 4.4,9.5 5.4,14.1 5.5,26.2 0,10.7 0.1,11.5 2.4,13.3 4.6,3.7 7.9,1.9 8.8,-5 1.1,-7.9 7,-9.7 13.1,-3.8 4.4,4.1 9.2,6.7 12.5,6.7 3.5,0 7.5,-3.6 8.7,-7.8 0.8,-3.1 0.6,-4.3 -1.1,-7.7 -8.4,-15.8 -8.7,-17.2 -9.1,-48 l -0.3,-23.9 57.5,-23.3 c 64.6,-26.1 62.4,-25.2 61.8,-25.9 -0.5,-0.4 -116.5,19.6 -123.3,21.2 -1.7,0.4 -2.5,-0.5 -4.8,-5.1 -5.5,-11.3 -16,-19.8 -28.9,-23.6 -9.9,-2.9 -34.59533,-2.62149 -46.3,-1.3 z"
       id="path67"
       style="fill:#000000;stroke:#000000;stroke-width:0;stroke-linecap:round;stroke-linejoin:round;stroke-dasharray:none;stroke-opacity:1"
       sodipodi:nodetypes="ccccccccccccccccccccccccccsccccccccsccccsccsccscccccccccccccccccsccccscccccsccccccscccsccccsccccscccscccccccccccsccccccccccccccsccccccsccc" />
    <path
       d="m 536.22188,1072.7 c -1.1,0.2 -8.3,2.1 -16,4.1 l -14,3.7 h -31.5 c -32.9,0.1 -38.2,0.6 -46.4,4.7 -2.1,1.1 -3.4,2.3 -3,2.8 0.5,0.4 8.3,4.9 17.4,10 9.1,5 21.2,12.3 27,16.1 l 10.5,7 6.8,-1.7 c 12.7,-3.1 24.6,-9.8 35.1,-19.8 8.9,-8.5 9.1,-8 9.1,19.2 -0.1,20.1 -0.2,22.2 -2.4,28.2 l -2.3,6.5 6.8,6.4 c 11.4,10.6 17.4,15.4 18.2,14.6 1,-0.9 0.4,-33 -1.2,-67.6 -1.4,-30.6 -1.7,-32 -7,-33.9 -3,-1 -3.7,-1.1 -7.1,-0.3 z"
       id="path69"
       style="fill:#000000;stroke:#000000;stroke-width:0;stroke-linecap:round;stroke-linejoin:round;stroke-dasharray:none;stroke-opacity:1" />
    <path
       d="m 295.42188,1420.4 c -5.1,16 -29.8,56 -45.7,73.9 -5.4,6.1 -6,7.3 -6,11.1 0,5.6 3.8,11.2 11.6,17.2 3.3,2.5 18.8,10.9 34.9,18.9 25.9,12.9 31,15.8 47.9,27.7 10.4,7.4 19.4,14.1 20,15 0.7,1.2 0.6,3.6 -0.3,8.2 -2.1,10.5 -0.2,14.4 7.6,16.1 4,0.8 8.3,5.7 8.3,9.5 0,1.5 -0.7,4.7 -1.5,7.1 -3.5,9.8 -3.7,12.8 -1.3,16.7 6.1,9.8 20.9,23.2 25.8,23.2 2.4,0 3.2,-0.7 5.1,-4.7 1.9,-3.9 2.3,-6.5 2.3,-14.3 0.1,-13 -0.7,-16 -5.9,-22.2 -6.6,-7.6 -8.6,-13.9 -9.5,-28.8 -0.3,-6.9 -1.2,-13.5 -1.8,-14.7 -1.7,-3.2 -5.6,-5.6 -15.9,-10.1 -15.6,-6.7 -26.9,-15 -59.2,-43.4 -26.7,-23.5 -25.5,-22.2 -24.7,-26.1 2.6,-12.9 5.7,-31.2 7,-41.7 1.7,-13.3 3.9,-43 3.3,-43.6 -0.2,-0.2 -1.1,2 -2,5 z"
       id="path73"
       style="fill:#000000;stroke:#000000;stroke-width:0;stroke-linecap:round;stroke-linejoin:round;stroke-dasharray:none;stroke-opacity:1" />
    <path
       d="m 503.72188,1182.2 c -1.6,1.7 -1.9,3.3 -1.7,8 0.3,8.5 -0.9,9.3 -9.7,6.2 -8,-2.8 -10.6,-3 -14.5,-1 -3.9,2.1 -5.3,5.9 -5.2,14.8 0.1,8.2 1.6,16.4 5.1,26.2 2.8,8.1 4.3,10.2 8.1,11 7.1,1.4 15.1,-3.6 16.5,-10.2 1.7,-8 5.2,-14.9 10.6,-20.7 5.1,-5.5 6.5,-6.4 13,-8.3 13,-3.9 13,-3.5 -0.2,-16.7 -11,-11 -11.6,-11.5 -15.7,-11.5 -3.1,0 -4.8,0.6 -6.3,2.2 z"
       id="path71"
       style="fill:#000000;stroke:#000000;stroke-width:0;stroke-linecap:round;stroke-linejoin:round;stroke-dasharray:none;stroke-opacity:1" />
  </g>
  <g
     id="g96"
     inkscape:label="horse right"
     style="stroke-width:0;stroke-dasharray:none">
    <path
       d="m 1746.2219,803.1 c -25.5,3.2 -52.6,17.6 -72.8,38.8 -7.8,8.2 -20.7,24.8 -20.7,26.6 0,0.5 12.5,6.2 27.7,12.6 l 27.7,11.7 c 26.0509,-19.53821 37.432,-27.60531 70.1,-26.5 26,0.9 44.9,8.2 59.9,23.3 11.9,11.8 17.6,23.5 26,52.9 l 5.3,18.7 2.2,-9.3 c 5.1,-21.9 6.4,-32.4 5.8,-49.9 -0.6,-18.2 -2.6,-27.7 -8.6,-40.5 -6.8,-14.6 -20.8,-30.8 -35,-40.4 -13.1,-8.9 -31.1,-15.7 -47.5,-18 -9,-1.3 -29.9,-1.2 -40.1,0 z"
       id="path66"
       style="fill:#000000;stroke:#000000;stroke-width:0;stroke-linecap:round;stroke-linejoin:round;stroke-dasharray:none;stroke-opacity:1"
       sodipodi:nodetypes="ccscccccccccccc" />
    <path
       d="m 1752.7219,879.9 c -4.7,1 -11,3.1 -14,4.6 -6.9,3.5 -15.7,12.4 -19.5,19.7 -2.4,4.6 -3.4,5.6 -5,5.3 -9,-2.1 -122.8,-21.5 -123.3,-21.1 -0.6,0.7 -2.4,0 64,26.7 l 55.8,22.4 V 956 c 0,29.8 -1.9,41.2 -8.5,51.1 -3,4.6 -3.2,9.2 -0.6,13.6 3.8,6.1 10.3,5.6 18.1,-1.4 7.8,-7 13.2,-6 14.5,2.6 0.4,2 1,4.3 1.4,5.1 1.2,2.3 4.5,2.3 7.2,0.1 2.3,-1.8 2.4,-2.5 2.5,-13.3 0.1,-15.4 4.3,-27.8 12.2,-36 4.1,-4.3 7.8,-5.4 12.7,-3.8 6.8,2.2 7.5,4.3 7.5,22 0,12.3 -0.4,17.3 -1.9,23.1 l -2,7.4 -14.7,15 c -16.8,17.2 -32.2,34.4 -41.1,46 l -6.1,8 -19.3,10.5 c -10.6,5.8 -25.1,14 -32.3,18.3 -51,30.5 -101.2,84.3 -109.3,117.2 l -1.6,6.5 10,19.8 10,19.7 0.5,15 c 0.6,16.1 2,21.8 5.7,23 7.9,2.5 27.3,-22.3 28.8,-36.9 0.5,-4.6 0.2,-5.4 -2.1,-7.8 -1.6,-1.5 -4.8,-3.1 -7.7,-3.8 -3.4,-0.8 -5.5,-2 -6.6,-3.7 -1.5,-2.3 -1.5,-2.8 0,-7.1 2,-5.4 2.2,-10.4 0.6,-13.5 -1.4,-2.8 -4.9,-5.6 -7,-5.7 -3.5,0 -5.2,-2.7 -6.4,-9.9 -2,-11.6 -0.8,-14.5 12.9,-30.8 8.2,-9.8 23.3,-24.6 31.7,-31 10.4,-7.9 26.1,-16.3 30.6,-16.3 1,0 6.5,4.3 12.3,9.6 25,22.9 43.7,35.9 57.1,39.8 l 5.5,1.6 7.7,15.5 c 18.3,36.7 39.8,61.5 63.2,73.1 8.6,4.2 18.5,7.4 23.1,7.4 2.1,0 2.1,0.5 2.7,15.7 1.2,31.8 13.1,71.9 34.2,114.8 16.8,34.2 35.5,59.6 51.2,69.5 5.8,3.7 7.2,6.1 7.3,12.4 v 4.9 l -18.2,17.6 c -10.1,9.6 -30.4,29.5 -45.2,44.2 l -27,26.8 -0.9,12.8 c -0.5,7 -2,18.2 -3.4,24.8 -3,15 -4,28.2 -2.3,31.4 1.1,2.1 1.7,2.3 6.6,1.9 11.7,-1 27.4,-15.9 27.4,-25.9 0,-2.7 -1,-4.2 -5.7,-8.5 -4.6,-4.3 -5.6,-5.8 -5.6,-8.5 0,-4.1 1.7,-5.3 9.6,-6.9 7.3,-1.4 11.2,-3.3 12.7,-6 0.6,-1.1 1,-6.1 0.9,-10.9 -0.1,-7.6 0.2,-9.4 1.9,-11.8 2.8,-4 41.1,-41.5 63.4,-62.2 12.9,-11.9 18.8,-18.1 19.2,-19.9 1.3,-6.6 -0.9,-14.6 -6.7,-24.8 -11.8,-20.8 -16.2,-33.9 -15.5,-46.4 0.8,-13.2 5.1,-19.1 23.3,-31.6 28.5,-19.6 47.9,-39.4 55.6,-56.8 1.1,-2.5 2.3,-4.6 2.8,-4.6 1.7,0 23.1,18.5 23.1,20.1 0,0.3 -3.3,4 -7.3,8 -4,4.1 -10.7,12.6 -14.9,18.9 -7.8,11.9 -15.4,25 -14.4,25 0.3,0 4.7,-2.7 9.7,-6 12.5,-8.2 27.4,-15.2 25.3,-11.9 -0.5,0.8 -6.1,9.3 -12.5,18.9 -18.6,27.8 -28.8,46.8 -34.5,63.7 -2.4,7.1 -4.7,20.4 -3.5,20.2 0.3,0 2.7,-4.5 5.4,-9.9 2.6,-5.4 7.4,-13.4 10.6,-17.7 6.2,-8.3 20.9,-23.2 19.6,-19.8 -4.2,10.3 -10.9,32.5 -12.9,42.6 -9.8,48.4 -2.7,88.6 21.2,120.5 3.5,4.7 6.6,8.3 6.8,8.1 0.3,-0.2 -1.3,-7.4 -3.5,-16 -6.3,-25 -8.5,-39.1 -8.5,-55.7 0,-9.6 0.4,-15.5 1.2,-17.5 l 1.3,-2.9 2.1,3.4 c 18.9,31.1 36.3,48.4 56.5,56 5.2,1.9 19.1,4.2 20.6,3.3 0.4,-0.2 -2.2,-3.6 -5.8,-7.5 -19.4,-20.9 -33.8,-46.6 -40,-71 -0.9,-3.5 -1.9,-7.2 -2.2,-8.3 -0.4,-1.3 1.2,-0.3 4.8,2.9 9.4,8.5 20.1,14.8 30.7,18.1 2.2,0.6 2.1,0.2 -1.6,-5.7 -19.4,-31.5 -24.5,-57 -15.1,-76.7 l 3.1,-6.6 1.8,8.5 c 2.5,11.8 5.3,18.8 11.2,27.6 4.4,6.6 13.4,15.4 15.8,15.4 0.4,0 -0.3,-3.7 -1.6,-8.3 -5.4,-18.3 -6.8,-36.1 -3.9,-48.6 2.3,-9.7 2.5,-9.8 7,-4 5.2,6.5 12.7,11.6 19.3,13 2.9,0.6 5.5,0.9 5.7,0.7 0.2,-0.2 -1.8,-4.9 -4.6,-10.3 -9.1,-18.3 -14.5,-38.5 -15.6,-59.1 l -0.6,-11.2 2.7,-1.7 c 3.8,-2.5 14.9,-3.1 20.6,-1.1 2.4,0.8 4.6,1.3 4.8,1.1 0.8,-0.7 -12.1,-9.6 -18.2,-12.4 -10.2,-4.9 -17.8,-6.4 -30.6,-6.4 -12.5,0.1 -22.7,2.2 -32.8,6.8 l -5.5,2.5 -9.6,-7.2 c -5.2,-4 -13.6,-10.6 -18.6,-14.6 l -9,-7.3 -0.6,-10.2 c -0.8,-12.4 -3.6,-20.8 -10.2,-30 -6.4,-8.9 -11.8,-13.5 -37.4,-31.9 -12.2,-8.7 -27.1,-19.8 -33,-24.7 -31.1,-25.5 -50.9,-50.9 -54.4,-69.7 -2,-10.5 -0.5,-32.2 4.5,-64.4 5.5,-35.6 6.6,-46.4 6.6,-62.6 0,-14.2 -0.4,-15.7 -7.8,-26.6 -2.7,-4 -5.4,-8.3 -6,-9.4 -0.6,-1.2 -5.2,-17.2 -10.2,-35.5 -5,-18.4 -10,-36.3 -11.1,-39.7 0,0 -5.3472,-11.39855 -9.9,-21.8 -4.2339,-5.82007 -3.699,-9.36374 -15,-17.4 0,0 -7.0131,-4.77987 -13.1,-8.1 -2.1,-1 -7.7,-3.1 -12.6,-4.5 -12,-3.6 -35.3,-4.4 -48.3,-1.5 z"
       id="path68"
       style="fill:#000000;stroke:#000000;stroke-width:0;stroke-linecap:round;stroke-linejoin:round;stroke-dasharray:none;stroke-opacity:1"
       sodipodi:nodetypes="cccccccsccsccccccscccccccscccccccccccccccscccccsccccccccccccscsccccccccccssccsccccccccccccscccccccccccccccsccccscccccccccccccccccccsccccccccc" />
    <path
       d="m 1839.2219,1430.5 c 0.5,16.1 3.4,39.7 7,58.2 1.4,7 2.5,13.5 2.5,14.4 0,1.3 -25.9,25 -46.5,42.5 -11.7,9.9 -23.1,17.6 -33.5,22.5 -21.6,10.3 -21.1,9.6 -22,27.8 -0.5,10.7 -1,13.5 -3.3,18.5 -1.5,3.2 -4.2,7.6 -6.1,9.6 -4.6,5.1 -6,9.9 -6,20.5 0,13 2.9,20.5 8,20.5 5,0 22.1,-16.1 26.2,-24.8 1.5,-3.1 1.4,-3.7 -1.2,-11.8 -4.1,-12.7 -2.4,-17.8 7.2,-20.3 6,-1.7 7.7,-4.6 6.7,-11.9 -1.7,-13.4 -3.4,-10.9 18.5,-26.4 20.2,-14.2 29.1,-19.3 52,-29.8 31.5,-14.4 46.1,-26.6 43.6,-36.5 -0.3,-1.3 -2.9,-5 -5.7,-8.2 -15.6,-17.7 -39.2,-55.6 -46.1,-73.8 l -1.8,-5 z"
       id="path74"
       style="fill:#000000;stroke:#000000;stroke-width:0;stroke-linecap:round;stroke-linejoin:round;stroke-dasharray:none;stroke-opacity:1" />
    <path
       d="m 1592.0219,1073 c -4.8,2 -5.1,3.7 -6.7,37.2 -1.8,35.5 -2.1,63.4 -0.7,64.2 0.9,0.6 7.8,-5.2 18.7,-15.6 l 6.1,-5.9 -1.9,-3.8 c -2.6,-5.2 -3.8,-20.8 -3.1,-38.4 0.4,-10.4 1,-15 1.9,-15.8 1.1,-0.9 3.2,0.5 9.4,6.4 9.1,8.6 21.9,15.5 33.7,18.3 l 7.1,1.7 3.5,-3 c 3.7,-3.3 17.7,-11.8 38,-23.2 7,-4 12.7,-7.4 12.7,-7.6 0,-0.9 -8.1,-4.5 -12.7,-5.6 -3.1,-0.8 -16,-1.2 -36.8,-1.3 l -32,-0.1 -13.5,-3.7 c -15.8,-4.3 -20.7,-5.1 -23.7,-3.8 z"
       id="path70"
       style="fill:#000000;stroke:#000000;stroke-width:0;stroke-linecap:round;stroke-linejoin:round;stroke-dasharray:none;stroke-opacity:1" />
    <path
       d="m 1610.0219,1191.2 c -6.2,6.2 -11.3,11.5 -11.3,11.9 0,1.1 8.1,4.7 12.3,5.5 8.7,1.5 17.1,11.4 21.3,25 2.7,9.1 4.9,11.7 11.3,13.4 8.6,2.3 12.2,-1.6 16.7,-18.6 3.6,-13.1 3.9,-25.9 0.8,-30.1 -3.4,-4.6 -8.1,-5.2 -17.2,-2.1 -5.4,1.8 -8.1,2.3 -8.9,1.6 -0.8,-0.6 -1.3,-3.5 -1.3,-7.4 0,-8 -1.9,-10.4 -8.2,-10.4 -3.9,0 -4.7,0.6 -15.5,11.2 z"
       id="path72"
       style="fill:#000000;stroke:#000000;stroke-width:0;stroke-linecap:round;stroke-linejoin:round;stroke-dasharray:none;stroke-opacity:1" />
  </g>
</svg>
