<?xml version="1.0" encoding="UTF-8" standalone="no"?>
<svg
   width="165"
   height="165"
   viewBox="0 0 165 165"
   version="1.1"
   id="svg1"
   sodipodi:docname="topcoder-logo.svg"
   inkscape:version="1.4.1 (93de688d07, 2025-03-30)"
   xmlns:inkscape="http://www.inkscape.org/namespaces/inkscape"
   xmlns:sodipodi="http://sodipodi.sourceforge.net/DTD/sodipodi-0.dtd"
   xmlns="http://www.w3.org/2000/svg"
   xmlns:svg="http://www.w3.org/2000/svg"
   xmlns:rdf="http://www.w3.org/1999/02/22-rdf-syntax-ns#"
   xmlns:cc="http://creativecommons.org/ns#"
   xmlns:dc="http://purl.org/dc/elements/1.1/">
  <defs
     id="defs1" />
  <sodipodi:namedview
     id="namedview1"
     pagecolor="#ffffff"
     bordercolor="#000000"
     borderopacity="0.25"
     inkscape:showpageshadow="2"
     inkscape:pageopacity="0.0"
     inkscape:pagecheckerboard="0"
     inkscape:deskcolor="#d1d1d1"
     inkscape:zoom="4.1077982"
     inkscape:cx="67.432719"
     inkscape:cy="91.411502"
     inkscape:window-width="1896"
     inkscape:window-height="1116"
     inkscape:window-x="0"
     inkscape:window-y="0"
     inkscape:window-maximized="1"
     inkscape:current-layer="topcoder-horizontal-black" />
  <!-- Generator: Sketch 52.5 (67469) - http://www.bohemiancoding.com/sketch -->
  <title
     id="title1">topcoder-horizontal-black</title>
  <desc
     id="desc1">Created with Sketch.</desc>
  <g
     id="Symbols"
     stroke="none"
     stroke-width="1"
     fill="none"
     fill-rule="evenodd"
     transform="translate(2.1918827e-4,-58)">
    <g
       id="logo/topcoder/horizontal/black"
       fill="#2a2a2a">
      <g
         id="topcoder-horizontal-black">
        <g
           id="mark"
           transform="matrix(0.99845021,0,0,1,-3.3969505e-7,112.73489)">
          <path
             d="m 82.6552,28.374 c 1.39,-0.543 2.69,-1.055 3.869,-1.531 9.319,-3.763 21.996,-7.534 34.197,-9.713 C 109.6802,6.482 95.8282,0 82.6552,0 c -13.172,0 -27.024,6.482 -38.065,17.13 12.201,2.179 24.877,5.95 34.197,9.713 1.179,0.476 2.478,0.988 3.868,1.531"
             id="Fill-17" />
          <path
             d="m 78.535,30.541 c -0.035,-0.014 -0.07,-0.028 -0.106,-0.042 -0.004,-0.002 -0.007,-0.003 -0.011,-0.005 -0.556,-0.22 -1.094,-0.434 -1.607,-0.641 -0.007,-0.003 -0.016,-0.006 -0.024,-0.01 -0.523,-0.211 -1.061,-0.422 -1.605,-0.633 -0.069,-0.027 -0.138,-0.055 -0.208,-0.081 -0.04,-0.016 -0.079,-0.031 -0.119,-0.046 -0.534,-0.206 -1.077,-0.412 -1.63,-0.616 -0.012,-0.005 -0.026,-0.01 -0.039,-0.015 -0.073,-0.027 -0.147,-0.055 -0.22,-0.081 -0.53,-0.195 -1.065,-0.39 -1.609,-0.584 C 71.29,27.764 71.223,27.739 71.156,27.715 70.569,27.507 69.972,27.3 69.37,27.094 69.309,27.073 69.249,27.053 69.187,27.032 69.146,27.018 69.104,27.003 69.062,26.989 67.813,26.564 66.532,26.145 65.224,25.734 65.175,25.719 65.124,25.703 65.074,25.687 65.047,25.679 65.02,25.67 64.993,25.661 64.336,25.455 63.672,25.251 63.002,25.05 62.97,25.04 62.937,25.03 62.906,25.021 62.888,25.016 62.868,25.01 62.849,25.005 61.468,24.59 60.061,24.186 58.639,23.793 58.627,23.79 58.616,23.787 58.604,23.784 58.56,23.771 58.515,23.76 58.471,23.747 57.024,23.351 55.56,22.967 54.085,22.599 54.066,22.595 54.049,22.59 54.03,22.585 53.282,22.399 52.532,22.217 51.78,22.04 H 51.779 C 51.77,22.038 51.762,22.036 51.753,22.033 50.245,21.679 48.73,21.342 47.215,21.025 L 47.185,21.02 C 47.173,21.017 47.161,21.015 47.148,21.012 45.626,20.695 44.104,20.4 42.59,20.13 33.198,29.186 25.845,41.255 22.673,54.915 l -0.145,0.605 c 4.482,0.187 8.603,-2.243 9.895,-2.964 16.438,-9.179 36.466,-19.324 48.232,-21.182 l 0.024,0.009 c -0.743,-0.29 -1.457,-0.571 -2.144,-0.842"
             id="Fill-19" />
          <path
             d="m 19.3602,53.915 c 3.171,-13.659 10.242,-25.729 19.632,-34.784 -18.14,-3.24 -34.945,-2.959 -38.378,6.118 -2.422,6.404 2.534,16.064 11.04,25.597 2.333,2.614 5.005,4.195 7.561,4.301 0,0 0.008,-0.196 0.05,-0.573 0.043,-0.4 0.095,-0.659 0.095,-0.659"
             id="Fill-21" />
          <path
             d="m 86.7206,30.541 c 0.035,-0.014 0.07,-0.028 0.106,-0.042 0.004,-0.002 0.007,-0.003 0.011,-0.005 0.556,-0.22 1.094,-0.434 1.607,-0.641 0.007,-0.003 0.016,-0.006 0.024,-0.01 0.523,-0.211 1.061,-0.422 1.605,-0.633 0.069,-0.027 0.138,-0.055 0.208,-0.081 0.04,-0.016 0.079,-0.031 0.119,-0.046 0.534,-0.206 1.077,-0.412 1.63,-0.616 0.012,-0.005 0.026,-0.01 0.039,-0.015 0.073,-0.027 0.147,-0.055 0.22,-0.081 0.53,-0.195 1.066,-0.39 1.609,-0.584 0.067,-0.023 0.134,-0.048 0.202,-0.072 0.586,-0.208 1.183,-0.415 1.785,-0.621 0.061,-0.021 0.121,-0.041 0.183,-0.062 0.042,-0.014 0.083,-0.029 0.125,-0.043 1.25,-0.425 2.53,-0.844 3.838,-1.255 0.05,-0.015 0.1,-0.031 0.15,-0.047 0.027,-0.008 0.054,-0.017 0.081,-0.026 0.657,-0.206 1.321,-0.41 1.992,-0.611 0.031,-0.01 0.064,-0.02 0.095,-0.029 0.019,-0.005 0.038,-0.011 0.057,-0.016 1.381,-0.415 2.788,-0.819 4.21,-1.212 0.012,-0.003 0.023,-0.006 0.035,-0.009 0.044,-0.013 0.089,-0.024 0.133,-0.037 1.447,-0.396 2.911,-0.78 4.386,-1.148 0.019,-0.004 0.037,-0.009 0.056,-0.014 0.747,-0.186 1.497,-0.368 2.249,-0.545 h 0.001 c 0.009,-0.002 0.017,-0.004 0.026,-0.007 1.508,-0.354 3.024,-0.691 4.538,-1.008 0.01,-0.002 0.021,-0.004 0.03,-0.005 0.012,-0.003 0.025,-0.005 0.037,-0.008 1.522,-0.317 3.044,-0.612 4.559,-0.882 9.391,9.056 16.745,21.125 19.916,34.785 l 0.145,0.605 c -4.482,0.187 -8.603,-2.243 -9.895,-2.964 -16.438,-9.179 -36.466,-19.324 -48.232,-21.182 l -0.024,0.009 c 0.744,-0.29 1.457,-0.571 2.144,-0.842"
             id="Fill-24" />
          <path
             d="m 145.8954,53.915 c -3.171,-13.659 -10.241,-25.729 -19.632,-34.784 18.14,-3.24 34.945,-2.959 38.378,6.118 2.422,6.404 -2.533,16.064 -11.04,25.597 -2.332,2.614 -5.005,4.195 -7.561,4.301 0,0 -0.008,-0.196 -0.049,-0.573 -0.044,-0.4 -0.096,-0.659 -0.096,-0.659"
             id="Fill-26" />
        </g>
      </g>
    </g>
  </g>
  <metadata
     id="metadata1">
    <rdf:RDF>
      <cc:Work
         rdf:about="">
        <dc:title>topcoder-horizontal-black</dc:title>
      </cc:Work>
    </rdf:RDF>
  </metadata>
</svg>
