<?xml version="1.0" encoding="UTF-8"?>
<svg width="436px" height="65px" viewBox="0 0 436 65" version="1.1" xmlns="http://www.w3.org/2000/svg" xmlns:xlink="http://www.w3.org/1999/xlink">
    <!-- Generator: Sketch 52.5 (67469) - http://www.bohemiancoding.com/sketch -->
    <title>topcoder-horizontal-black</title>
    <desc>Created with Sketch.</desc>
    <g id="Symbols" stroke="none" stroke-width="1" fill="none" fill-rule="evenodd">
        <g id="logo/topcoder/horizontal/black" fill="#2A2A2A">
            <g id="topcoder-horizontal-black">
                <g id="wordmark" transform="translate(181.000000, 7.000000)">
                    <path d="M6.2128,39.163 L6.2128,15.941 L0.8128,15.941 L0.8128,12.837 L6.2128,12.837 L6.2128,3.926 L9.7908,3.926 L9.7908,12.837 L16.4058,12.837 L16.4058,15.941 L9.7908,15.941 L9.7908,38.623 C9.7908,41.256 10.8708,43.079 13.1658,43.079 C14.7188,43.079 16.0678,42.336 16.8108,41.526 L18.1608,44.226 C16.8788,45.441 15.3258,46.252 12.6258,46.252 C8.3058,46.252 6.2128,43.619 6.2128,39.163" id="Fill-1"></path>
                    <path d="M48.4686,29.1054 C48.4686,21.8814 44.2166,15.1994 36.5216,15.1994 C28.9606,15.1994 24.6406,21.8814 24.6406,29.1054 C24.6406,36.3954 28.9606,43.0794 36.5216,43.0794 C44.2166,43.0794 48.4686,36.3954 48.4686,29.1054 M20.8596,29.1054 C20.8596,19.5864 27.0026,12.0264 36.5216,12.0264 C46.1736,12.0264 52.2496,19.5864 52.2496,29.1054 C52.2496,38.6234 46.1736,46.2514 36.5216,46.2514 C27.0026,46.2514 20.8596,38.6234 20.8596,29.1054" id="Fill-3"></path>
                    <path d="M85.5936,29.1054 C85.5936,21.2074 81.4766,15.1994 74.1856,15.1994 C69.6626,15.1994 65.3426,17.8994 63.4526,21.0044 L63.4526,37.1384 C65.3426,40.2434 69.6626,43.0794 74.1856,43.0794 C81.4766,43.0794 85.5936,37.0024 85.5936,29.1054 M63.4526,40.1754 L63.4526,57.8624 L59.9426,57.8624 L59.9426,12.8364 L63.4526,12.8364 L63.4526,17.9664 C65.7476,14.6594 69.9336,12.0264 74.7926,12.0264 C83.5016,12.0264 89.3746,18.6414 89.3746,29.1054 C89.3746,39.5014 83.5016,46.2514 74.7926,46.2514 C70.2026,46.2514 66.0846,43.8884 63.4526,40.1754" id="Fill-5"></path>
                    <path d="M94.9735,29.1054 C94.9735,19.5864 101.2515,12.0264 110.8375,12.0264 C116.5075,12.0264 119.7475,14.2534 122.3805,17.5614 L119.9515,19.7214 C117.5875,16.4814 114.6175,15.1994 111.0395,15.1994 C103.4115,15.1994 98.7535,21.2744 98.7535,29.1054 C98.7535,36.9354 103.4115,43.0794 111.0395,43.0794 C114.6175,43.0794 117.5875,41.7284 119.9515,38.4884 L122.3805,40.6484 C119.7475,44.0234 116.5075,46.2514 110.8375,46.2514 C101.2515,46.2514 94.9735,38.6234 94.9735,29.1054" id="Fill-7"></path>
                    <path d="M154.577,29.1054 C154.577,21.8814 150.324,15.1994 142.629,15.1994 C135.068,15.1994 130.748,21.8814 130.748,29.1054 C130.748,36.3954 135.068,43.0794 142.629,43.0794 C150.324,43.0794 154.577,36.3954 154.577,29.1054 M126.968,29.1054 C126.968,19.5864 133.111,12.0264 142.629,12.0264 C152.282,12.0264 158.357,19.5864 158.357,29.1054 C158.357,38.6234 152.282,46.2514 142.629,46.2514 C133.111,46.2514 126.968,38.6234 126.968,29.1054" id="Fill-9"></path>
                    <path d="M190.0819,37.2734 L190.0819,21.1394 C188.1909,17.9664 183.9389,15.1994 179.3489,15.1994 C172.1259,15.1994 167.9399,21.2744 167.9399,29.1724 C167.9399,37.0704 172.1259,43.0794 179.3489,43.0794 C183.9389,43.0794 188.1909,40.3784 190.0819,37.2734 Z M190.0819,45.4414 L190.0819,40.2434 C187.7869,43.6194 183.6019,46.2524 178.7409,46.2524 C170.1009,46.2524 164.1599,39.6354 164.1599,29.1724 C164.1599,18.8444 170.1009,12.0264 178.7409,12.0264 C183.3989,12.0264 187.4489,14.3884 190.0819,18.1014 L190.0819,0.4164 L193.6599,0.4164 L193.6599,45.4414 L190.0819,45.4414 Z" id="Fill-11"></path>
                    <path d="M217.0135,15.0644 C209.3185,15.0644 205.4705,21.8144 205.2005,27.4854 L228.8945,27.4854 C228.8265,21.9494 225.1815,15.0644 217.0135,15.0644 M201.3525,29.1054 C201.3525,19.6544 208.0345,12.0264 217.0805,12.0264 C227.0035,12.0264 232.4725,19.9244 232.4725,29.3074 L232.4725,30.2524 L205.2005,30.2524 C205.5375,37.3404 210.2635,43.2134 217.9585,43.2134 C222.0755,43.2134 225.8575,41.6614 228.6245,38.6914 L230.4475,40.9864 C227.2065,44.3614 223.0895,46.2514 217.6895,46.2514 C208.1705,46.2514 201.3525,39.1634 201.3525,29.1054" id="Fill-13"></path>
                    <path d="M240.1639,45.4414 L240.1639,12.8374 L243.6749,12.8374 L243.6749,18.4394 C246.4419,14.7944 250.1549,12.1614 254.6779,12.1614 L254.6779,16.0094 C254.0699,15.8744 253.5979,15.8744 252.9229,15.8744 C249.6149,15.8744 245.1599,18.8444 243.6749,21.6794 L243.6749,45.4414 L240.1639,45.4414 Z" id="Fill-15"></path>
                </g>
                <g id="mark">
                    <path d="M82.6552,28.374 C84.0452,27.831 85.3452,27.319 86.5242,26.843 C95.8432,23.08 108.5202,19.309 120.7212,17.13 C109.6802,6.482 95.8282,1.0658141e-14 82.6552,1.0658141e-14 C69.4832,1.0658141e-14 55.6312,6.482 44.5902,17.13 C56.7912,19.309 69.4672,23.08 78.7872,26.843 C79.9662,27.319 81.2652,27.831 82.6552,28.374" id="Fill-17"></path>
                    <path d="M78.535,30.541 C78.5,30.527 78.465,30.513 78.429,30.499 C78.425,30.497 78.422,30.496 78.418,30.494 C77.862,30.274 77.324,30.06 76.811,29.853 C76.804,29.85 76.795,29.847 76.787,29.843 C76.264,29.632 75.726,29.421 75.182,29.21 C75.113,29.183 75.044,29.155 74.974,29.129 C74.934,29.113 74.895,29.098 74.855,29.083 C74.321,28.877 73.778,28.671 73.225,28.467 C73.213,28.462 73.199,28.457 73.186,28.452 C73.113,28.425 73.039,28.397 72.966,28.371 C72.436,28.176 71.901,27.981 71.357,27.787 C71.29,27.764 71.223,27.739 71.156,27.715 C70.569,27.507 69.972,27.3 69.37,27.094 C69.309,27.073 69.249,27.053 69.187,27.032 C69.146,27.018 69.104,27.003 69.062,26.989 C67.813,26.564 66.532,26.145 65.224,25.734 C65.175,25.719 65.124,25.703 65.074,25.687 C65.047,25.679 65.02,25.67 64.993,25.661 C64.336,25.455 63.672,25.251 63.002,25.05 C62.97,25.04 62.937,25.03 62.906,25.021 C62.888,25.016 62.868,25.01 62.849,25.005 C61.468,24.59 60.061,24.186 58.639,23.793 C58.627,23.79 58.616,23.787 58.604,23.784 C58.56,23.771 58.515,23.76 58.471,23.747 C57.024,23.351 55.56,22.967 54.085,22.599 C54.066,22.595 54.049,22.59 54.03,22.585 C53.282,22.399 52.532,22.217 51.78,22.04 L51.779,22.04 C51.77,22.038 51.762,22.036 51.753,22.033 C50.245,21.679 48.73,21.342 47.215,21.025 L47.185,21.02 C47.173,21.017 47.161,21.015 47.148,21.012 C45.626,20.695 44.104,20.4 42.59,20.13 C33.198,29.186 25.845,41.255 22.673,54.915 L22.528,55.52 C27.01,55.707 31.131,53.277 32.423,52.556 C48.861,43.377 68.889,33.232 80.655,31.374 L80.679,31.383 C79.936,31.093 79.222,30.812 78.535,30.541" id="Fill-19"></path>
                    <path d="M19.3602,53.915 C22.5312,40.256 29.6022,28.186 38.9922,19.131 C20.8522,15.891 4.0472,16.172 0.6142,25.249 C-1.8078,31.653 3.1482,41.313 11.6542,50.846 C13.9872,53.46 16.6592,55.041 19.2152,55.147 C19.2152,55.147 19.2232,54.951 19.2652,54.574 C19.3082,54.174 19.3602,53.915 19.3602,53.915" id="Fill-21"></path>
                    <path d="M86.7206,30.541 C86.7556,30.527 86.7906,30.513 86.8266,30.499 C86.8306,30.497 86.8336,30.496 86.8376,30.494 C87.3936,30.274 87.9316,30.06 88.4446,29.853 C88.4516,29.85 88.4606,29.847 88.4686,29.843 C88.9916,29.632 89.5296,29.421 90.0736,29.21 C90.1426,29.183 90.2116,29.155 90.2816,29.129 C90.3216,29.113 90.3606,29.098 90.4006,29.083 C90.9346,28.877 91.4776,28.671 92.0306,28.467 C92.0426,28.462 92.0566,28.457 92.0696,28.452 C92.1426,28.425 92.2166,28.397 92.2896,28.371 C92.8196,28.176 93.3556,27.981 93.8986,27.787 C93.9656,27.764 94.0326,27.739 94.1006,27.715 C94.6866,27.507 95.2836,27.3 95.8856,27.094 C95.9466,27.073 96.0066,27.053 96.0686,27.032 C96.1106,27.018 96.1516,27.003 96.1936,26.989 C97.4436,26.564 98.7236,26.145 100.0316,25.734 C100.0816,25.719 100.1316,25.703 100.1816,25.687 C100.2086,25.679 100.2356,25.67 100.2626,25.661 C100.9196,25.455 101.5836,25.251 102.2546,25.05 C102.2856,25.04 102.3186,25.03 102.3496,25.021 C102.3686,25.016 102.3876,25.01 102.4066,25.005 C103.7876,24.59 105.1946,24.186 106.6166,23.793 C106.6286,23.79 106.6396,23.787 106.6516,23.784 C106.6956,23.771 106.7406,23.76 106.7846,23.747 C108.2316,23.351 109.6956,22.967 111.1706,22.599 C111.1896,22.595 111.2076,22.59 111.2266,22.585 C111.9736,22.399 112.7236,22.217 113.4756,22.04 L113.4766,22.04 C113.4856,22.038 113.4936,22.036 113.5026,22.033 C115.0106,21.679 116.5266,21.342 118.0406,21.025 C118.0506,21.023 118.0616,21.021 118.0706,21.02 C118.0826,21.017 118.0956,21.015 118.1076,21.012 C119.6296,20.695 121.1516,20.4 122.6666,20.13 C132.0576,29.186 139.4116,41.255 142.5826,54.915 L142.7276,55.52 C138.2456,55.707 134.1246,53.277 132.8326,52.556 C116.3946,43.377 96.3666,33.232 84.6006,31.374 L84.5766,31.383 C85.3206,31.093 86.0336,30.812 86.7206,30.541" id="Fill-24"></path>
                    <path d="M145.8954,53.915 C142.7244,40.256 135.6544,28.186 126.2634,19.131 C144.4034,15.891 161.2084,16.172 164.6414,25.249 C167.0634,31.653 162.1084,41.313 153.6014,50.846 C151.2694,53.46 148.5964,55.041 146.0404,55.147 C146.0404,55.147 146.0324,54.951 145.9914,54.574 C145.9474,54.174 145.8954,53.915 145.8954,53.915" id="Fill-26"></path>
                </g>
            </g>
        </g>
    </g>
</svg>