<?xml version="1.0" encoding="UTF-8" standalone="no"?>
<svg width="100" height="100" viewBox="0 0 100 100" fill="none" version="1.1" id="svg65" xmlns="http://www.w3.org/2000/svg">
  <path
     d="m 76.130163,70.948348 c 2.68642,0.879192 4.896611,2.124714 6.618361,3.736565 0.378541,0.268642 0.561706,0.573917 0.561706,0.928036 0,0.573917 -0.427385,1.123412 -1.294366,1.660696 -1.013512,0.634972 -2.527676,1.758384 -4.53028,3.370236 -1.856072,1.477531 -3.358025,2.552099 -4.493648,3.235914 -0.219798,0.109899 -0.439596,0.170954 -0.659394,0.170954 -0.329697,0 -0.622761,-0.12211 -0.854769,-0.341908 -0.24422,-0.232009 -0.36633,-0.50065 -0.36633,-0.805925 0,-0.268642 0.09769,-0.500651 0.293064,-0.73266 0.268641,-0.439596 0.879191,-0.928036 1.856071,-1.453109 0.634972,-0.329697 1.428687,-0.866981 2.381145,-1.624063 1.147834,-0.928036 1.941549,-1.538586 2.381145,-1.819439 0.964669,-0.48844 1.453109,-0.830348 1.453109,-1.025724 0,-0.04884 -0.01221,-0.08548 -0.03663,-0.134321 -0.525073,-0.928036 -1.404265,-1.624063 -2.613154,-2.088081 -1.074568,-0.305275 -2.173558,-0.622761 -3.272548,-0.964668 -1.294366,-0.390752 -2.259034,-0.952458 -2.881795,-1.685118 -0.04884,-0.06105 -0.06105,-0.146532 -0.06105,-0.232009 0,-0.268642 0.158743,-0.561706 0.464018,-0.879192 0.305275,-0.317486 0.891402,-0.476229 0.891402,-0.476229 0,0 0.354119,-0.06105 0.525073,-0.06105 0.512862,0 1.135623,0.158743 1.880494,0.464018 0.573917,0.24422 1.160045,0.48844 1.758384,0.757082 z m -51.59147,-1.086779 c 0.500651,0 0.915825,0.134321 1.245522,0.402963 0.317486,0.268642 0.476229,0.573917 0.476229,0.928036 0,0.268642 -0.09769,0.500651 -0.293064,0.696027 -0.73266,0.793715 -2.222402,1.648484 -4.493648,2.552098 -2.100291,0.842559 -3.50452,1.807228 -4.237179,2.906218 1.233274,0.744871 2.857337,1.563008 4.85994,2.4422 3.199282,1.428687 4.847767,2.173558 4.957666,2.222402 0.415174,0.195376 0.622761,0.512862 0.622761,0.964669 0.04884,0.549494 -0.170954,1.013512 -0.647183,1.404264 -0.476229,0.390752 -1.025724,0.573917 -1.636274,0.573917 -0.24422,0 -0.476229,-0.04884 -0.696027,-0.134321 -0.268642,-0.268642 -0.622761,-0.573917 -1.086779,-0.928036 -2.906217,-1.587429 -6.019986,-3.101593 -9.329166,-4.53028 -0.329697,-0.134321 -0.659394,-0.256431 -0.989091,-0.36633 -0.415174,-0.195376 -0.659394,-0.48844 -0.73266,-0.85477 0,-0.952458 0.415174,-1.83165 1.257733,-2.649787 1.013513,-0.818137 2.68642,-1.746173 5.030895,-2.808529 2.271246,-1.013513 3.907519,-1.95376 4.933243,-2.80853 0,-0.01221 0.24422,-0.01221 0.757082,-0.01221 z"
     fill="#5b4538"
     id="path3"
     style="fill:#000000;stroke-width:0;stroke-dasharray:none" />
  <path
     d="m 45.28518,69.812725 c -0.549495,-0.793715 -1.062357,-1.355421 -1.526375,-1.685118 -0.464018,-0.329697 -1.001302,-0.48844 -1.624063,-0.48844 -0.219798,0 -0.415174,0.03663 -0.573917,0.09769 l -3.663299,1.269944 c -0.207587,0.07327 -0.451807,0.09769 -0.720449,0.09769 -0.48844,0 -0.879192,-0.109899 -1.172256,-0.341908 -0.305275,-0.219798 -0.671605,-0.671605 -1.09899,-1.34321 l -1.013513,0.671605 c 0.634972,0.915825 1.184467,1.526375 1.624063,1.819439 0.451807,0.305275 1.013513,0.451807 1.70954,0.451807 0.305275,0 0.61055,-0.04884 0.903614,-0.134321 l 3.358024,-1.2211 c 0.219798,-0.08548 0.464018,-0.134321 0.720449,-0.134321 0.427385,0 0.781504,0.08548 1.037935,0.268642 0.256431,0.170954 0.622761,0.573917 1.086779,1.208889 z"
     fill="#5b4538"
     id="path4"
     style="fill:#000000;stroke-width:0;stroke-dasharray:none" />
  <path
     fill-rule="evenodd"
     clip-rule="evenodd"
     d="m 70.036875,90.04635 c 1.84386,11.01432 -11.624871,12.07668 -17.156454,7.131221 -3.822042,-3.41908 -2.747474,-8.169156 2.735264,-7.876092 4.823345,0.256431 7.668507,6.484042 14.42119,0.744871 z"
     fill="#5b4538"
     id="path5"
     style="fill:#000000;stroke-width:0;stroke-dasharray:none" />
  <path
     fill-rule="evenodd"
     clip-rule="evenodd"
     d="m 29.130029,90.04635 c -1.843861,11.01432 11.624871,12.07668 17.156453,7.131221 3.822043,-3.41908 2.747475,-8.169156 -2.735264,-7.876092 -4.823344,0.256431 -7.668507,6.484042 -14.421189,0.744871 z"
     fill="#5b4538"
     id="path6"
     style="fill:#000000;stroke-width:0;stroke-dasharray:none" />
  <path
     d="m 42.35454,74.062152 c -0.61055,-0.427385 -1.367631,-0.647183 -2.271245,-0.647183 -1.086779,0 -1.965971,0.329697 -2.649787,0.97688 -0.793715,0.720449 -1.09899,1.746173 -0.915825,3.089383 0.109899,1.086779 0.500651,2.039237 1.160045,2.869585 0.671605,0.830348 1.477531,1.245522 2.405567,1.245522 0.573917,0 1.172256,-0.158743 1.782805,-0.48844 1.086779,-0.647183 1.624063,-1.892705 1.624063,-3.736566 0,-1.660696 -0.378541,-2.759686 -1.135623,-3.309181 z m -2.320089,4.383749 c -0.634972,0 -1.160045,-0.512862 -1.160045,-1.160045 0,-0.634972 0.512862,-1.160045 1.160045,-1.160045 0.634972,0 1.160045,0.512862 1.160045,1.160045 0,0.647183 -0.525073,1.160045 -1.160045,1.160045 z"
     fill="#5b4538"
     id="path7"
     style="fill:#000000;stroke-width:0;stroke-dasharray:none" />
  <path
     d="m 50.4138,88.361232 c 0.341908,0 0.671605,-0.06105 0.97688,-0.183165 0.305274,-0.12211 0.586127,-0.268642 0.842558,-0.464018 0.256431,-0.195376 0.48844,-0.415174 0.696027,-0.647183 0.207587,-0.24422 0.390752,-0.476229 0.537284,-0.73266 0.158743,-0.24422 0.280853,-0.476229 0.378541,-0.708238 0.09769,-0.219798 0.207587,-0.561706 0.207587,-0.561706 l -0.170954,-0.256431 c 0,0 -0.61055,0.97688 -0.97688,1.318788 -0.36633,0.341908 -0.769293,0.586128 -1.196678,0.744871 -0.439595,0.158743 -0.915824,0.232009 -1.416475,0.232009 -0.439596,0 -0.830348,-0.06105 -1.172256,-0.170954 -0.354119,-0.109899 -0.659394,-0.280853 -0.940247,-0.48844 -0.280853,-0.219798 -0.525073,-0.476229 -0.757082,-0.769293 -0.219798,-0.293064 -0.61055,-1.001302 -0.61055,-1.001302 l -0.146532,0.219798 c 0,0 0.378541,0.915825 0.634972,1.34321 0.24422,0.415174 0.525073,0.781504 0.842559,1.09899 0.317486,0.317486 0.659394,0.573917 1.050146,0.757082 0.36633,0.158743 0.781504,0.256431 1.2211,0.268642 z"
     fill="#5b4538"
     id="path8"
     style="fill:#000000;stroke-width:0;stroke-dasharray:none" />
  <path
     d="m 61.14739,73.988886 c -0.61055,-0.427385 -1.367632,-0.647183 -2.271246,-0.647183 -1.086779,0 -1.966093,0.329697 -2.649909,0.97688 -0.793715,0.720449 -1.09899,1.758384 -0.915825,3.089383 0.109899,1.086779 0.500651,2.039237 1.160045,2.869585 0.671605,0.830348 1.477653,1.245522 2.405689,1.245522 0.573917,0 1.172256,-0.158743 1.782806,-0.48844 1.086779,-0.647183 1.624063,-1.892705 1.624063,-3.736566 0.01221,-1.672907 -0.36633,-2.771897 -1.135623,-3.309181 z m -2.661998,4.591336 c -0.634972,0 -1.160045,-0.525073 -1.160045,-1.160045 0,-0.634972 0.512862,-1.160045 1.160045,-1.160045 0.634972,0 1.160045,0.512862 1.160045,1.160045 0,0.647183 -0.525073,1.160045 -1.160045,1.160045 z"
     fill="#5b4538"
     id="path9"
     style="fill:#000000;stroke-width:0;stroke-dasharray:none" />
  <path
     id="path10"
     style="fill:#000000;stroke-width:0;stroke-dasharray:none"
     d="m 47.590043,0.00751791 c -1.627306,0.029764 -3.254899,0.1513019 -4.882015,0.3863636 C 38.08006,1.0776971 32.084173,5.5341401 26.54038,5.9126811 c -3.929575,1.297758 -5.667352,2.912391 -6.906846,4.4932649 0.168867,-0.155916 0.348482,-0.298804 0.534231,-0.4269079 0.563839,-0.394687 1.612234,-0.52469 1.612234,-0.52469 0,0 -1.07638,0.293064 -1.552609,0.6105499 -0.525073,0.720447 -0.913821,1.183989 -1.304573,1.953282 -1.08673,2.173558 1.171588,2.063849 2.062991,3.248316 2.246824,1.807228 2.429511,7.729849 3.784932,14.336 1.40984,8.276359 2.401047,16.875309 7.045211,23.897515 -0.0046,-0.0045 -0.0077,-0.0095 -0.0095,-0.01197 v -0.0024 l -0.0024,-0.0024 v -0.0024 c -1.92e-4,-0.002 0,-0.0042 0,-0.0072 -4.884466,-5.714875 -6.898136,-15.556082 -8.595465,-23.84735 -1.34321,-6.581728 -2.492666,-12.19812 -4.715067,-13.968714 l -0.01197,-0.01197 c -0.280804,-0.36633 -0.439787,-0.795527 -0.500842,-1.247334 -0.07946,-0.565004 0.0023,-1.166881 0.205107,-1.757717 -1.415307,3.381515 -1.708596,6.753384 -0.949214,10.136084 2.026989,6.447407 5.14083,12.308782 6.105499,19.330106 2.136925,3.773199 2.282408,10.903944 7.166807,15.690656 0.109728,-0.05226 0.219684,-0.104111 0.329125,-0.155022 l 0.100166,4.307239 c 5.385051,-2.857374 18.864181,-9.928115 36.912038,2.466049 0.230037,-1.303546 0.368166,-2.607789 0.412598,-3.911336 0.282679,0.115394 0.564943,0.231269 0.846661,0.34582 1.880494,-0.818137 2.844112,-7.169001 4.114058,-13.079124 C 77.802679,37.306205 88.02462,29.601541 87.41407,19.869375 79.025114,3.4455831 67.276511,2.8594551 62.24558,1.5528781 57.355075,0.64621091 52.471916,-0.08186989 47.589996,0.00742311 Z M 18.185862,12.640654 c 0.08675,-0.207262 0.176683,-0.415139 0.271886,-0.622474 0.379428,-0.523674 0.747502,-1.065993 1.175786,-1.612234 -0.475006,0.438576 -0.875591,0.976601 -1.163861,1.562149 -0.111621,0.219884 -0.206124,0.446161 -0.283811,0.672559 z M 43.137322,1.5148121 c 0.272383,-0.0093 1.769636,0.331511 1.769636,0.331511 0,0 -1.648675,-0.03596 -2.332491,0.07394 -1.782806,0.402963 -1.575219,1.526756 -2.747475,4.054434 -0.781504,2.674209 -1.222244,5.9824349 -0.868125,10.0120639 1.526375,9.976386 3.396279,23.579915 5.020342,31.32169 l -0.08586,0.03578 C 41.023765,39.8711 37.94688,26.904069 37.470651,16.671252 c -0.183165,-4.02963 0.02432,-7.6452289 0.81804,-10.3316489 0.793715,-2.698632 2.1727,-4.457206 4.309625,-4.774692 0.174006,-0.02747 0.35431,-0.04379 0.539002,-0.05009 z m 12.625981,0.953985 0.09778,0.06201 c -3.284758,8.7552749 -3.72569,25.4214869 -4.116442,30.8065379 -0.170954,2.32009 0.281424,10.856341 0.281424,10.856341 0,0 0.211415,1.936081 0.219416,2.50421 -0.109894,-0.805929 -0.218934,-1.637805 -0.341044,-2.480362 -1.868283,-13.456522 -4.15155,-29.916292 3.858866,-41.7487389 z m 14.29784,1.51445 -0.02385,0.109704 c -1.184467,9.0117169 -5.715414,13.2255609 -7.400532,22.1395899 -0.626972,6.600299 -1.636084,20.794472 -1.636084,20.794472 0,0 -0.04759,1.225842 -0.06201,1.404741 -0.140146,-7.425243 0.0337,-14.81588 1.137624,-22.175364 1.257733,-7.607452 3.662156,-15.227401 7.984849,-22.2731469 z m -42.874439,2.757014 c 0.880814,-0.01786 1.94441,0.278373 2.895342,0.930135 l -0.07394,0.08586 c -1.062357,-0.720449 -1.488214,-0.682575 -2.40404,-0.560465 -0.37854,0.04884 -0.695454,0.170095 -0.939674,0.341049 -0.630148,0.659662 -0.555349,1.196731 -0.391135,2.027216 2.710842,3.6755109 4.773165,9.7694659 5.347082,16.2535069 0.720449,8.218002 -0.230197,17.32588 5.215909,23.773289 l -0.08586,0.07394 C 31.279867,43.180745 30.473368,34.059703 29.752919,25.829489 29.179002,19.357659 28.654407,13.434563 25.967987,9.7834741 c -0.561706,-0.757083 -0.734186,-1.378985 -0.648709,-1.867425 0.06106,-0.329697 0.232199,-0.586891 0.500841,-0.782267 0.256431,-0.195376 0.59872,-0.31844 1.001684,-0.367284 0.117531,-0.01526 0.239068,-0.02368 0.364899,-0.02623 z m 54.939913,7.9753049 c -3.895309,-0.146532 -8.842194,14.569439 -10.01445,18.244951 -1.291587,3.626393 -1.629203,7.448378 -2.098766,11.24513 -0.158743,3.553401 -0.465162,6.630668 -2.394499,8.645483 l -0.07394,-0.05963 c 1.904916,-1.990392 2.039905,-5.044668 2.210859,-8.585858 -0.04595,-3.908531 0.813942,-7.646946 2.113074,-11.295174 1.045758,-3.642121 5.180481,-18.10956 10.038301,-18.304573 0.102938,0.02091 0.17421,0.08708 0.219419,0.109667 z" />
  <defs
     id="defs65">
    <linearGradient
       id="paint0_linear_9_45"
       x1="57.122299"
       y1="58.737801"
       x2="255.226"
       y2="58.737801"
       gradientUnits="userSpaceOnUse">
      <stop
         stop-color="#3B2519"
         id="stop31" />
      <stop
         offset="0.0299"
         stop-color="#3F2719"
         id="stop32" />
      <stop
         offset="0.2736"
         stop-color="#5C331B"
         id="stop33" />
      <stop
         offset="0.4847"
         stop-color="#6E3B1D"
         id="stop34" />
      <stop
         offset="0.6382"
         stop-color="#743E1D"
         id="stop35" />
      <stop
         offset="0.7421"
         stop-color="#6F3C1C"
         id="stop36" />
      <stop
         offset="0.8624"
         stop-color="#61351A"
         id="stop37" />
      <stop
         offset="0.9905"
         stop-color="#4A2B17"
         id="stop38" />
      <stop
         offset="1"
         stop-color="#482A17"
         id="stop39" />
    </linearGradient>
    <linearGradient
       id="paint1_linear_9_45"
       x1="8.8355303"
       y1="28.462601"
       x2="66.658897"
       y2="28.462601"
       gradientUnits="userSpaceOnUse"
       gradientTransform="translate(14.65997,2.6347996)">
      <stop
         offset="0.0397"
         stop-color="#F9F9EC"
         id="stop40" />
      <stop
         offset="0.4183"
         stop-color="#F9F9EC"
         id="stop41" />
      <stop
         offset="0.4932"
         stop-color="#F3F1E2"
         id="stop42" />
      <stop
         offset="0.6217"
         stop-color="#E4DDC6"
         id="stop43" />
      <stop
         offset="0.7873"
         stop-color="#CCBC9A"
         id="stop44" />
      <stop
         offset="0.7969"
         stop-color="#CABA97"
         id="stop45" />
      <stop
         offset="1"
         stop-color="#BAA685"
         id="stop46" />
    </linearGradient>
    <linearGradient
       id="paint2_linear_9_45"
       x1="20.268999"
       y1="49.201599"
       x2="50.973499"
       y2="49.201599"
       gradientUnits="userSpaceOnUse"
       gradientTransform="translate(14.65997,2.6347996)">
      <stop
         stop-color="#F9F9EC"
         id="stop47" />
      <stop
         offset="0.0526"
         stop-color="#F9F9EC"
         id="stop48" />
      <stop
         offset="0.3844"
         stop-color="#F9F9EC"
         id="stop49" />
      <stop
         offset="0.5145"
         stop-color="#F5F4E5"
         id="stop50" />
      <stop
         offset="0.7094"
         stop-color="#EAE5D0"
         id="stop51" />
      <stop
         offset="0.9441"
         stop-color="#D9CCAF"
         id="stop52" />
      <stop
         offset="0.9987"
         stop-color="#D4C6A6"
         id="stop53" />
    </linearGradient>
    <linearGradient
       id="paint3_linear_9_45"
       x1="10.1621"
       y1="21.8836"
       x2="15.7323"
       y2="21.8836"
       gradientUnits="userSpaceOnUse">
      <stop
         stop-color="#E8DBCA"
         id="stop54" />
      <stop
         offset="1"
         stop-color="#F2ECDE"
         id="stop55" />
    </linearGradient>
    <linearGradient
       id="paint4_linear_9_45"
       x1="18.402"
       y1="15.8332"
       x2="21.459801"
       y2="20.2955"
       gradientUnits="userSpaceOnUse">
      <stop
         stop-color="#ECE1D1"
         id="stop56" />
      <stop
         offset="0.4318"
         stop-color="#EEE6D9"
         id="stop57" />
      <stop
         offset="1"
         stop-color="#EFE9DE"
         id="stop58" />
    </linearGradient>
    <linearGradient
       id="paint5_linear_9_45"
       x1="26.808399"
       y1="19.2871"
       x2="32.4725"
       y2="19.2871"
       gradientUnits="userSpaceOnUse">
      <stop
         stop-color="#ECE1D1"
         id="stop59" />
      <stop
         offset="1"
         stop-color="#EDE4D5"
         id="stop60" />
    </linearGradient>
    <linearGradient
       id="paint6_linear_9_45"
       x1="48.7244"
       y1="18.9074"
       x2="48.577702"
       y2="26.3957"
       gradientUnits="userSpaceOnUse"
       gradientTransform="translate(14.65997,2.6347996)">
      <stop
         stop-color="#BAA68A"
         id="stop61" />
      <stop
         offset="1"
         stop-color="#C7BAA0"
         id="stop62" />
    </linearGradient>
    <linearGradient
       id="paint7_linear_9_45"
       x1="52.062302"
       y1="29.1551"
       x2="62.1189"
       y2="29.1551"
       gradientUnits="userSpaceOnUse">
      <stop
         stop-color="#BDAE99"
         id="stop63" />
      <stop
         offset="0.2551"
         stop-color="#BFB19C"
         id="stop64" />
      <stop
         offset="1"
         stop-color="#C2B5A1"
         id="stop65" />
    </linearGradient>
  </defs>
</svg>
