<?xml version="1.0" encoding="UTF-8" standalone="no"?>
<svg
   version="1.0"
   width="2140pt"
   height="2140pt"
   viewBox="0 0 2140 2140"
   preserveAspectRatio="xMidYMid"
   id="svg81"
   sodipodi:docname="atcoder-logo.svg"
   inkscape:version="1.4.1 (93de688d07, 2025-03-30)"
   xmlns:inkscape="http://www.inkscape.org/namespaces/inkscape"
   xmlns:sodipodi="http://sodipodi.sourceforge.net/DTD/sodipodi-0.dtd"
   xmlns="http://www.w3.org/2000/svg"
   xmlns:svg="http://www.w3.org/2000/svg">
  <defs
     id="defs81" />
  <sodipodi:namedview
     id="namedview81"
     pagecolor="#ffffff"
     bordercolor="#000000"
     borderopacity="0.25"
     inkscape:showpageshadow="2"
     inkscape:pageopacity="0.0"
     inkscape:pagecheckerboard="0"
     inkscape:deskcolor="#d1d1d1"
     inkscape:document-units="pt"
     inkscape:zoom="0.21557121"
     inkscape:cx="1152.7514"
     inkscape:cy="1449.637"
     inkscape:window-width="1896"
     inkscape:window-height="1116"
     inkscape:window-x="0"
     inkscape:window-y="0"
     inkscape:window-maximized="1"
     inkscape:current-layer="svg81" />
  <g
     transform="matrix(0.1,0,0,-0.1,-186.77812,2228)"
     fill="#000000"
     stroke="none"
     id="g81">
    <path
       d="m 12523,19618 c -26,-44 -134,-191 -206,-281 -17,-22 -15,-61 63,-1120 44,-603 80,-1101 80,-1107 0,-6 39,-10 99,-10 h 98 l 6,48 c 3,26 41,524 83,1107 l 77,1061 -79,100 c -44,55 -102,134 -129,177 -26,42 -51,77 -54,77 -4,0 -20,-24 -38,-52 z"
       id="path1" />
    <path
       d="m 12100,19109 c -36,-33 -111,-98 -167,-145 -57,-47 -103,-92 -103,-100 0,-8 63,-406 140,-883 77,-477 140,-871 140,-874 0,-4 47,-7 105,-7 70,0 105,4 105,11 0,26 -151,2053 -153,2055 -1,1 -31,-25 -67,-57 z"
       id="path2" />
    <path
       d="m 12950,19148 c 0,-29 -138,-1918 -145,-1990 l -6,-58 h 105 104 l 6,28 c 3,15 67,405 141,867 74,462 137,849 139,860 4,16 -12,34 -76,85 -44,35 -120,101 -168,147 -48,46 -90,83 -94,83 -3,0 -6,-10 -6,-22 z"
       id="path3" />
    <path
       d="m 11611,18734 c -47,-29 -118,-70 -158,-91 -40,-21 -73,-44 -73,-52 0,-8 83,-345 185,-749 102,-404 185,-737 185,-739 0,-1 50,-3 110,-3 61,0 110,2 110,4 0,10 -271,1680 -273,1681 -1,1 -40,-22 -86,-51 z"
       id="path4" />
    <path
       d="m 13420,18779 c 0,-14 -258,-1624 -265,-1656 -5,-23 -4,-23 104,-23 h 110 l 10,38 c 6,20 91,357 190,749 l 179,712 -86,47 c -48,26 -122,69 -164,96 -43,26 -78,43 -78,37 z"
       id="path5" />
    <path
       d="m 11180,18515 c -30,-13 -97,-38 -148,-56 l -94,-31 6,-32 c 4,-17 89,-314 189,-661 l 183,-630 146,-3 146,-3 -181,721 c -99,396 -183,720 -186,719 -3,0 -31,-11 -61,-24 z"
       id="path6" />
    <path
       d="m 13876,18532 c -2,-4 -77,-298 -166,-652 -89,-355 -170,-675 -180,-712 l -19,-68 h 147 147 l 189,653 c 104,358 190,657 192,662 2,6 -49,29 -113,51 -65,23 -135,49 -155,58 -20,9 -39,12 -42,8 z"
       id="path7" />
    <path
       d="m 10440,18486 c 0,-5 509,-1349 512,-1351 6,-5 240,-36 244,-32 2,2 -87,288 -198,636 l -203,632 -40,10 c -54,14 -198,62 -262,88 -29,11 -53,19 -53,17 z"
       id="path8" />
    <path
       d="m 14588,18454 c -48,-19 -124,-45 -170,-58 -45,-13 -86,-30 -91,-37 -12,-21 -406,-1253 -402,-1258 6,-5 239,29 246,37 9,10 511,1343 507,1347 -1,1 -42,-13 -90,-31 z"
       id="path9" />
    <path
       d="m 9148,18164 c -35,-19 -58,-63 -58,-112 0,-31 -5,-41 -25,-52 -39,-21 -60,-75 -46,-120 16,-55 44,-75 102,-75 31,0 49,-4 49,-12 0,-6 2,-18 5,-26 5,-11 -4,-14 -39,-13 -68,1 -91,-26 -91,-107 0,-54 6,-72 43,-141 38,-70 41,-81 27,-89 -39,-21 -90,-75 -106,-112 -11,-24 -19,-64 -19,-99 v -60 l 33,31 c 46,44 69,53 130,53 100,0 163,-68 153,-166 -5,-64 -26,-104 -79,-158 -54,-54 -132,-98 -232,-131 -70,-24 -92,-27 -175,-23 -120,5 -185,33 -259,113 -48,53 -91,141 -91,186 0,36 27,84 68,121 43,39 93,54 143,44 l 31,-6 -20,33 c -30,48 -99,87 -166,94 l -56,6 v 41 c 0,51 -25,156 -46,199 -24,47 -63,85 -100,97 -27,9 -40,8 -69,-6 -20,-9 -40,-26 -46,-37 -11,-19 -12,-18 -30,9 l -18,28 27,18 c 33,21 62,73 62,109 0,32 -37,89 -70,107 -15,8 -43,11 -71,8 -42,-4 -47,-2 -62,23 -35,59 -128,78 -188,38 -47,-31 -71,-81 -65,-134 5,-35 3,-43 -10,-43 -9,0 -29,-14 -45,-31 -23,-25 -29,-40 -29,-76 0,-86 45,-129 132,-126 47,1 48,0 48,-28 0,-28 -2,-29 -46,-29 -37,0 -51,-5 -75,-29 -24,-25 -29,-37 -29,-80 0,-67 28,-146 80,-223 l 41,-61 -36,-32 c -47,-43 -75,-107 -75,-172 0,-29 2,-53 4,-53 3,0 18,13 34,29 61,61 173,66 237,10 49,-43 70,-107 70,-209 0,-72 -4,-93 -28,-141 -55,-113 -189,-210 -345,-250 -147,-37 -251,-19 -321,56 -68,74 -67,141 2,211 45,45 101,67 148,57 38,-7 37,6 -5,49 -53,54 -95,70 -180,66 l -73,-3 -11,68 c -29,169 -128,251 -210,174 -23,-22 -24,-22 -38,-2 -13,17 -12,21 15,42 42,33 56,81 37,126 -21,50 -56,71 -111,65 -38,-5 -45,-3 -51,14 -8,27 -63,58 -102,58 -74,0 -127,-58 -120,-131 2,-25 -1,-39 -8,-39 -6,0 -23,-12 -37,-26 -73,-73 -18,-192 83,-182 26,2 40,-1 40,-8 0,-7 2,-19 5,-27 5,-11 -4,-14 -39,-13 -67,1 -91,-26 -91,-103 0,-49 7,-72 42,-141 l 42,-83 -46,-41 c -58,-51 -82,-104 -83,-179 v -58 l 35,35 c 46,47 103,62 172,47 102,-23 185,-155 168,-269 -11,-84 -36,-143 -76,-183 -49,-49 -161,-105 -249,-125 -62,-14 -74,-14 -123,0 -37,11 -64,26 -81,47 -29,35 -33,46 -40,144 -7,95 -23,143 -56,177 -33,32 -62,36 -87,10 -17,-17 -20,-16 -64,30 -34,37 -52,48 -75,48 -49,0 -69,-31 -69,-106 0,-63 0,-64 -27,-64 -42,0 -60,-26 -56,-79 3,-25 8,-54 12,-64 7,-16 4,-15 -29,4 -33,20 -80,26 -145,19 -8,0 -33,2 -56,6 -25,4 -50,2 -63,-5 -44,-24 -16,-112 52,-165 l 32,-25 -44,-38 c -76,-65 -99,-155 -65,-256 33,-97 141,-180 275,-212 92,-21 369,-19 369,4 0,4 -34,12 -75,18 -189,31 -345,142 -345,248 0,42 36,91 83,114 75,36 168,44 329,27 263,-27 289,-28 365,-12 141,29 265,93 370,190 101,94 124,148 139,325 4,45 9,81 11,81 3,0 18,-9 34,-21 88,-62 266,-86 419,-55 97,20 249,74 331,117 160,86 286,259 328,451 l 16,76 58,-44 c 125,-94 255,-136 424,-135 92,0 114,4 211,36 150,52 286,124 362,193 71,64 135,155 151,216 6,23 13,46 14,53 2,7 48,-11 119,-46 233,-117 369,-143 541,-102 158,38 239,89 304,190 50,78 71,152 70,250 0,70 -2,81 -11,61 -40,-95 -74,-154 -122,-212 -43,-52 -70,-74 -125,-101 -102,-51 -207,-73 -291,-60 -131,21 -260,88 -293,153 -28,53 -19,138 19,192 42,61 97,90 157,85 26,-2 47,-2 47,1 0,3 -12,21 -26,40 -40,51 -121,85 -193,80 l -58,-4 -11,68 c -29,170 -128,252 -210,175 -23,-22 -24,-22 -38,-2 -13,17 -12,21 15,42 42,33 56,81 37,126 -21,50 -56,71 -111,65 -38,-5 -45,-3 -51,14 -15,49 -110,73 -166,42 z m 114,-75 c 24,-32 11,-75 -29,-90 -56,-21 -108,57 -67,102 25,27 72,21 96,-12 z m 159,-60 c 14,-27 -1,-64 -30,-72 -44,-11 -81,49 -49,81 20,20 66,14 79,-9 z m -270,-88 c 20,-16 22,-23 14,-47 -9,-24 -16,-29 -45,-29 -29,0 -36,5 -45,29 -8,24 -6,31 14,47 13,10 27,19 31,19 4,0 18,-9 31,-19 z m 216,-90 c 29,-41 42,-69 37,-80 -3,-9 -9,-51 -12,-94 l -5,-77 -51,48 c -28,27 -61,54 -73,60 -44,24 -53,219 -10,235 24,9 71,-29 114,-92 z m -1382,59 c 42,-46 10,-120 -52,-120 -42,0 -73,30 -73,70 0,62 84,95 125,50 z m 183,-78 c 17,-22 15,-52 -5,-74 -46,-51 -123,20 -80,74 23,30 60,30 85,0 z m 1388,1 c 27,-27 53,-95 62,-161 l 8,-59 -33,-19 c -41,-21 -91,-76 -108,-118 l -13,-30 -13,44 c -16,56 -17,202 -1,255 16,53 48,105 66,105 8,0 22,-8 32,-17 z m -1680,-122 c 16,-32 3,-64 -30,-76 -33,-11 -57,2 -70,38 -21,59 73,94 100,38 z m 179,-22 c 25,-23 58,-65 75,-94 24,-42 28,-57 21,-82 -5,-16 -12,-62 -16,-102 l -7,-72 -57,54 c -31,29 -66,59 -77,65 -41,22 -62,202 -28,250 22,31 38,28 89,-19 z m 1142,-10 c 60,-29 152,-124 192,-198 17,-33 29,-61 26,-61 -3,0 -20,8 -38,17 -22,11 -57,17 -110,17 -90,1 -90,1 -138,101 -30,62 -38,130 -16,138 23,10 41,7 84,-14 z m -868,-78 c 31,-31 51,-77 67,-149 23,-110 21,-118 -33,-146 -52,-26 -87,-55 -119,-100 l -21,-29 -13,67 c -18,94 -9,228 19,291 38,85 64,102 100,66 z m -424,-170 c 52,-23 119,-80 172,-143 43,-53 98,-146 91,-154 -3,-2 -20,3 -38,12 -25,13 -51,16 -122,12 l -90,-6 -30,42 c -69,93 -104,208 -73,239 21,22 40,21 90,-2 z m -1042,-228 c 31,-36 21,-88 -21,-104 -55,-21 -106,58 -66,102 21,24 66,25 87,2 z m 167,-73 c 14,-26 5,-57 -21,-71 -43,-23 -92,44 -57,79 20,20 66,15 78,-8 z m -269,-89 c 20,-16 22,-23 14,-47 -9,-24 -16,-29 -45,-29 -29,0 -36,5 -45,29 -8,24 -6,31 14,47 13,10 27,19 31,19 4,0 18,-9 31,-19 z m 216,-90 c 28,-40 42,-70 38,-80 -4,-9 -9,-51 -12,-94 l -6,-77 -51,48 c -28,27 -61,54 -73,60 -44,24 -53,219 -10,235 24,9 71,-29 114,-92 z m 182,-11 c 24,-12 58,-93 70,-166 9,-55 8,-60 -12,-74 -52,-37 -87,-74 -108,-117 -21,-43 -23,-45 -31,-24 -50,137 -14,372 60,390 2,1 11,-3 21,-9 z m -366,-154 c 57,-24 133,-93 181,-164 25,-38 46,-74 46,-80 0,-7 -14,-5 -37,5 -27,11 -58,14 -110,11 -70,-5 -72,-4 -93,24 -57,77 -85,179 -58,206 15,15 31,15 71,-2 z m -621,-643 c 52,-56 57,-72 46,-140 l -11,-63 -21,23 c -12,12 -34,32 -48,44 -29,24 -44,84 -33,133 8,38 33,39 67,3 z m 167,-59 c 39,-50 53,-201 21,-239 -7,-9 -29,-15 -51,-15 h -38 l -12,58 c -13,64 -1,157 26,198 20,30 29,30 54,-2 z m -230,-109 c 38,-26 87,-80 110,-122 12,-23 11,-23 -63,-23 h -76 l -30,53 c -16,28 -30,67 -30,85 0,28 3,32 25,32 14,0 43,-11 64,-25 z m -330,-86 c 19,-7 31,-18 31,-28 0,-10 13,-36 29,-59 l 30,-40 -25,-6 c -30,-8 -83,30 -115,80 -34,56 -15,76 50,53 z m 149,-9 c 46,-21 112,-68 112,-80 0,-4 -30,-10 -66,-14 -60,-6 -69,-5 -90,15 -34,32 -51,78 -33,90 20,12 28,11 77,-11 z"
       id="path10" />
    <path
       d="m 15843,18161 c -17,-11 -34,-28 -37,-39 -6,-16 -14,-18 -56,-14 -44,4 -52,2 -80,-26 -25,-25 -30,-38 -30,-78 0,-40 5,-51 35,-80 32,-29 34,-36 23,-53 -12,-20 -13,-20 -38,4 -83,80 -179,0 -211,-175 l -12,-65 h -72 c -62,0 -78,-4 -119,-30 -26,-16 -56,-44 -67,-61 l -19,-32 43,5 c 101,12 197,-84 197,-197 0,-87 -34,-130 -140,-179 -76,-35 -169,-61 -221,-61 -51,0 -178,34 -236,64 -69,34 -168,144 -209,230 -19,39 -34,76 -34,83 0,7 -5,13 -11,13 -8,0 -10,-28 -7,-94 4,-82 10,-105 40,-168 69,-143 153,-207 333,-249 174,-41 302,-17 535,99 63,31 118,58 121,60 4,1 9,-13 12,-32 15,-92 111,-224 216,-295 127,-86 326,-166 448,-179 184,-20 341,22 490,132 l 62,45 6,-37 c 41,-245 189,-432 418,-529 265,-112 494,-123 654,-33 29,17 55,30 58,30 3,0 5,-34 5,-75 0,-140 29,-222 108,-307 130,-139 372,-239 541,-223 31,3 126,12 211,20 227,23 354,-1 400,-77 68,-112 -49,-243 -268,-299 -41,-10 -88,-19 -104,-19 -15,0 -28,-4 -28,-9 0,-24 271,-29 369,-6 180,43 291,156 291,298 0,74 -20,116 -77,167 l -45,39 37,32 c 59,52 84,126 53,157 -13,13 -72,15 -103,3 -10,-4 -32,-3 -47,3 -23,9 -41,7 -89,-10 l -60,-21 8,31 c 18,76 1,116 -52,116 h -32 l 5,50 c 12,126 -77,163 -153,64 -31,-41 -32,-41 -54,-22 -33,26 -59,23 -91,-12 -33,-35 -49,-91 -54,-185 -2,-38 -4,-75 -5,-82 -2,-20 -52,-73 -85,-90 -115,-60 -379,47 -448,181 -33,64 -37,187 -8,254 35,81 117,142 190,142 41,0 98,-26 127,-57 l 33,-34 v 61 c 0,88 -36,154 -110,201 l -24,16 32,49 c 93,145 80,279 -27,279 -38,0 -41,2 -41,26 0,26 2,26 45,22 41,-5 47,-3 80,30 25,25 35,44 35,66 0,42 -22,84 -54,101 -22,11 -26,20 -26,57 0,50 -21,88 -61,109 -56,28 -132,9 -159,-41 -10,-19 -18,-21 -59,-17 -41,4 -50,1 -79,-26 -27,-26 -32,-37 -32,-77 0,-42 5,-52 35,-81 32,-29 34,-36 23,-53 -12,-20 -13,-20 -38,4 -83,80 -183,-3 -212,-176 l -10,-64 -73,3 c -54,3 -82,-1 -107,-13 -38,-20 -85,-61 -100,-89 -9,-17 -7,-18 20,-13 88,18 202,-74 202,-163 0,-63 -64,-138 -139,-165 -129,-45 -364,20 -486,136 -78,74 -117,156 -119,251 -2,145 52,239 147,253 67,10 130,-9 167,-52 l 30,-34 v 62 c 0,75 -26,136 -75,177 l -34,27 31,45 c 68,99 104,213 87,273 -15,53 -46,77 -101,77 -39,0 -48,3 -48,18 0,30 14,38 62,37 57,0 97,27 117,80 20,51 0,110 -48,143 -32,20 -35,27 -33,65 8,140 -176,201 -253,84 -13,-21 -21,-23 -63,-20 -126,12 -184,-134 -86,-215 35,-29 36,-30 19,-56 l -17,-26 -19,24 c -39,50 -112,53 -163,8 -44,-40 -96,-187 -96,-274 0,-36 -2,-38 -32,-38 -75,0 -167,-52 -199,-111 -8,-17 -6,-18 20,-13 50,10 100,-5 142,-43 77,-70 86,-122 40,-218 -35,-73 -108,-146 -176,-176 -69,-31 -209,-38 -290,-14 -139,40 -273,133 -318,220 -27,53 -28,129 -1,175 50,88 201,95 270,13 l 22,-26 7,32 c 12,57 -13,129 -64,181 -25,26 -55,52 -65,57 -19,10 -18,13 12,60 93,144 80,278 -27,278 -38,0 -41,2 -41,26 0,25 2,26 43,22 36,-4 48,-1 75,22 57,48 52,136 -9,172 -25,15 -29,24 -29,61 0,23 -7,54 -16,68 -36,54 -113,69 -171,35 z m 103,-49 c 42,-28 35,-95 -13,-113 -56,-21 -108,57 -67,102 17,19 59,25 80,11 z m -168,-74 c 19,-19 14,-55 -9,-71 -26,-19 -58,-10 -71,19 -20,44 46,86 80,52 z m 254,-95 c 33,-30 17,-83 -26,-83 -23,0 -56,27 -56,47 0,16 36,53 52,53 6,0 20,-7 30,-17 z m -145,-24 c 16,-30 16,-82 2,-148 -8,-41 -17,-54 -50,-77 -22,-15 -52,-42 -68,-59 l -28,-32 -12,94 c -12,93 -12,94 13,137 29,50 102,119 119,113 7,-2 18,-14 24,-28 z m 1355,-6 c 24,-22 24,-77 -2,-103 -42,-42 -120,-12 -120,48 0,45 26,72 67,72 20,0 45,-7 55,-17 z m -195,-94 c 13,-26 2,-53 -30,-73 -23,-15 -65,8 -73,40 -6,22 -2,32 20,50 31,27 64,21 83,-17 z m -1416,1 c 24,-33 49,-132 49,-195 0,-63 -20,-165 -31,-165 -5,0 -9,6 -9,13 0,20 -65,92 -105,117 -29,18 -35,28 -35,55 0,49 35,154 61,181 28,29 46,28 70,-6 z m 1701,-97 c 22,-20 23,-51 1,-75 -31,-35 -93,-10 -93,38 0,48 55,70 92,37 z m -170,-15 c 15,-28 14,-139 -1,-194 -8,-30 -22,-49 -51,-69 -22,-15 -58,-47 -80,-71 l -40,-44 v 35 c 0,19 -5,68 -11,109 -11,72 -10,76 17,126 32,59 105,130 133,130 11,0 26,-10 33,-22 z m -1146,-20 c 21,-33 -15,-146 -67,-213 -20,-24 -25,-26 -73,-20 -38,5 -66,2 -109,-13 -31,-10 -57,-15 -57,-10 0,24 47,94 102,153 83,90 182,139 204,103 z m 843,-92 c 38,-40 61,-135 60,-244 0,-54 -6,-115 -13,-137 l -12,-40 -23,38 c -22,37 -113,107 -138,107 -21,0 -23,17 -13,91 11,79 39,151 72,186 27,29 39,29 67,-1 z m 446,-163 c 33,-32 -10,-168 -79,-250 l -26,-31 -88,6 c -69,3 -95,1 -120,-12 -17,-9 -34,-16 -37,-16 -3,0 8,27 25,59 49,99 174,220 255,249 42,15 51,14 70,-5 z m 1040,-227 c 22,-16 25,-71 4,-90 -26,-26 -55,-27 -82,-5 -68,52 9,146 78,95 z m -177,-68 c 19,-19 14,-55 -9,-71 -26,-19 -58,-10 -71,19 -20,44 46,86 80,52 z m 250,-94 c 38,-26 23,-84 -22,-84 -23,0 -56,27 -56,47 0,14 35,53 48,53 4,0 18,-7 30,-16 z m -141,-25 c 28,-54 7,-188 -34,-215 -15,-9 -45,-34 -69,-56 l -42,-39 -6,38 c -18,126 -18,140 2,180 23,45 107,126 125,120 7,-2 18,-14 24,-28 z m -256,-99 c 47,-64 61,-233 28,-345 l -11,-40 -23,46 c -24,45 -95,119 -116,119 -14,0 -7,92 11,152 13,46 57,100 78,96 8,-2 23,-14 33,-28 z m 387,-164 c 4,-44 -17,-101 -58,-161 l -29,-42 -73,5 c -53,3 -84,0 -111,-11 -20,-9 -37,-14 -37,-11 0,21 53,100 104,152 66,69 136,113 176,109 21,-2 25,-8 28,-41 z m 608,-612 c 4,-14 4,-46 0,-71 -5,-37 -14,-52 -53,-88 l -48,-43 -8,56 c -10,69 -5,93 34,137 37,42 66,46 75,9 z m -172,-73 c 23,-40 32,-142 17,-198 -11,-41 -13,-43 -50,-43 -23,0 -44,6 -51,16 -19,22 -17,150 4,198 32,75 48,81 80,27 z m 262,-84 c 6,-17 -20,-91 -46,-128 -20,-27 -25,-29 -91,-29 -38,0 -69,2 -69,5 0,28 87,127 135,153 27,15 65,15 71,-1 z m 158,-93 c 25,-10 19,-41 -16,-79 l -33,-35 -68,6 -68,7 28,29 c 29,31 70,56 113,69 14,4 26,8 27,8 1,1 8,-2 17,-5 z m 144,-21 c 2,-16 -11,-37 -47,-73 -51,-50 -65,-57 -90,-41 -11,7 -9,15 13,43 14,19 26,44 26,56 0,41 92,55 98,15 z"
       id="path11" />
    <path
       d="m 10950,17018 c 0,-8 189,-600 192,-604 3,-2 323,65 712,150 l 707,154 712,-154 c 392,-84 715,-150 718,-146 6,7 179,583 179,595 0,4 -724,7 -1610,7 -885,0 -1610,-1 -1610,-2 z"
       id="path12" />
    <path
       d="m 8885,16189 c -1017,-401 -1857,-731 -1865,-735 -21,-8 88,-107 110,-99 8,3 835,328 1837,722 l 1822,716 -21,56 c -11,31 -23,59 -27,62 -3,3 -838,-322 -1856,-722 z"
       id="path13" />
    <path
       d="m 14377,16913 c -16,-28 -38,-116 -31,-122 5,-5 832,-331 1837,-726 l 1828,-718 49,48 c 28,27 47,52 42,56 -4,4 -839,334 -1857,734 -1017,400 -1853,729 -1857,731 -4,2 -9,1 -11,-3 z"
       id="path14" />
    <path
       d="m 9608,16874 c -36,-19 -48,-43 -48,-94 0,-30 6,-47 24,-65 68,-68 176,-25 176,69 -1,83 -79,130 -152,90 z"
       id="path15" />
    <path
       d="m 15424,16880 c -32,-13 -64,-59 -64,-92 0,-69 56,-117 123,-104 90,17 112,139 33,187 -33,20 -58,23 -92,9 z"
       id="path16" />
    <path
       d="m 9085,16050 c -935,-362 -1749,-677 -1808,-700 -59,-23 -107,-45 -105,-49 2,-5 59,-59 128,-121 69,-63 141,-129 161,-147 l 35,-34 1720,672 c 945,369 1722,674 1726,678 4,4 -22,86 -58,184 -50,133 -70,177 -83,176 -9,0 -781,-297 -1716,-659 z m 1499,389 c 53,-47 59,-77 21,-114 -31,-32 -50,-31 -82,1 -23,23 -25,31 -19,75 8,56 15,79 26,79 4,0 28,-18 54,-41 z m -279,-110 c 32,-30 45,-49 45,-69 0,-58 -76,-84 -113,-39 -15,19 -18,33 -13,71 8,58 15,78 27,78 5,0 30,-19 54,-41 z m -272,-118 c 41,-39 48,-73 20,-103 -23,-26 -78,-24 -97,4 -19,27 -20,41 -5,108 12,57 11,57 82,-9 z m -280,-104 c 26,-24 37,-43 37,-63 0,-59 -68,-86 -111,-43 -21,21 -22,55 -2,136 6,27 20,22 76,-30 z m -279,-111 c 26,-24 36,-42 36,-63 0,-63 -74,-84 -112,-32 -18,24 -19,31 -8,87 14,70 19,70 84,8 z m -291,-97 c 38,-33 47,-47 47,-73 0,-65 -73,-88 -112,-36 -16,22 -17,32 -7,88 6,34 14,62 18,62 3,0 27,-18 54,-41 z m -279,-110 c 37,-33 46,-47 46,-74 0,-24 -7,-39 -22,-49 -51,-36 -98,-7 -98,59 0,52 10,105 20,105 4,0 28,-18 54,-41 z m -273,-118 c 42,-41 50,-53 44,-73 -8,-28 -41,-58 -64,-58 -37,0 -61,29 -61,74 0,56 10,106 21,106 5,0 32,-22 60,-49 z m -279,-110 c 54,-54 57,-78 16,-113 -43,-37 -98,-9 -98,50 0,57 11,112 23,112 5,0 32,-22 59,-49 z m -296,-92 c 51,-40 67,-70 54,-103 -21,-56 -102,-57 -116,-1 -8,31 4,135 15,135 5,0 26,-14 47,-31 z m -262,-122 c 53,-50 58,-76 21,-112 -30,-31 -44,-31 -80,-3 -26,20 -27,25 -22,79 5,59 12,79 26,79 5,0 29,-19 55,-43 z"
       id="path17" />
    <path
       d="m 14238,16533 c -36,-98 -63,-181 -60,-184 9,-8 3423,-1341 3439,-1343 7,0 87,66 178,149 136,123 163,151 148,157 -93,39 -3619,1398 -3627,1398 -6,0 -41,-80 -78,-177 z m 373,-89 c 15,-67 10,-102 -17,-123 -15,-12 -33,-21 -41,-21 -22,0 -63,47 -63,71 0,25 86,112 104,106 6,-2 14,-17 17,-33 z m 285,-151 c 5,-51 4,-60 -15,-77 -28,-25 -71,-24 -93,4 -29,36 -22,60 34,113 59,56 65,53 74,-40 z m 280,-100 c 8,-70 -11,-103 -61,-103 -24,0 -39,7 -49,22 -27,39 -19,63 36,113 58,52 63,50 74,-32 z m 283,-138 c 2,-67 -64,-100 -109,-55 -34,34 -25,63 33,115 l 52,48 12,-39 c 6,-22 12,-53 12,-69 z m 277,-94 c 5,-41 3,-52 -15,-70 -42,-42 -112,-15 -111,44 1,24 12,39 64,84 38,33 40,33 47,12 5,-11 11,-43 15,-70 z m 279,-105 c 7,-41 4,-50 -16,-72 -27,-29 -62,-31 -89,-4 -38,38 -25,77 38,126 52,40 54,39 67,-50 z m 274,-76 c 15,-68 14,-73 -10,-104 -25,-31 -61,-34 -89,-6 -33,33 -26,68 26,117 26,24 50,43 55,43 4,0 12,-23 18,-50 z m 275,-87 c 18,-91 18,-98 -4,-126 -26,-32 -62,-35 -90,-7 -35,35 -26,73 28,119 26,23 50,41 54,41 3,0 9,-12 12,-27 z m 282,-120 c 14,-70 10,-104 -15,-124 -30,-24 -56,-24 -81,1 -35,35 -26,73 26,119 26,23 50,41 55,41 4,0 11,-17 15,-37 z m 282,-130 c 11,-64 3,-96 -27,-112 -29,-16 -49,-13 -71,9 -34,34 -26,72 25,119 24,22 49,41 54,41 5,0 13,-26 19,-57 z m 276,-84 c 3,-17 6,-51 6,-75 0,-52 -30,-79 -74,-68 -34,8 -61,56 -47,82 12,23 88,92 100,92 5,0 11,-14 15,-31 z"
       id="path18" />
    <path
       d="m 8428,16464 c -35,-18 -48,-43 -48,-89 0,-47 14,-71 52,-91 67,-35 148,13 148,88 0,50 -13,74 -50,93 -36,19 -67,19 -102,-1 z"
       id="path19" />
    <path
       d="m 16591,16467 c -80,-47 -58,-175 33,-193 98,-18 163,108 91,176 -28,27 -91,35 -124,17 z"
       id="path20" />
    <path
       d="m 12380,16374 c -85,-30 -434,-148 -775,-263 -2237,-755 -3776,-1301 -3839,-1362 -13,-12 9,-551 34,-849 145,-1683 597,-3704 1087,-4850 359,-841 947,-1744 1678,-2580 566,-646 1355,-1389 1918,-1804 l 77,-57 43,30 c 140,96 550,436 832,691 197,177 669,644 855,845 928,1004 1612,2034 2011,3033 118,293 259,721 373,1127 378,1349 672,3163 679,4188 l 2,231 -90,39 c -211,91 -832,317 -1770,642 -1227,425 -2913,995 -2940,994 -11,-1 -90,-25 -175,-55 z m 1104,-468 c 2089,-705 3130,-1070 3557,-1249 l 104,-44 -2,-179 c -7,-602 -139,-1640 -334,-2619 -225,-1136 -511,-2116 -814,-2790 -540,-1205 -1495,-2453 -2720,-3555 -281,-252 -687,-589 -711,-590 -45,-1 -695,558 -1049,901 -1171,1135 -1981,2261 -2467,3426 -463,1112 -896,3061 -1038,4670 -25,293 -45,722 -34,733 26,26 715,284 1399,525 1119,394 3170,1087 3194,1079 8,-3 420,-141 915,-308 z"
       id="path21" />
    <path
       d="M 11940,15801 C 9861,15098 8567,14643 8276,14512 l -59,-26 7,-211 c 49,-1515 506,-3742 1013,-4935 522,-1227 1522,-2515 2809,-3616 171,-147 468,-382 500,-396 19,-9 38,2 141,80 548,419 1197,1035 1708,1622 591,679 1092,1436 1417,2145 392,851 762,2292 962,3745 77,554 126,1118 126,1446 v 123 l -47,21 c -266,120 -1554,574 -3313,1169 -344,117 -703,239 -798,271 -95,33 -176,60 -180,59 -4,0 -284,-94 -622,-208 z m 1131,-125 c 1799,-610 2986,-1024 3485,-1217 l 187,-73 -6,-210 c -27,-874 -252,-2284 -542,-3386 -295,-1126 -599,-1828 -1146,-2650 -455,-684 -1005,-1315 -1735,-1990 -359,-333 -721,-640 -754,-640 -19,0 -287,215 -480,385 -473,416 -984,938 -1369,1400 -697,834 -1184,1661 -1495,2537 -419,1183 -788,3116 -832,4363 l -7,190 149,58 c 435,171 1463,531 3459,1211 314,107 571,195 571,195 1,1 233,-77 515,-173 z"
       id="path22" />
    <path
       d="m 12155,14529 c -262,-206 -285,-226 -285,-251 0,-35 32,-39 295,-36 l 255,3 27,28 28,27 3,181 c 4,207 -2,229 -61,229 -26,-1 -74,-34 -262,-181 z"
       id="path23" />
    <path
       d="m 12659,14693 c -10,-12 -15,-59 -17,-177 -4,-187 4,-228 51,-256 29,-18 52,-20 283,-20 216,0 253,2 264,16 10,10 11,22 4,39 -5,13 -120,110 -259,219 -204,160 -256,196 -281,196 -17,0 -38,-7 -45,-17 z"
       id="path24" />
    <path
       d="m 11500,14472 c -494,-235 -488,-226 -172,-230 303,-3 280,-14 468,221 79,98 141,183 138,188 -3,5 -13,9 -22,8 -9,0 -195,-84 -412,-187 z"
       id="path25" />
    <path
       d="m 13190,14647 c 0,-7 61,-89 134,-182 112,-141 144,-175 187,-197 l 51,-28 h 224 c 199,0 225,2 231,16 4,10 -1,22 -10,29 -30,21 -785,375 -801,375 -9,0 -16,-6 -16,-13 z"
       id="path26" />
    <path
       d="m 10830,14409 c -173,-71 -319,-134 -324,-139 -24,-24 13,-32 126,-28 87,3 124,9 159,25 36,16 339,225 384,265 30,26 -64,-7 -345,-123 z"
       id="path27" />
    <path
       d="m 13954,14531 c 16,-26 355,-257 400,-273 56,-19 260,-26 271,-8 3,5 -5,16 -17,24 -27,18 -632,266 -648,266 -6,0 -9,-4 -6,-9 z"
       id="path28" />
    <path
       d="m 10150,14048 c -48,-19 -93,-59 -393,-357 -311,-308 -338,-338 -335,-366 l 3,-30 301,-3 c 298,-2 301,-2 345,21 40,21 65,56 266,363 162,246 222,346 221,364 l -3,25 -175,2 c -157,2 -181,0 -230,-19 z"
       id="path29" />
    <path
       d="m 10840,14043 c -49,-26 -69,-51 -286,-351 -237,-326 -255,-357 -222,-390 9,-9 121,-12 440,-12 465,0 463,0 507,55 11,15 68,172 127,349 106,318 108,324 91,350 l -17,26 h -294 -294 z"
       id="path30" />
    <path
       d="m 11721,14053 c -12,-10 -43,-72 -70,-138 -64,-157 -181,-517 -181,-555 0,-17 9,-38 22,-50 21,-19 33,-20 464,-20 310,0 451,3 468,11 52,24 56,50 56,384 0,325 -3,350 -49,375 -13,6 -144,10 -354,10 -304,0 -337,-2 -356,-17 z"
       id="path31" />
    <path
       d="m 12677,14044 c -16,-16 -28,-42 -32,-67 -4,-23 -5,-174 -3,-335 l 3,-294 33,-29 32,-29 h 450 c 437,0 451,1 470,20 31,31 25,71 -35,259 -102,314 -174,486 -209,495 -11,3 -170,6 -352,6 h -331 z"
       id="path32" />
    <path
       d="m 13633,14058 c -6,-7 -13,-21 -16,-30 -8,-22 207,-664 230,-690 43,-48 46,-48 502,-48 377,0 431,2 445,16 9,8 16,24 16,34 0,15 -411,597 -469,664 -9,10 -38,29 -66,42 -49,23 -57,24 -341,24 -222,0 -294,-3 -301,-12 z"
       id="path33" />
    <path
       d="m 14571,14056 c -7,-8 -11,-21 -9,-29 2,-8 102,-165 222,-349 154,-235 230,-342 254,-359 35,-24 37,-24 340,-27 312,-3 332,-1 332,36 0,26 -655,676 -714,709 -50,27 -55,28 -232,31 -152,3 -182,1 -193,-12 z"
       id="path34" />
    <path
       d="m 9299,13099 c -20,-12 -43,-34 -52,-49 -9,-15 -55,-162 -101,-326 -88,-313 -91,-340 -49,-371 13,-10 103,-13 369,-13 h 352 l 31,25 c 16,14 32,34 35,43 14,44 116,610 116,643 0,69 -3,69 -355,69 -296,0 -312,-1 -346,-21 z"
       id="path35" />
    <path
       d="m 10255,13110 c -11,-4 -32,-21 -48,-37 -24,-26 -33,-57 -87,-328 -33,-165 -60,-312 -60,-327 0,-17 10,-39 25,-53 l 24,-25 h 498 c 457,0 500,2 519,18 12,9 27,27 33,38 13,27 74,651 65,667 -4,7 -16,22 -27,35 l -20,22 -451,-1 c -248,0 -460,-4 -471,-9 z"
       id="path36" />
    <path
       d="m 11435,13087 c -40,-40 -38,-29 -70,-364 -31,-329 -31,-324 1,-357 l 27,-26 h 509 c 330,0 516,4 529,10 46,25 49,50 49,375 0,334 -4,360 -56,384 -17,8 -164,11 -490,11 h -466 z"
       id="path37" />
    <path
       d="m 12678,13091 -33,-29 -3,-294 c -2,-161 -1,-312 3,-335 4,-25 16,-51 32,-67 l 26,-26 h 514 514 l 24,25 c 20,19 25,34 25,72 0,97 -53,589 -66,618 -30,66 -22,65 -538,65 h -466 z"
       id="path38" />
    <path
       d="m 13923,13096 c -24,-21 -28,-31 -26,-73 3,-64 52,-582 58,-609 2,-11 17,-33 31,-47 l 27,-27 h 502 502 l 21,23 c 14,15 22,36 22,58 0,54 -109,590 -127,627 -9,18 -31,41 -48,52 -31,19 -52,20 -483,20 h -451 z"
       id="path39" />
    <path
       d="m 15140,13100 c -11,-11 -20,-32 -20,-48 0,-15 27,-169 59,-342 58,-307 61,-316 91,-342 l 30,-28 h 353 c 385,0 389,1 401,58 8,34 -156,622 -184,662 -41,57 -58,60 -399,60 -298,0 -312,-1 -331,-20 z"
       id="path40" />
    <path
       d="m 9089,12141 c -16,-16 -29,-38 -29,-48 0,-37 158,-621 175,-646 9,-14 36,-35 60,-47 41,-20 56,-21 348,-18 284,3 306,4 326,22 14,12 21,31 21,54 0,46 -98,609 -112,646 -6,15 -25,37 -42,47 -29,18 -56,19 -374,19 h -344 z"
       id="path41" />
    <path
       d="m 10105,12158 c -32,-17 -45,-39 -45,-78 0,-20 24,-165 54,-324 57,-308 63,-323 126,-358 33,-17 61,-18 482,-16 l 446,3 26,24 c 33,31 33,30 0,396 -27,309 -31,325 -85,352 -32,17 -974,18 -1004,1 z"
       id="path42" />
    <path
       d="m 11369,12141 c -36,-37 -36,-29 -3,-391 28,-311 30,-319 95,-352 31,-16 75,-18 482,-18 492,0 491,0 522,60 14,26 15,77 13,351 l -3,321 -33,29 -32,29 h -506 -506 z"
       id="path43" />
    <path
       d="m 12700,12157 c -14,-7 -33,-28 -42,-47 -16,-31 -18,-69 -18,-333 0,-239 3,-305 15,-333 26,-63 31,-64 531,-64 492,0 498,1 530,62 10,19 24,121 40,296 35,375 35,369 -4,403 l -32,29 h -498 c -377,0 -503,-3 -522,-13 z"
       id="path44" />
    <path
       d="m 14004,12151 c -17,-10 -36,-32 -42,-47 -6,-16 -23,-169 -38,-341 -25,-295 -26,-314 -10,-338 9,-14 28,-30 42,-35 15,-6 206,-10 455,-10 463,0 469,1 518,53 21,23 32,69 83,339 49,263 57,317 47,341 -24,59 -10,57 -539,57 -457,0 -487,-1 -516,-19 z"
       id="path45" />
    <path
       d="m 15288,12152 c -16,-9 -34,-30 -41,-47 -8,-16 -38,-169 -67,-338 -57,-331 -58,-350 -10,-374 19,-9 112,-13 362,-13 h 337 l 19,53 c 27,72 172,628 172,658 -1,28 -16,51 -47,67 -15,9 -121,12 -360,12 -301,-1 -341,-2 -365,-18 z"
       id="path46" />
    <path
       d="m 9409,11201 c -18,-15 -21,-23 -14,-39 12,-24 620,-649 682,-699 l 42,-35 192,2 c 197,1 219,5 219,41 0,25 -414,678 -446,705 -48,39 -89,44 -377,44 -254,0 -277,-1 -298,-19 z"
       id="path47" />
    <path
       d="m 10323,11205 c -47,-33 -55,-19 315,-549 62,-89 125,-168 144,-180 63,-43 89,-46 382,-46 310,0 326,3 326,59 0,15 -47,172 -105,349 -101,309 -107,322 -142,349 l -36,28 -431,3 c -380,2 -434,1 -453,-13 z"
       id="path48" />
    <path
       d="m 11500,11207 c -49,-25 -48,-53 4,-225 58,-190 126,-381 171,-479 l 34,-73 h 350 351 l 32,29 33,29 3,321 c 2,274 1,325 -13,351 -31,60 -31,60 -507,60 -328,0 -439,-3 -458,-13 z"
       id="path49" />
    <path
       d="m 12702,11205 c -58,-26 -62,-48 -62,-382 0,-264 2,-302 18,-333 29,-59 33,-60 413,-60 h 346 l 28,63 c 75,173 215,598 215,656 0,16 -9,36 -21,47 -20,18 -44,19 -463,21 -366,2 -447,0 -474,-12 z"
       id="path50" />
    <path
       d="m 13922,11213 c -13,-3 -37,-19 -54,-36 -26,-27 -48,-83 -134,-347 -57,-173 -104,-325 -104,-337 0,-13 9,-32 20,-43 20,-20 30,-21 318,-18 297,3 298,3 347,28 46,24 66,49 277,350 158,225 228,333 228,352 0,58 -4,58 -460,57 -228,-1 -425,-4 -438,-6 z"
       id="path51" />
    <path
       d="m 15083,11201 c -23,-11 -51,-30 -62,-43 -39,-44 -431,-672 -431,-690 0,-31 34,-37 223,-39 175,-1 187,0 215,20 58,41 692,694 699,719 12,49 -5,52 -316,52 -260,0 -290,-2 -328,-19 z"
       id="path52" />
    <path
       d="m 10440,10246 c 0,-16 38,-33 428,-195 161,-68 297,-121 303,-119 16,5 -343,267 -410,300 -52,26 -64,28 -188,28 -106,0 -133,-3 -133,-14 z"
       id="path53" />
    <path
       d="m 11056,10252 c -3,-5 0,-16 7,-25 12,-15 803,-403 843,-413 12,-3 25,-1 28,4 8,14 -275,374 -321,409 l -36,28 -258,3 c -145,2 -260,-1 -263,-6 z"
       id="path54" />
    <path
       d="m 11857,10253 c -15,-15 -5,-51 21,-75 15,-14 136,-114 270,-222 259,-209 283,-222 316,-174 13,18 16,57 16,211 0,199 -7,234 -49,257 -22,11 -563,15 -574,3 z"
       id="path55" />
    <path
       d="m 12678,10235 c -14,-14 -28,-39 -32,-56 -10,-50 -7,-355 4,-383 10,-29 51,-43 81,-30 10,5 133,101 274,214 358,288 358,280 -23,280 h -279 z"
       id="path56" />
    <path
       d="m 13525,10237 c -28,-16 -85,-80 -187,-210 -82,-104 -148,-195 -148,-204 0,-11 6,-14 24,-9 34,8 829,395 845,411 31,31 2,35 -247,35 -238,0 -248,-1 -287,-23 z"
       id="path57" />
    <path
       d="m 14390,10247 c -50,-18 -50,-19 -254,-167 -172,-125 -201,-150 -177,-150 13,0 704,291 718,302 7,6 10,14 7,19 -8,14 -254,10 -294,-4 z"
       id="path58" />
    <path
       d="m 11949,9099 c -105,-207 -235,-479 -489,-1024 -133,-286 -260,-555 -281,-597 l -39,-78 h 142 143 l 230,493 c 321,689 361,772 367,761 3,-5 83,-148 178,-319 292,-525 311,-558 366,-631 112,-148 272,-250 462,-295 72,-18 110,-20 222,-17 119,4 146,8 230,37 52,17 126,50 163,72 120,71 254,214 316,336 11,23 21,45 21,48 0,3 -62,5 -139,5 h -139 l -78,-78 c -145,-144 -331,-201 -526,-161 -132,27 -277,125 -355,239 -46,68 -522,928 -634,1144 l -97,189 z"
       id="path59" />
    <path
       d="m 13035,9025 c -219,-48 -416,-192 -533,-392 l -30,-51 81,-131 c 45,-72 84,-127 88,-123 3,4 16,35 29,70 86,235 303,392 543,392 167,0 290,-51 411,-171 l 78,-79 h 139 c 77,0 139,2 139,5 0,3 -10,25 -21,48 -109,213 -310,372 -543,427 -96,23 -287,26 -381,5 z"
       id="path60" />
    <path
       d="m 7279,15991 c -65,-66 -20,-171 73,-171 35,0 50,6 71,28 62,65 17,172 -73,172 -33,0 -48,-6 -71,-29 z"
       id="path61" />
    <path
       d="m 17699,15991 c -65,-66 -20,-171 74,-171 68,0 104,43 99,115 -7,82 -113,116 -173,56 z"
       id="path62" />
    <path
       d="m 6322,15505 c -38,-32 -48,-72 -28,-118 17,-43 41,-57 96,-57 80,0 123,76 85,150 -29,57 -102,68 -153,25 z"
       id="path63" />
    <path
       d="m 18667,15506 c -47,-43 -48,-106 -2,-152 52,-52 153,-22 171,50 16,66 -32,126 -101,126 -31,0 -49,-7 -68,-24 z"
       id="path64" />
    <path
       d="m 5341,14244 c -305,-51 -563,-219 -731,-475 -66,-101 -102,-190 -131,-332 -18,-88 -20,-124 -16,-262 6,-154 16,-224 70,-455 l 13,-55 28,105 c 87,326 153,473 264,591 122,130 252,200 452,241 78,16 120,19 235,15 237,-9 333,-44 548,-200 l 88,-64 274,116 c 151,64 275,120 275,124 0,22 -114,171 -200,260 -214,224 -448,352 -714,392 -126,18 -341,18 -455,-1 z"
       id="path65" />
    <path
       d="m 19345,14249 c -255,-32 -526,-176 -728,-388 -78,-82 -207,-248 -207,-266 0,-5 125,-62 277,-126 l 277,-117 56,42 c 241,185 379,232 645,223 260,-9 449,-82 599,-233 119,-118 176,-235 260,-529 l 53,-187 22,93 c 51,219 64,324 58,499 -6,182 -26,277 -86,405 -68,146 -208,308 -350,404 -131,89 -311,157 -475,180 -90,13 -299,12 -401,0 z"
       id="path66" />
    <path
       d="m 5295,13484 c -38,-8 -106,-30 -150,-47 l -80,-32 -17,-90 c -10,-49 -18,-124 -18,-165 l -1,-75 -16,40 c -10,26 -16,76 -17,141 l -1,102 -37,-30 c -21,-16 -41,-34 -44,-40 -12,-19 -6,-161 10,-238 9,-40 14,-75 12,-77 -7,-7 -46,56 -61,98 -8,23 -15,67 -15,98 v 56 l -20,-25 c -47,-61 -49,-164 -5,-273 l 23,-58 -21,14 c -12,7 -38,40 -57,71 l -34,58 -13,-38 c -18,-52 -67,-225 -148,-524 l -66,-245 -69,-102 c -82,-122 -85,-138 -77,-343 7,-153 23,-290 63,-535 55,-341 69,-554 43,-677 -32,-151 -210,-393 -438,-593 -125,-110 -240,-197 -481,-369 -102,-72 -217,-163 -255,-202 -116,-116 -174,-254 -175,-414 0,-76 18,-57 -229,-249 l -142,-111 -37,16 c -76,34 -182,63 -266,75 -135,19 -280,-7 -411,-74 -49,-25 -168,-108 -162,-113 1,-2 27,4 56,13 66,19 158,14 196,-11 l 28,-18 -6,-122 c -11,-204 -63,-398 -157,-585 -31,-63 -45,-101 -37,-101 35,0 121,30 157,55 22,15 59,51 83,81 43,52 44,52 55,30 43,-94 41,-325 -3,-491 -15,-55 -29,-111 -32,-124 l -6,-24 33,19 c 51,30 126,120 170,205 41,78 80,207 80,261 0,42 15,34 38,-19 40,-98 46,-128 45,-233 -1,-82 -7,-124 -28,-195 -31,-106 -88,-232 -151,-331 -24,-40 -44,-74 -44,-77 0,-8 48,7 103,31 64,29 149,86 213,145 30,27 54,45 54,41 0,-5 -12,-52 -25,-104 -64,-238 -205,-486 -390,-687 -41,-45 -72,-84 -68,-86 14,-7 146,11 189,26 203,73 383,239 544,503 57,93 59,95 72,72 23,-40 17,-319 -10,-463 -20,-103 -80,-360 -98,-419 -10,-31 11,-11 71,69 109,145 185,316 227,507 32,150 32,438 -1,623 -25,143 -73,317 -119,437 l -30,78 34,-27 c 86,-65 232,-263 300,-405 l 34,-73 -6,60 c -17,182 -160,473 -411,843 -83,123 -99,152 -81,147 47,-13 172,-78 250,-131 45,-30 83,-54 85,-54 10,0 -93,180 -151,265 -33,49 -96,126 -138,170 l -78,80 53,53 c 58,59 170,152 183,152 5,0 20,-25 33,-56 74,-171 260,-360 559,-566 120,-83 184,-149 206,-215 20,-59 20,-168 0,-247 -15,-58 -94,-230 -169,-364 -32,-57 -35,-71 -35,-141 v -77 l 157,-146 c 263,-242 538,-508 616,-595 l 74,-82 -5,-93 c -4,-90 -4,-94 22,-119 24,-25 41,-31 153,-59 80,-20 82,-75 3,-141 -62,-52 -72,-88 -41,-153 27,-55 112,-136 179,-170 54,-28 120,-34 140,-14 21,21 14,154 -17,307 -16,82 -31,196 -34,259 -4,83 -10,121 -23,140 -9,15 -143,151 -298,302 -630,616 -596,580 -596,631 0,56 14,76 94,133 157,112 327,345 491,675 213,428 345,883 348,1194 l 1,117 h 31 c 16,0 73,15 125,33 279,96 531,365 738,788 l 67,137 66,21 c 132,42 321,175 557,390 104,96 115,103 144,97 59,-12 178,-77 276,-150 113,-86 315,-290 401,-405 69,-94 79,-132 59,-231 -13,-65 -13,-65 -64,-89 -80,-37 -103,-97 -69,-178 31,-73 14,-103 -68,-123 -31,-8 -56,-23 -73,-43 -23,-27 -25,-37 -20,-76 12,-91 97,-234 185,-313 120,-108 161,-57 161,201 v 116 l 101,199 c 94,184 101,202 96,241 -35,254 -449,748 -897,1070 -109,78 -295,189 -530,316 -190,103 -192,105 -246,176 -84,113 -217,263 -402,454 -200,207 -191,188 -198,444 -5,191 -1,208 56,238 74,38 154,-11 210,-129 44,-95 54,-141 55,-262 0,-107 1,-115 24,-133 46,-37 79,-19 88,50 11,79 70,97 131,38 44,-41 92,-67 125,-67 35,0 75,36 87,78 8,31 6,43 -11,77 -84,158 -87,172 -91,480 l -3,239 575,233 c 646,261 624,252 618,259 -5,4 -1165,-196 -1233,-212 -17,-4 -25,5 -48,51 -55,113 -160,198 -289,236 -99,29 -359,36 -463,13 z"
       id="path67" />
    <path
       d="m 19410,13481 c -47,-10 -110,-31 -140,-46 -69,-35 -157,-124 -195,-197 -24,-46 -34,-56 -50,-53 -90,21 -1228,215 -1233,211 -6,-7 -24,0 640,-267 l 558,-224 v -185 c 0,-298 -19,-412 -85,-511 -30,-46 -32,-92 -6,-136 38,-61 103,-56 181,14 78,70 132,60 145,-26 4,-20 10,-43 14,-51 12,-23 45,-23 72,-1 23,18 24,25 25,133 1,154 43,278 122,360 41,43 78,54 127,38 68,-22 75,-43 75,-220 0,-123 -4,-173 -19,-231 l -20,-74 -147,-150 c -168,-172 -322,-344 -411,-460 l -61,-80 -193,-105 c -106,-58 -251,-140 -323,-183 -510,-305 -1012,-843 -1093,-1172 l -16,-65 100,-198 100,-197 5,-150 c 6,-161 20,-218 57,-230 79,-25 273,223 288,369 5,46 2,54 -21,78 -16,15 -48,31 -77,38 -34,8 -55,20 -66,37 -15,23 -15,28 0,71 20,54 22,104 6,135 -14,28 -49,56 -70,57 -35,0 -52,27 -64,99 -20,116 -8,145 129,308 82,98 233,246 317,310 104,79 261,163 306,163 10,0 65,-43 123,-96 250,-229 437,-359 571,-398 l 55,-16 77,-155 c 183,-367 398,-615 632,-731 86,-42 185,-74 231,-74 21,0 21,-5 27,-157 12,-318 131,-719 342,-1148 168,-342 355,-596 512,-695 58,-37 72,-61 73,-124 v -49 l -182,-176 c -101,-96 -304,-295 -452,-442 l -270,-268 -9,-128 c -5,-70 -20,-182 -34,-248 -30,-150 -40,-282 -23,-314 11,-21 17,-23 66,-19 117,10 274,159 274,259 0,27 -10,42 -57,85 -46,43 -56,58 -56,85 0,41 17,53 96,69 73,14 112,33 127,60 6,11 10,61 9,109 -1,76 2,94 19,118 28,40 411,415 634,622 129,119 188,181 192,199 13,66 -9,146 -67,248 -118,208 -162,339 -155,464 8,132 51,191 233,316 285,196 479,394 556,568 11,25 23,46 28,46 17,0 231,-185 231,-201 0,-3 -33,-40 -73,-80 -40,-41 -107,-126 -149,-189 -78,-119 -154,-250 -144,-250 3,0 47,27 97,60 125,82 274,152 253,119 -5,-8 -61,-93 -125,-189 -186,-278 -288,-468 -345,-637 -24,-71 -47,-204 -35,-202 3,0 27,45 54,99 26,54 74,134 106,177 62,83 209,232 196,198 -42,-103 -109,-325 -129,-426 -98,-484 -27,-886 212,-1205 35,-47 66,-83 68,-81 3,2 -13,74 -35,160 -63,250 -85,391 -85,557 0,96 4,155 12,175 l 13,29 21,-34 c 189,-311 363,-484 565,-560 52,-19 191,-42 206,-33 4,2 -22,36 -58,75 -194,209 -338,466 -400,710 -9,35 -19,72 -22,83 -4,13 12,3 48,-29 94,-85 201,-148 307,-181 22,-6 21,-2 -16,57 -194,315 -245,570 -151,767 l 31,66 18,-85 c 25,-118 53,-188 112,-276 44,-66 134,-154 158,-154 4,0 -3,37 -16,83 -54,183 -68,361 -39,486 23,97 25,98 70,40 52,-65 127,-116 193,-130 29,-6 55,-9 57,-7 2,2 -18,49 -46,103 -91,183 -145,385 -156,591 l -6,112 27,17 c 38,25 149,31 206,11 24,-8 46,-13 48,-11 8,7 -121,96 -182,124 -102,49 -178,64 -306,64 -125,-1 -227,-22 -328,-68 l -55,-25 -96,72 c -52,40 -136,106 -186,146 l -90,73 -6,102 c -8,124 -36,208 -102,300 -64,89 -118,135 -374,319 -122,87 -271,198 -330,247 -311,255 -509,509 -544,697 -20,105 -5,322 45,644 55,356 66,464 66,626 0,142 -4,157 -78,266 -27,40 -54,83 -60,94 -6,12 -52,172 -102,355 -50,184 -100,363 -111,397 l -21,64 -25,-44 c -25,-45 -71,-98 -84,-98 -4,0 3,25 17,55 15,32 27,82 31,123 5,58 2,76 -17,118 l -23,49 -13,-71 c -13,-74 -32,-120 -67,-164 l -20,-25 7,25 c 18,69 37,220 33,258 -5,44 -22,70 -67,102 l -25,18 -1,-97 c 0,-53 -6,-116 -14,-141 l -14,-45 -6,105 c -4,58 -13,131 -20,163 -12,52 -18,60 -51,78 -21,10 -77,31 -126,45 -120,36 -353,44 -483,15 z"
       id="path68" />
    <path
       d="m 7245,11553 c -11,-2 -83,-21 -160,-41 l -140,-37 h -315 c -329,-1 -382,-6 -464,-47 -21,-11 -34,-23 -30,-28 5,-4 83,-49 174,-100 91,-50 212,-123 270,-161 l 105,-70 68,17 c 127,31 246,98 351,198 89,85 91,80 91,-192 -1,-201 -2,-222 -24,-282 l -23,-65 68,-64 c 114,-106 174,-154 182,-146 10,9 4,330 -12,676 -14,306 -17,320 -70,339 -30,10 -37,11 -71,3 z"
       id="path69" />
    <path
       d="m 17803,11550 c -48,-20 -51,-37 -67,-372 -18,-355 -21,-634 -7,-642 9,-6 78,52 187,156 l 61,59 -19,38 c -26,52 -38,208 -31,384 4,104 10,150 19,158 11,9 32,-5 94,-64 91,-86 219,-155 337,-183 l 71,-17 35,30 c 37,33 177,118 380,232 70,40 127,74 127,76 0,9 -81,45 -127,56 -31,8 -160,12 -368,13 l -320,1 -135,37 c -158,43 -207,51 -237,38 z"
       id="path70" />
    <path
       d="m 6920,10458 c -16,-17 -19,-33 -17,-80 3,-85 -9,-93 -97,-62 -80,28 -106,30 -145,10 -39,-21 -53,-59 -52,-148 1,-82 16,-164 51,-262 28,-81 43,-102 81,-110 71,-14 151,36 165,102 17,80 52,149 106,207 51,55 65,64 130,83 130,39 130,35 -2,167 -110,110 -116,115 -157,115 -31,0 -48,-6 -63,-22 z"
       id="path71" />
    <path
       d="m 17983,10368 c -62,-62 -113,-115 -113,-119 0,-11 81,-47 123,-55 87,-15 171,-114 213,-250 27,-91 49,-117 113,-134 86,-23 122,16 167,186 36,131 39,259 8,301 -34,46 -81,52 -172,21 -54,-18 -81,-23 -89,-16 -8,6 -13,35 -13,74 0,80 -19,104 -82,104 -39,0 -47,-6 -155,-112 z"
       id="path72" />
    <path
       d="m 4837,8076 c -51,-160 -298,-560 -457,-739 -54,-61 -60,-73 -60,-111 0,-56 38,-112 116,-172 33,-25 188,-109 349,-189 259,-129 310,-158 479,-277 104,-74 194,-141 200,-150 7,-12 6,-36 -3,-82 -21,-105 -2,-144 76,-161 40,-8 83,-57 83,-95 0,-15 -7,-47 -15,-71 -35,-98 -37,-128 -13,-167 61,-98 209,-232 258,-232 24,0 32,7 51,47 19,39 23,65 23,143 1,130 -7,160 -59,222 -66,76 -86,139 -95,288 -3,69 -12,135 -18,147 -17,32 -56,56 -159,101 -156,67 -269,150 -592,434 -267,235 -255,222 -247,261 26,129 57,312 70,417 17,133 39,430 33,436 -2,2 -11,-20 -20,-50 z"
       id="path73" />
    <path
       d="m 20275,7975 c 5,-161 34,-397 70,-582 14,-70 25,-135 25,-144 0,-13 -259,-250 -465,-425 -117,-99 -231,-176 -335,-225 -216,-103 -211,-96 -220,-278 -5,-107 -10,-135 -33,-185 -15,-32 -42,-76 -61,-96 -46,-51 -60,-99 -60,-205 0,-130 29,-205 80,-205 50,0 221,161 262,248 15,31 14,37 -12,118 -41,127 -24,178 72,203 60,17 77,46 67,119 -17,134 -34,109 185,264 202,142 291,193 520,298 315,144 461,266 436,365 -3,13 -29,50 -57,82 -156,177 -392,556 -461,738 l -18,50 z"
       id="path74" />
  </g>
</svg>
