<?xml version="1.0" encoding="UTF-8" standalone="no"?>
<svg
   width="86"
   height="86"
   viewBox="0 0 86 86"
   fill="none"
   version="1.1"
   id="svg65"
   sodipodi:docname="codechef-logo.svg"
   inkscape:version="1.4.1 (93de688d07, 2025-03-30)"
   xmlns:inkscape="http://www.inkscape.org/namespaces/inkscape"
   xmlns:sodipodi="http://sodipodi.sourceforge.net/DTD/sodipodi-0.dtd"
   xmlns="http://www.w3.org/2000/svg"
   xmlns:svg="http://www.w3.org/2000/svg">
  <sodipodi:namedview
     id="namedview65"
     pagecolor="#ffffff"
     bordercolor="#000000"
     borderopacity="0.25"
     inkscape:showpageshadow="2"
     inkscape:pageopacity="0.0"
     inkscape:pagecheckerboard="0"
     inkscape:deskcolor="#d1d1d1"
     inkscape:zoom="4.9086366"
     inkscape:cx="37.586812"
     inkscape:cy="58.366512"
     inkscape:window-width="1896"
     inkscape:window-height="1116"
     inkscape:window-x="0"
     inkscape:window-y="0"
     inkscape:window-maximized="1"
     inkscape:current-layer="svg65" />
  <path
     d="m 64.05997,60.101705 c 2.2,0.72 4.01,1.74 5.42,3.06 0.31,0.22 0.46,0.47 0.46,0.76 0,0.47 -0.35,0.92 -1.06,1.36 -0.83,0.52 -2.07,1.44 -3.71,2.76 -1.52,1.21 -2.75,2.09 -3.68,2.65 -0.18,0.09 -0.36,0.14 -0.54,0.14 -0.27,0 -0.51,-0.1 -0.7,-0.28 -0.2,-0.19 -0.3,-0.41 -0.3,-0.66 0,-0.22 0.08,-0.41 0.24,-0.6 0.22,-0.36 0.72,-0.76 1.52,-1.19 0.52,-0.27 1.17,-0.71 1.95,-1.33 0.94,-0.76 1.59,-1.26 1.95,-1.49 0.79,-0.4 1.19,-0.68 1.19,-0.84 0,-0.04 -0.01,-0.07 -0.03,-0.11 -0.43,-0.76 -1.15,-1.33 -2.14,-1.71 -0.88,-0.25 -1.78,-0.51 -2.68,-0.79 -1.06,-0.32 -1.85,-0.78 -2.36,-1.38 -0.04,-0.05 -0.05,-0.12 -0.05,-0.19 0,-0.22 0.13,-0.46 0.38,-0.72 0.25,-0.26 0.5,-0.39 0.73,-0.39 0.14,-0.04 0.29,-0.05 0.43,-0.05 0.42,0 0.93,0.13 1.54,0.38 0.47,0.2 0.95,0.4 1.44,0.62 z m -42.25,-0.89 c 0.41,0 0.75,0.11 1.02,0.33 0.26,0.22 0.39,0.47 0.39,0.76 0,0.22 -0.08,0.41 -0.24,0.57 -0.6,0.65 -1.82,1.35 -3.68,2.09 -1.72,0.69 -2.86997,1.48 -3.46997,2.38 1.00997,0.61 2.33997,1.28 3.97997,2 2.62,1.17 3.97,1.78 4.06,1.82 0.34,0.16 0.51,0.42 0.51,0.79 0.04,0.45 -0.14,0.83 -0.53,1.15 -0.39,0.32 -0.84,0.47 -1.34,0.47 -0.2,0 -0.39,-0.04 -0.57,-0.11 -0.22,-0.22 -0.51,-0.47 -0.89,-0.76 -2.38,-1.3 -4.92997,-2.54 -7.63997,-3.71 -0.27,-0.11 -0.54,-0.21 -0.81,-0.3 -0.34,-0.16 -0.54,-0.4 -0.6,-0.7 0,-0.78 0.34,-1.5 1.03,-2.17 0.83,-0.67 2.2,-1.43 4.11997,-2.3 1.86,-0.83 3.2,-1.6 4.04,-2.3 0,-0.01 0.2,-0.01 0.62,-0.01 z"
     fill="#5b4538"
     id="path3"
     style="fill:#000000" />
  <path
     d="m 38.79997,59.171705 c -0.45,-0.65 -0.87,-1.11 -1.25,-1.38 -0.38,-0.27 -0.82,-0.4 -1.33,-0.4 -0.18,0 -0.34,0.03 -0.47,0.08 l -3,1.04 c -0.17,0.06 -0.37,0.08 -0.59,0.08 -0.4,0 -0.72,-0.09 -0.96,-0.28 -0.25,-0.18 -0.55,-0.55 -0.9,-1.1 l -0.83,0.55 c 0.52,0.75 0.97,1.25 1.33,1.49 0.37,0.25 0.83,0.37 1.4,0.37 0.25,0 0.5,-0.04 0.74,-0.11 l 2.75,-1 c 0.18,-0.07 0.38,-0.11 0.59,-0.11 0.35,0 0.64,0.07 0.85,0.22 0.21,0.14 0.51,0.47 0.89,0.99 z"
     fill="#5b4538"
     id="path4"
     style="fill:#000000" />
  <path
     fill-rule="evenodd"
     clip-rule="evenodd"
     d="m 59.06997,75.741705 c 1.51,9.02 -9.52,9.89 -14.05,5.84 -3.13,-2.8 -2.25,-6.69 2.24,-6.45 3.95,0.21 6.28,5.31 11.81,0.61 z"
     fill="#5b4538"
     id="path5"
     style="fill:#000000" />
  <path
     fill-rule="evenodd"
     clip-rule="evenodd"
     d="m 25.56997,75.741705 c -1.51,9.02 9.52,9.89 14.05,5.84 3.13,-2.8 2.25,-6.69 -2.24,-6.45 -3.95,0.21 -6.28,5.31 -11.81,0.61 z"
     fill="#5b4538"
     id="path6"
     style="fill:#000000" />
  <path
     d="m 36.39997,62.651705 c -0.5,-0.35 -1.12,-0.53 -1.86,-0.53 -0.89,0 -1.61,0.27 -2.17,0.8 -0.65,0.59 -0.9,1.43 -0.75,2.53 0.09,0.89 0.41,1.67 0.95,2.35 0.55,0.68 1.21,1.02 1.97,1.02 0.47,0 0.96,-0.13 1.46,-0.4 0.89,-0.53 1.33,-1.55 1.33,-3.06 0,-1.36 -0.31,-2.26 -0.93,-2.71 z m -1.9,3.59 c -0.52,0 -0.95,-0.42 -0.95,-0.95 0,-0.52 0.42,-0.95 0.95,-0.95 0.52,0 0.95,0.42 0.95,0.95 0,0.53 -0.43,0.95 -0.95,0.95 z"
     fill="#5b4538"
     id="path7"
     style="fill:#000000" />
  <path
     d="m 42.99997,74.361705 c 0.28,0 0.55,-0.05 0.8,-0.15 0.25,-0.1 0.48,-0.22 0.69,-0.38 0.21,-0.16 0.4,-0.34 0.57,-0.53 0.17,-0.2 0.32,-0.39 0.44,-0.6 0.13,-0.2 0.23,-0.39 0.31,-0.58 0.08,-0.18 0.14,-0.33 0.17,-0.46 -0.01,-0.02 -0.02,-0.05 -0.04,-0.09 -0.02,-0.03 -0.04,-0.06 -0.05,-0.09 -0.02,-0.02 -0.04,-0.03 -0.05,-0.03 -0.24,0.44 -0.5,0.8 -0.8,1.08 -0.3,0.28 -0.63,0.48 -0.98,0.61 -0.36,0.13 -0.75,0.19 -1.16,0.19 -0.36,0 -0.68,-0.05 -0.96,-0.14 -0.29,-0.09 -0.54,-0.23 -0.77,-0.4 -0.23,-0.18 -0.43,-0.39 -0.62,-0.63 -0.18,-0.24 -0.35,-0.52 -0.5,-0.82 -0.01,0 -0.02,0.01 -0.04,0.03 -0.02,0.02 -0.04,0.05 -0.05,0.08 -0.02,0.03 -0.02,0.05 -0.03,0.07 0.14,0.39 0.31,0.75 0.52,1.1 0.2,0.34 0.43,0.64 0.69,0.9 0.26,0.26 0.54,0.47 0.86,0.62 0.3,0.13 0.64,0.21 1,0.22 z"
     fill="#5b4538"
     id="path8"
     style="fill:#000000" />
  <path
     d="m 51.79007,62.591705 c -0.5,-0.35 -1.12,-0.53 -1.86,-0.53 -0.89,0 -1.6101,0.27 -2.1701,0.8 -0.65,0.59 -0.9,1.44 -0.75,2.53 0.09,0.89 0.41,1.67 0.95,2.35 0.55,0.68 1.2101,1.02 1.9701,1.02 0.47,0 0.96,-0.13 1.46,-0.4 0.89,-0.53 1.33,-1.55 1.33,-3.06 0.01,-1.37 -0.3,-2.27 -0.93,-2.71 z m -2.18,3.76 c -0.52,0 -0.95,-0.43 -0.95,-0.95 0,-0.52 0.42,-0.95 0.95,-0.95 0.52,0 0.95,0.42 0.95,0.95 0,0.53 -0.43,0.95 -0.95,0.95 z"
     fill="#5b4538"
     id="path9"
     style="fill:#000000" />
  <path
     id="path10"
     style="fill:#000000"
     d="M 40.6875 2.0058594 C 39.354844 2.0302344 38.021953 2.1297656 36.689453 2.3222656 C 32.899453 2.8822656 27.989219 6.5317969 23.449219 6.8417969 C 20.231157 7.9045747 18.808033 9.2268534 17.792969 10.521484 C 17.93126 10.393799 18.078353 10.276783 18.230469 10.171875 C 18.630469 9.8918748 19.079063 9.7123438 19.539062 9.6523438 L 19.550781 9.7421875 C 19.100781 9.7921875 18.669297 9.9821873 18.279297 10.242188 C 17.849297 10.832187 17.530938 11.211797 17.210938 11.841797 C 16.320978 13.621797 18.170391 13.531953 18.900391 14.501953 C 20.740391 15.981953 20.89 20.832188 22 26.242188 C 23.39 33.022188 23.840312 41.072422 27.820312 45.732422 C 27.822813 45.734922 27.826719 45.738672 27.828125 45.740234 L 27.828125 45.742188 L 27.830078 45.742188 L 27.830078 45.744141 L 27.830078 45.746094 C 27.830234 45.747656 27.830078 45.749453 27.830078 45.751953 L 27.769531 45.8125 C 27.765781 45.80875 27.763184 45.804727 27.761719 45.802734 L 27.761719 45.800781 L 27.759766 45.798828 L 27.759766 45.796875 C 27.759609 45.795313 27.759766 45.793516 27.759766 45.791016 C 23.759766 41.111016 22.110703 33.051719 20.720703 26.261719 C 19.620703 20.871719 18.679375 16.272266 16.859375 14.822266 L 16.849609 14.8125 C 16.619649 14.5125 16.489453 14.161016 16.439453 13.791016 C 16.374386 13.328315 16.441392 12.835418 16.607422 12.351562 C 15.448379 15.120799 15.208195 17.882137 15.830078 20.652344 C 17.490048 25.932344 20.040078 30.732422 20.830078 36.482422 C 22.580078 39.572422 22.699219 45.412031 26.699219 49.332031 C 26.789084 49.289228 26.879125 49.24677 26.96875 49.205078 L 27.050781 52.732422 C 31.460781 50.392422 42.499297 44.601953 57.279297 54.751953 C 57.467682 53.684435 57.580801 52.616346 57.617188 51.548828 C 57.848683 51.643333 58.079839 51.738222 58.310547 51.832031 C 59.850547 51.162031 60.639687 45.961094 61.679688 41.121094 C 65.429688 32.551094 73.800781 26.241484 73.300781 18.271484 C 66.430781 4.8214842 56.809453 4.3414844 52.689453 3.2714844 C 48.684453 2.5289844 44.685469 1.9327344 40.6875 2.0058594 z M 16.607422 12.351562 C 16.678463 12.181828 16.752113 12.011591 16.830078 11.841797 C 17.140805 11.412943 17.442233 10.968819 17.792969 10.521484 C 17.403971 10.880649 17.075918 11.321256 16.839844 11.800781 C 16.748435 11.980851 16.671042 12.166157 16.607422 12.351562 z M 37.041016 3.2402344 C 37.494766 3.2247656 37.987031 3.286875 38.519531 3.421875 L 38.490234 3.5117188 C 37.790234 3.3317187 37.140078 3.4822656 36.580078 3.5722656 C 35.120078 3.9022656 35.290078 4.8225777 34.330078 6.8925781 C 33.690078 9.0825781 33.329141 11.791797 33.619141 15.091797 C 34.869141 23.261797 36.400469 34.402187 37.730469 40.742188 L 37.660156 40.771484 C 35.310156 34.651484 32.790391 24.032344 32.400391 15.652344 C 32.250391 12.352344 32.420313 9.3914062 33.070312 7.1914062 C 33.720312 4.9814058 34.849609 3.54125 36.599609 3.28125 C 36.742109 3.25875 36.889766 3.2453906 37.041016 3.2402344 z M 47.380859 4.0214844 L 47.460938 4.0722656 C 44.770938 11.242256 44.409844 24.890781 44.089844 29.300781 C 43.949844 31.200781 44.170313 35.281406 44.320312 38.191406 C 44.410313 38.871406 44.509609 39.552656 44.599609 40.222656 L 44.5 40.242188 C 44.41 39.582188 44.320703 38.900937 44.220703 38.210938 C 42.690703 27.190937 40.820859 13.711475 47.380859 4.0214844 z M 59.089844 5.2617188 L 59.070312 5.3515625 C 58.100312 12.731563 54.389766 16.182422 53.009766 23.482422 C 52.496318 28.88763 51.929974 35.068503 51.669922 40.511719 C 51.684656 40.897472 51.702671 41.280757 51.720703 41.662109 L 51.619141 41.662109 C 51.634426 41.282634 51.651409 40.899216 51.669922 40.511719 C 51.464039 35.12158 51.598904 29.315871 52.550781 23.501953 C 53.580781 17.271953 55.549844 11.031719 59.089844 5.2617188 z M 23.978516 7.5195312 C 24.699844 7.5049023 25.570859 7.7475 26.349609 8.28125 L 26.289062 8.3515625 C 25.419062 7.7615625 25.070313 7.7925781 24.320312 7.8925781 C 24.010313 7.9325781 23.750781 8.031875 23.550781 8.171875 C 23.350781 8.311875 23.219688 8.5119531 23.179688 8.7519531 C 23.139688 9.1119531 22.900469 9.1720313 23.230469 9.8320312 C 25.450469 12.842031 27.139375 17.832578 27.609375 23.142578 C 28.199375 29.872578 27.420859 37.331328 31.880859 42.611328 L 31.810547 42.671875 C 27.330547 37.361875 26.670078 29.892344 26.080078 23.152344 C 25.610078 17.852344 25.180469 13.001719 22.980469 10.011719 C 22.520469 9.3917186 22.379219 8.8824219 22.449219 8.4824219 C 22.499219 8.2124219 22.639375 8.0017969 22.859375 7.8417969 C 23.069375 7.6817969 23.349687 7.5810156 23.679688 7.5410156 C 23.775938 7.5285156 23.875469 7.5216211 23.978516 7.5195312 z M 68.791016 13.960938 C 68.854162 13.958403 68.917031 13.9575 68.980469 13.960938 L 68.970703 14.050781 C 65.780703 13.930781 61.729531 25.982187 60.769531 28.992188 C 60.699531 29.242188 60.680625 29.401484 60.640625 29.521484 L 60.640625 29.53125 C 59.500625 32.50125 59.430781 35.531172 59.050781 38.201172 C 58.920781 41.111172 58.669844 43.63125 57.089844 45.28125 L 57.029297 45.232422 C 58.589297 43.602422 58.699844 41.101172 58.839844 38.201172 C 58.959844 35.521172 59.100156 32.501719 60.410156 29.511719 C 60.440156 29.401719 60.500312 29.211172 60.570312 28.951172 C 61.426719 25.968516 64.812783 14.120641 68.791016 13.960938 z " />
  <defs
     id="defs65">
    <linearGradient
       id="paint0_linear_9_45"
       x1="57.122299"
       y1="58.737801"
       x2="255.226"
       y2="58.737801"
       gradientUnits="userSpaceOnUse">
      <stop
         stop-color="#3B2519"
         id="stop31" />
      <stop
         offset="0.0299"
         stop-color="#3F2719"
         id="stop32" />
      <stop
         offset="0.2736"
         stop-color="#5C331B"
         id="stop33" />
      <stop
         offset="0.4847"
         stop-color="#6E3B1D"
         id="stop34" />
      <stop
         offset="0.6382"
         stop-color="#743E1D"
         id="stop35" />
      <stop
         offset="0.7421"
         stop-color="#6F3C1C"
         id="stop36" />
      <stop
         offset="0.8624"
         stop-color="#61351A"
         id="stop37" />
      <stop
         offset="0.9905"
         stop-color="#4A2B17"
         id="stop38" />
      <stop
         offset="1"
         stop-color="#482A17"
         id="stop39" />
    </linearGradient>
    <linearGradient
       id="paint1_linear_9_45"
       x1="8.8355303"
       y1="28.462601"
       x2="66.658897"
       y2="28.462601"
       gradientUnits="userSpaceOnUse"
       gradientTransform="translate(14.65997,2.6347996)">
      <stop
         offset="0.0397"
         stop-color="#F9F9EC"
         id="stop40" />
      <stop
         offset="0.4183"
         stop-color="#F9F9EC"
         id="stop41" />
      <stop
         offset="0.4932"
         stop-color="#F3F1E2"
         id="stop42" />
      <stop
         offset="0.6217"
         stop-color="#E4DDC6"
         id="stop43" />
      <stop
         offset="0.7873"
         stop-color="#CCBC9A"
         id="stop44" />
      <stop
         offset="0.7969"
         stop-color="#CABA97"
         id="stop45" />
      <stop
         offset="1"
         stop-color="#BAA685"
         id="stop46" />
    </linearGradient>
    <linearGradient
       id="paint2_linear_9_45"
       x1="20.268999"
       y1="49.201599"
       x2="50.973499"
       y2="49.201599"
       gradientUnits="userSpaceOnUse"
       gradientTransform="translate(14.65997,2.6347996)">
      <stop
         stop-color="#F9F9EC"
         id="stop47" />
      <stop
         offset="0.0526"
         stop-color="#F9F9EC"
         id="stop48" />
      <stop
         offset="0.3844"
         stop-color="#F9F9EC"
         id="stop49" />
      <stop
         offset="0.5145"
         stop-color="#F5F4E5"
         id="stop50" />
      <stop
         offset="0.7094"
         stop-color="#EAE5D0"
         id="stop51" />
      <stop
         offset="0.9441"
         stop-color="#D9CCAF"
         id="stop52" />
      <stop
         offset="0.9987"
         stop-color="#D4C6A6"
         id="stop53" />
    </linearGradient>
    <linearGradient
       id="paint3_linear_9_45"
       x1="10.1621"
       y1="21.8836"
       x2="15.7323"
       y2="21.8836"
       gradientUnits="userSpaceOnUse">
      <stop
         stop-color="#E8DBCA"
         id="stop54" />
      <stop
         offset="1"
         stop-color="#F2ECDE"
         id="stop55" />
    </linearGradient>
    <linearGradient
       id="paint4_linear_9_45"
       x1="18.402"
       y1="15.8332"
       x2="21.459801"
       y2="20.2955"
       gradientUnits="userSpaceOnUse">
      <stop
         stop-color="#ECE1D1"
         id="stop56" />
      <stop
         offset="0.4318"
         stop-color="#EEE6D9"
         id="stop57" />
      <stop
         offset="1"
         stop-color="#EFE9DE"
         id="stop58" />
    </linearGradient>
    <linearGradient
       id="paint5_linear_9_45"
       x1="26.808399"
       y1="19.2871"
       x2="32.4725"
       y2="19.2871"
       gradientUnits="userSpaceOnUse">
      <stop
         stop-color="#ECE1D1"
         id="stop59" />
      <stop
         offset="1"
         stop-color="#EDE4D5"
         id="stop60" />
    </linearGradient>
    <linearGradient
       id="paint6_linear_9_45"
       x1="48.7244"
       y1="18.9074"
       x2="48.577702"
       y2="26.3957"
       gradientUnits="userSpaceOnUse"
       gradientTransform="translate(14.65997,2.6347996)">
      <stop
         stop-color="#BAA68A"
         id="stop61" />
      <stop
         offset="1"
         stop-color="#C7BAA0"
         id="stop62" />
    </linearGradient>
    <linearGradient
       id="paint7_linear_9_45"
       x1="52.062302"
       y1="29.1551"
       x2="62.1189"
       y2="29.1551"
       gradientUnits="userSpaceOnUse">
      <stop
         stop-color="#BDAE99"
         id="stop63" />
      <stop
         offset="0.2551"
         stop-color="#BFB19C"
         id="stop64" />
      <stop
         offset="1"
         stop-color="#C2B5A1"
         id="stop65" />
    </linearGradient>
  </defs>
</svg>
