<?xml version="1.0" standalone="no"?>
<!DOCTYPE svg PUBLIC "-//W3C//DTD SVG 20010904//EN"
 "http://www.w3.org/TR/2001/REC-SVG-20010904/DTD/svg10.dtd">
<svg version="1.0" xmlns="http://www.w3.org/2000/svg"
 width="192.000000pt" height="192.000000pt" viewBox="0 0 192.000000 192.000000"
 preserveAspectRatio="xMidYMid meet">
<metadata>
Created by potrace 1.14, written by Peter Selinger 2001-2017
</metadata>
<g transform="translate(0.000000,192.000000) scale(0.100000,-0.100000)"
fill="#000000" stroke="none">
<path d="M270 1881 c-128 -40 -232 -159 -247 -282 l-6 -49 928 0 928 0 -6 49
c-12 102 -87 205 -189 258 l-53 28 -665 2 c-366 1 -676 -2 -690 -6z"/>
<path d="M140 945 l0 -445 140 0 140 0 0 165 0 165 108 0 c186 0 278 38 335
138 72 129 34 312 -77 377 -66 38 -131 45 -396 45 l-250 0 0 -445z m429 254
c51 -18 77 -91 50 -141 -16 -29 -70 -48 -139 -48 l-60 0 0 100 0 100 59 0 c32
0 72 -5 90 -11z"/>
<path d="M990 945 l0 -445 380 0 380 0 0 44 c0 23 -3 71 -6 105 l-7 61 -233 0
-234 0 0 85 0 85 215 0 215 0 0 90 0 90 -215 0 -215 0 0 70 0 70 230 0 230 0
0 95 0 95 -370 0 -370 0 0 -445z"/>
<path d="M30 295 c0 -29 50 -115 90 -155 22 -22 63 -52 92 -67 l53 -28 680 0
680 0 53 28 c29 15 70 45 92 67 40 40 90 126 90 155 0 13 -100 15 -915 15
-815 0 -915 -2 -915 -15z"/>
</g>
</svg>
